<svg id="e2WjRxlfmiB1" xmlns="http://www.w3.org/2000/svg" xmlns:xlink="http://www.w3.org/1999/xlink" viewBox="0 0 600 600" shape-rendering="geometricPrecision" text-rendering="geometricPrecision">
<style><![CDATA[
#e2WjRxlfmiB4_to {animation: e2WjRxlfmiB4_to__to 5000ms linear infinite normal forwards}@keyframes e2WjRxlfmiB4_to__to { 0% {transform: translate(296.979516px,398.850006px)} 20% {transform: translate(279.725849px,398.550003px)} 40% {transform: translate(295.450665px,398.550003px)} 60% {transform: translate(329.8px,398.550003px)} 100% {transform: translate(329.8px,398.550003px)}} #e2WjRxlfmiB8_tr {animation: e2WjRxlfmiB8_tr__tr 5000ms linear infinite normal forwards}@keyframes e2WjRxlfmiB8_tr__tr { 0% {transform: translate(354.000001px,109.849994px) rotate(0deg)} 80% {transform: translate(354.000001px,109.849994px) rotate(0deg)} 88% {transform: translate(354.000001px,109.849994px) rotate(-2.55119deg)} 100% {transform: translate(354.000001px,109.849994px) rotate(4.59944deg)}} #e2WjRxlfmiB8 {animation: e2WjRxlfmiB8__tt 5000ms linear infinite normal forwards}@keyframes e2WjRxlfmiB8__tt { 0% {transform: translate(-354.099991px,-109.849998px)} 70% {transform: translate(-354.099991px,-109.849998px)} 100% {transform: translate(-354.099991px,-109.849998px)}} #e2WjRxlfmiB29_to {animation: e2WjRxlfmiB29_to__to 5000ms linear infinite normal forwards}@keyframes e2WjRxlfmiB29_to__to { 0% {transform: translate(354px,372.700012px)} 10% {transform: translate(333.636656px,369.600024px)} 20% {transform: translate(354px,372.700012px)} 38% {transform: translate(364.2px,353.500024px)} 51.2% {transform: translate(364.2px,359.625237px)} 70% {transform: translate(319.599985px,359.625237px)} 100% {transform: translate(319.599985px,359.625237px)}} #e2WjRxlfmiB29_ts {animation: e2WjRxlfmiB29_ts__ts 5000ms linear infinite normal forwards}@keyframes e2WjRxlfmiB29_ts__ts { 0% {transform: scale(1,1)} 70% {transform: scale(1,1)} 80% {transform: scale(0.644352,1.130769)} 100% {transform: scale(0.644352,2.088902)}} #e2WjRxlfmiB35_to {animation: e2WjRxlfmiB35_to__to 5000ms linear infinite normal forwards}@keyframes e2WjRxlfmiB35_to__to { 0% {transform: translate(336.279519px,268.000015px)} 28% {transform: translate(336.279519px,268.000015px)} 48% {transform: translate(397.1px,283.100003px)} 70% {transform: translate(311.1px,283.100003px)} 100% {transform: translate(311.1px,283.100003px)}} #e2WjRxlfmiB35_ts {animation: e2WjRxlfmiB35_ts__ts 5000ms linear infinite normal forwards}@keyframes e2WjRxlfmiB35_ts__ts { 0% {transform: scale(1,1)} 14% {transform: scale(1.2,1.2)} 28% {transform: scale(1,1)} 100% {transform: scale(1,1)}}
]]></style>
<g><rect width="599.6" height="599.6" rx="0" ry="0" fill="#ffc4e1"/></g><g id="e2WjRxlfmiB4_to" transform="translate(296.979516,398.850006)"><g transform="translate(-295.450665,-398.550003)"><path d="M582.7,462.2h-54.9v-12.4c34.7-20.9,58.8-66.8,58.8-120.1c0-73-45.2-132.2-101-132.2s-101,59.2-101,132.2c0,53.3,24.1,99.2,58.8,120.1v12.4h-84.5c-6.6,0-12,5.4-12,12v125.5h247.7v-125.5c.1-6.6-5.3-12-11.9-12Z" fill="#0d6092"/><path d="M232.1,462.2h-54.9v-12.4C211.9,428.9,236,383,236,329.7c0-73-45.2-132.2-101-132.2s-101,59.1-101,132.1c0,53.3,24.1,99.2,58.8,120.1v12.4h-84.5c-6.6,0-12,5.4-12,12v125.5h247.7v-125.4c.1-6.6-5.3-12-11.9-12Z" fill="#0d6092"/><ellipse rx="101" ry="132.2" transform="translate(244.1 329.6)" fill="#0d6092"/></g></g><g id="e2WjRxlfmiB8_tr" transform="translate(354.000001,109.849994) rotate(0)"><g id="e2WjRxlfmiB8" transform="translate(-354.099991,-109.849998)"><path d="M241.4,197.5c0,0-49.8-117.7,25.1-165c0,0,30.9,79.7,130.6,105c0,0-144.4,54.6-155.7,60Z" fill="#0d6092"/><path d="M466.8,187.2c0,0,49.8-117.7-25.1-165c0,0-30.9,79.7-130.6,105c0,0,144.4,54.6,155.7,60Z" fill="#0d6092"/></g></g><g transform="translate(0 0.750003)"><path d="M400.7,494.3h-88.9c-6.6,0-12-5.4-12-12v-121.5c0-6.6,5.4-12,12-12h88.9c6.6,0,12,5.4,12,12v121.4c0,6.7-5.4,12.1-12,12.1Z" fill="#fff4cb"/><path d="M546.9,599.6h-365.5v-133.4c0-6.6,5.4-12,12-12h341.6c6.6,0,12,5.4,12,12v133.4h-.1Z" fill="#00dee1"/><ellipse rx="135.3" ry="177.1" transform="translate(354 271.8)" fill="#fff4cb"/><g><g><g><path d="M354,135.7c0,0,12.8,131.8,121.3,131.8c4.4,0,9.2-.2,14,0-3.7-93.4-63-166.7-135.3-166.7s-131.4,74.3-135.1,167.7C339.3,262.3,354,135.7,354,135.7Z" fill="#05d589"/></g></g></g><path d="M489.3,267.4c0-97.8-60.6-177.1-135.3-177.1s-135.3,79.3-135.3,177.1m14,0c0-87.7,54.3-158.8,121.3-158.8c66.7,0,120.8,70.4,121.3,157.5c0,.4,0,.9,0,1.3" fill="#00dee1"/></g><g><path d="M400.7,494.3h-88.9c-6.6,0-12-5.4-12-12v-121.5c0-6.6,5.4-12,12-12h88.9c6.6,0,12,5.4,12,12v121.4c0,6.7-5.4,12.1-12,12.1Z" fill="#fff4cb"/><path d="M546.9,599.6h-365.5v-133.4c0-6.6,5.4-12,12-12h341.6c6.6,0,12,5.4,12,12v133.4h-.1Z" fill="#00dee1"/><ellipse rx="135.3" ry="177.1" transform="translate(354 271.8)" fill="#fff4cb"/><g><g><g><path d="M354,135.7c0,0,12.8,131.8,121.3,131.8c4.4,0,9.2-.2,14,0-3.7-93.4-63-166.7-135.3-166.7s-131.4,74.3-135.1,167.7C339.3,262.3,354,135.7,354,135.7Z" fill="#05d589"/></g></g></g><path d="M489.3,267.4c0-97.8-60.6-177.1-135.3-177.1s-135.3,79.3-135.3,177.1m14,0c0-87.7,54.3-158.8,121.3-158.8c66.7,0,120.8,70.4,121.3,157.5c0,.4,0,.9,0,1.3" fill="#00dee1"/></g><g id="e2WjRxlfmiB29_to" transform="translate(354,372.700012)"><g id="e2WjRxlfmiB29_ts" transform="scale(1,1)"><g transform="translate(-354,-372.700012)"><path d="M306.2,396.6c0-26.4,21.4-47.8,47.8-47.8s47.8,21.4,47.8,47.8" fill="#05d589"/></g></g></g><g><path d="M234.8,558.3h-139.9c-6.6,0-12-5.4-12-12v-273.5c0-6.6,5.4-12,12-12h139.9c6.6,0,12,5.4,12,12v273.5c0,6.6-5.4,12-12,12Z" fill="#05d589"/><path d="M167.1,345.7h-58.4c-4.6,0-8.3-3.7-8.3-8.3v-49.8c0-4.6,3.7-8.3,8.3-8.3h58.4c4.6,0,8.3,3.7,8.3,8.3v49.8c0,4.6-3.7,8.3-8.3,8.3Z" fill="#ffc4e1"/><path d="M245.7,599.6h-154.4c-6.6,0-12-5.4-12-12v-94.8c0-6.6,5.4-12,12-12h154.3c6.6,0,12,5.4,12,12v94.8c.1,6.6-5.3,12-11.9,12Z" fill="#fff4cb"/></g><g id="e2WjRxlfmiB35_to" transform="translate(336.279519,268.000015)"><g id="e2WjRxlfmiB35_ts" transform="scale(1,1)"><g transform="translate(-357.800003,-268.000015)"><circle r="11.3" transform="translate(329.8 268)" fill="#05d589"/><circle r="11.3" transform="translate(385.8 268)" fill="#05d589"/></g></g></g></svg>
