<svg id="eGPmDoS5AaI1" xmlns="http://www.w3.org/2000/svg" xmlns:xlink="http://www.w3.org/1999/xlink" viewBox="0 0 600 600" shape-rendering="geometricPrecision" text-rendering="geometricPrecision">
<style><![CDATA[
#eGPmDoS5AaI4_to {animation: eGPmDoS5AaI4_to__to 5000ms linear infinite normal forwards}@keyframes eGPmDoS5AaI4_to__to { 0% {transform: translate(298.520019px,499.600006px)} 20% {transform: translate(298.520019px,526.937988px)} 40% {transform: translate(298.520019px,548.559994px)} 60% {transform: translate(298.520019px,548.559994px)} 74% {transform: translate(299.834316px,598.104994px)} 86% {transform: translate(300.594907px,660.026561px)} 100% {transform: translate(300.594907px,660.026561px)}} #eGPmDoS5AaI4 {animation: eGPmDoS5AaI4_c_o 5000ms linear infinite normal forwards}@keyframes eGPmDoS5AaI4_c_o { 0% {opacity: 1} 86% {opacity: 1} 100% {opacity: 0}} #eGPmDoS5AaI6_to {animation: eGPmDoS5AaI6_to__to 5000ms linear infinite normal forwards}@keyframes eGPmDoS5AaI6_to__to { 0% {transform: translate(76.048027px,165.588819px)} 20% {transform: translate(76.048027px,179.321586px)} 40% {transform: translate(76.048027px,203.490901px)} 80% {transform: translate(79.434728px,245.696379px)} 100% {transform: translate(79.434728px,245.696379px)}} #eGPmDoS5AaI6_tr {animation: eGPmDoS5AaI6_tr__tr 5000ms linear infinite normal forwards}@keyframes eGPmDoS5AaI6_tr__tr { 0% {transform: rotate(0deg)} 20% {transform: rotate(-11.48486deg)} 40% {transform: rotate(14.184277deg)} 60% {transform: rotate(-20.001841deg)} 80% {transform: rotate(13.103072deg)} 100% {transform: rotate(2.922319deg)}} #eGPmDoS5AaI12_to {animation: eGPmDoS5AaI12_to__to 5000ms linear infinite normal forwards}@keyframes eGPmDoS5AaI12_to__to { 0% {transform: translate(55.027735px,523.799057px)} 20% {transform: translate(55.027735px,537.531824px)} 40% {transform: translate(55.027735px,537.531824px)} 80% {transform: translate(58.414436px,579.737302px)} 100% {transform: translate(58.414436px,579.737302px)}} #eGPmDoS5AaI12_tr {animation: eGPmDoS5AaI12_tr__tr 5000ms linear infinite normal forwards}@keyframes eGPmDoS5AaI12_tr__tr { 0% {transform: rotate(0deg)} 20% {transform: rotate(-11.48486deg)} 40% {transform: rotate(14.184277deg)} 60% {transform: rotate(-20.001841deg)} 80% {transform: rotate(13.103072deg)} 100% {transform: rotate(2.922319deg)}} #eGPmDoS5AaI16_to {animation: eGPmDoS5AaI16_to__to 5000ms linear infinite normal forwards}@keyframes eGPmDoS5AaI16_to__to { 0% {transform: translate(63.345306px,515.671829px)} 20% {transform: translate(66.69682px,529.404596px)} 80% {transform: translate(80.138061px,557.877307px)} 100% {transform: translate(96.44435px,486.109999px)}} #eGPmDoS5AaI16_tr {animation: eGPmDoS5AaI16_tr__tr 5000ms linear infinite normal forwards}@keyframes eGPmDoS5AaI16_tr__tr { 0% {transform: rotate(0deg)} 20% {transform: rotate(-11.48486deg)} 40% {transform: rotate(14.184277deg)} 60% {transform: rotate(-20.001841deg)} 80% {transform: rotate(13.103072deg)} 100% {transform: rotate(-4.71068deg)}} #eGPmDoS5AaI19_to {animation: eGPmDoS5AaI19_to__to 5000ms linear infinite normal forwards}@keyframes eGPmDoS5AaI19_to__to { 0% {transform: translate(516.847168px,421.376221px)} 20% {transform: translate(516.847168px,435.108988px)} 40% {transform: translate(516.847168px,435.108988px)} 60% {transform: translate(516.847168px,479.469997px)} 80% {transform: translate(520.233869px,521.675475px)} 100% {transform: translate(520.233869px,521.675475px)}} #eGPmDoS5AaI19_tr {animation: eGPmDoS5AaI19_tr__tr 5000ms linear infinite normal forwards}@keyframes eGPmDoS5AaI19_tr__tr { 0% {transform: rotate(0deg)} 20% {transform: rotate(-11.48486deg)} 40% {transform: rotate(14.184277deg)} 60% {transform: rotate(-20.001841deg)} 80% {transform: rotate(13.103072deg)} 100% {transform: rotate(2.922319deg)}} #eGPmDoS5AaI28_to {animation: eGPmDoS5AaI28_to__to 5000ms linear infinite normal forwards}@keyframes eGPmDoS5AaI28_to__to { 0% {transform: translate(298.087341px,187.839256px)} 20% {transform: translate(311.782249px,188.325246px)} 34% {transform: translate(284.007811px,188.325246px)} 48% {transform: translate(296.27003px,180.568077px)} 68% {transform: translate(298.53003px,193.464933px)} 94% {transform: translate(298.087341px,187.839256px)} 100% {transform: translate(298.087341px,187.839256px)}} #eGPmDoS5AaI37_to {animation: eGPmDoS5AaI37_to__to 5000ms linear infinite normal forwards}@keyframes eGPmDoS5AaI37_to__to { 0% {transform: translate(301.644989px,512.921204px)} 20% {transform: translate(301.644989px,496.654684px)} 40% {transform: translate(301.644989px,513.379748px)} 60% {transform: translate(301.644989px,498.466518px)} 74% {transform: translate(301.644989px,526.761353px)} 86% {transform: translate(301.650032px,488.18451px)} 100% {transform: translate(301.650032px,505.89994px)}} #eGPmDoS5AaI45_to {animation: eGPmDoS5AaI45_to__to 5000ms linear infinite normal forwards}@keyframes eGPmDoS5AaI45_to__to { 0% {transform: translate(301.650032px,270.207772px)} 20% {transform: translate(301.650032px,253.941252px)} 40% {transform: translate(301.650032px,309.019373px)} 60% {transform: translate(301.650032px,246.104538px)} 74% {transform: translate(301.650032px,284.047921px)} 86% {transform: translate(301.650032px,246.104538px)} 100% {transform: translate(301.650032px,263.819968px)}}
]]></style>
<g transform="matrix(1 0 0 1.126868 0.409906-35.790099)"><rect width="599.63" height="564.21" rx="0" ry="0" transform="translate(.37 0)" fill="#00dee1"/></g><g id="eGPmDoS5AaI4_to" transform="translate(298.520019,499.600006)"><g id="eGPmDoS5AaI4" transform="translate(-298.520019,-499.600006)"><path d="M-8.53,600c0-110.9,137.47-200.8,307.05-200.8s307.05,89.9,307.05,200.8" fill="#006294"/></g></g><g id="eGPmDoS5AaI6_to" transform="translate(76.048027,165.588819)"><g id="eGPmDoS5AaI6_tr" transform="rotate(0)"><g transform="translate(-94.012794,-136.656242)"><g><path d="M108.88,85.52c-.88-.32-1.82-.42-2.77-.19-1.28.31-2.33,1.14-3.28,1.98-5.69,5.03-11.46,12.25-11.67,19.75-.45,16.06,21.37,25.98,14.31,43.16-2.35,5.71-7.44,10.08-10.99,15.25-7.95,11.58-6.74,27.01,1.11,38.36c1.24,1.79,3.07,3.68,5.39,3.48c2.82-.24,4.11-3.27,4.7-5.79c1.31-5.59,2.27-11.28,4.31-16.68c4.16-11.05,12.77-20.95,13.44-32.62.61-10.59-5.48-20.41-8.64-30.62-2.44-7.86-3.15-16.15-2.1-24.25.34-2.65.87-5.39-.01-7.93-.58-1.7-2.04-3.25-3.8-3.9Z" fill="#f9afd4"/><path d="M131.61,66.3c-.87-.49-1.84-.73-2.86-.6-1.39.18-2.61.99-3.73,1.83-6.7,4.99-13.81,12.47-15.16,21.05-2.89,18.35,18.41,32.71,8.45,51.44-3.31,6.23-9.29,10.54-13.78,15.98-10.05,12.19-11.1,30.05-4.61,44.14c1.02,2.22,2.66,4.64,5.1,4.73c2.98.11,4.78-3.19,5.78-6c2.21-6.23,4.07-12.62,7.01-18.54c6.01-12.1,16.5-22.27,18.95-35.56c2.23-12.06-2.65-24.15-4.41-36.29-1.36-9.34-.86-18.95,1.46-28.1.76-2.99,1.72-6.06,1.18-9.1-.34-2.02-1.64-4-3.38-4.98Z" fill="#fff1c4"/><path d="M58.85,93.85c-.93.09-1.82.41-2.58,1.02-1.02.83-1.61,2.03-2.1,3.21-2.95,7-5.03,15.99-1.97,22.85c6.55,14.67,30.52,14.21,31.59,32.74.36,6.16-2.34,12.3-3.31,18.5-2.15,13.88,5.62,27.27,17.62,34.11c1.89,1.08,4.36,1.99,6.37.82c2.44-1.43,2.29-4.72,1.73-7.25-1.24-5.61-2.83-11.15-3.34-16.9-1.03-11.76,2.44-24.4-2-35.21-4.04-9.81-13.78-16.04-21.05-23.88-5.6-6.03-9.83-13.2-12.39-20.97-.84-2.54-1.55-5.24-3.45-7.15-1.26-1.3-3.26-2.06-5.12-1.89Z" fill="#f9afd4"/><path d="M71.03,66.71c-.99-.07-1.97.14-2.84.7-1.17.76-1.92,2.02-2.57,3.26-3.88,7.4-7.05,17.21-4.56,25.53c5.34,17.79,30.76,21.55,29.89,42.74-.29,7.05-3.81,13.51-5.5,20.36-3.78,15.33,3,31.89,14.95,41.79c1.88,1.56,4.4,3.04,6.65,2.06c2.74-1.19,2.93-4.94,2.61-7.91-.71-6.57-1.79-13.13-1.71-19.74.18-13.51,5.23-27.21,1.69-40.24-3.21-11.84-12.84-20.64-19.69-30.82-5.27-7.83-8.98-16.71-10.85-25.97-.61-3.02-1.07-6.21-2.87-8.72-1.19-1.68-3.22-2.91-5.2-3.04Z" fill="#fff1c4"/></g></g></g></g><g id="eGPmDoS5AaI12_to" transform="translate(55.027735,523.799057)"><g id="eGPmDoS5AaI12_tr" transform="rotate(0)"><g transform="translate(-55.027735,-523.799057)"><g><path d="M70.55,479.41c-.62-.23-1.3-.3-1.97-.14-.91.23-1.66.83-2.34,1.45-4.05,3.67-8.16,8.93-8.31,14.4-.32,11.71,15.22,18.94,10.19,31.46-1.67,4.16-5.3,7.35-7.83,11.12-5.66,8.44-4.8,19.69.79,27.96.88,1.3,2.19,2.68,3.84,2.54c2.01-.17,2.93-2.38,3.35-4.22.93-4.08,1.62-8.22,3.07-12.16c2.96-8.05,9.1-15.27,9.57-23.77.43-7.72-3.9-14.88-6.15-22.32-1.73-5.73-2.24-11.77-1.49-17.68.25-1.93.62-3.93-.01-5.78-.41-1.26-1.46-2.39-2.71-2.86Z" fill="#f9afd4"/><path d="M34.92,485.48c-.66.06-1.3.3-1.83.75-.73.61-1.14,1.48-1.5,2.34-2.1,5.1-3.58,11.65-1.4,16.65c4.66,10.7,21.73,10.36,22.5,23.86.25,4.49-1.67,8.97-2.35,13.48-1.53,10.11,4,19.87,12.55,24.86c1.35.79,3.11,1.45,4.53.59c1.74-1.04,1.63-3.44,1.23-5.29-.88-4.09-2.02-8.13-2.38-12.32-.74-8.57,1.74-17.79-1.43-25.67-2.88-7.15-9.81-11.7-14.99-17.41-3.99-4.4-7-9.62-8.83-15.28-.6-1.85-1.1-3.82-2.45-5.21-.9-.92-2.32-1.48-3.65-1.35Z" fill="#f9afd4"/></g></g></g></g><g id="eGPmDoS5AaI16_to" transform="translate(63.345306,515.671829)"><g id="eGPmDoS5AaI16_tr" transform="rotate(0)"><g transform="translate(-63.345306,-515.671829)"><path d="M86.74,465.4c-.62-.36-1.31-.53-2.04-.43-.99.13-1.86.72-2.65,1.33-4.77,3.64-9.84,9.09-10.8,15.34-2.06,13.38,13.11,23.84,6.02,37.49-2.36,4.54-6.62,7.68-9.81,11.65-7.16,8.89-7.91,21.9-3.29,32.17.73,1.62,1.89,3.38,3.64,3.45c2.13.08,3.41-2.32,4.12-4.37c1.57-4.54,2.9-9.2,4.99-13.51c4.28-8.82,11.75-16.24,13.5-25.92c1.59-8.79-1.88-17.61-3.14-26.45-.97-6.81-.61-13.81,1.04-20.48.54-2.18,1.22-4.42.84-6.63-.26-1.48-1.18-2.93-2.42-3.64Z" fill="#fff1c4"/><path d="M43.59,465.7c-.71-.05-1.41.1-2.02.51-.84.55-1.37,1.47-1.83,2.37-2.77,5.39-5.02,12.54-3.25,18.61c3.81,12.97,21.91,15.71,21.29,31.15-.21,5.14-2.72,9.85-3.92,14.84-2.69,11.18,2.14,23.25,10.65,30.46c1.34,1.14,3.14,2.21,4.74,1.5c1.95-.86,2.09-3.6,1.86-5.76-.5-4.79-1.28-9.57-1.21-14.39.13-9.84,3.72-19.83,1.2-29.33-2.29-8.63-9.15-15.04-14.03-22.46-3.75-5.71-6.4-12.18-7.73-18.93-.43-2.2-.77-4.52-2.05-6.35-.84-1.23-2.28-2.13-3.7-2.22Z" fill="#fff1c4"/></g></g></g><g id="eGPmDoS5AaI19_to" transform="translate(516.847168,421.376221)"><g id="eGPmDoS5AaI19_tr" transform="rotate(0)"><g transform="translate(-516.847168,-421.376221)"><g><path d="M501.98,370.24c.88-.32,1.82-.42,2.77-.19c1.28.31,2.33,1.14,3.28,1.98c5.69,5.03,11.46,12.25,11.67,19.75.45,16.06-21.37,25.98-14.31,43.16c2.35,5.71,7.44,10.08,10.99,15.25c7.95,11.58,6.74,27.01-1.11,38.36-1.24,1.79-3.07,3.68-5.39,3.48-2.82-.24-4.11-3.27-4.7-5.79-1.31-5.59-2.27-11.28-4.31-16.68-4.16-11.05-12.77-20.95-13.44-32.62-.61-10.59,5.48-20.41,8.64-30.62c2.44-7.86,3.15-16.15,2.1-24.25-.34-2.65-.87-5.39.01-7.93.58-1.7,2.05-3.25,3.8-3.9Z" fill="#f9afd4"/><path d="M479.25,351.02c.87-.49,1.84-.73,2.86-.6c1.39.18,2.61.99,3.73,1.83c6.7,4.99,13.81,12.47,15.16,21.05c2.89,18.35-18.41,32.71-8.45,51.44c3.31,6.23,9.29,10.54,13.78,15.98c10.05,12.19,11.1,30.05,4.61,44.14-1.02,2.22-2.66,4.64-5.1,4.73-2.98.11-4.78-3.19-5.78-6-2.21-6.23-4.07-12.62-7.01-18.54-6.01-12.1-16.5-22.27-18.95-35.56-2.23-12.06,2.65-24.15,4.41-36.29c1.36-9.34.86-18.95-1.46-28.1-.76-2.99-1.72-6.06-1.18-9.1.35-2.02,1.65-4,3.38-4.98Z" fill="#ff7baa"/><path d="M552.01,378.57c.93.09,1.82.41,2.58,1.02c1.02.83,1.61,2.03,2.1,3.21c2.95,7,5.03,15.99,1.97,22.85-6.55,14.67-30.52,14.21-31.59,32.74-.36,6.16,2.34,12.3,3.31,18.5c2.15,13.88-5.62,27.27-17.62,34.11-1.89,1.08-4.36,1.99-6.37.82-2.44-1.43-2.29-4.72-1.73-7.25c1.24-5.61,2.83-11.15,3.34-16.9c1.03-11.76-2.45-24.4,2-35.21c4.04-9.81,13.78-16.04,21.05-23.88c5.6-6.03,9.83-13.2,12.39-20.97.84-2.54,1.55-5.24,3.45-7.15c1.27-1.3,3.26-2.06,5.12-1.89Z" fill="#f9afd4"/><path d="M539.84,351.43c.99-.07,1.97.14,2.84.7c1.17.76,1.92,2.02,2.57,3.26c3.88,7.4,7.05,17.21,4.56,25.53-5.34,17.79-30.76,21.55-29.89,42.74.29,7.05,3.81,13.51,5.5,20.36c3.78,15.33-3,31.89-14.95,41.79-1.88,1.56-4.4,3.04-6.65,2.06-2.74-1.19-2.93-4.94-2.61-7.91.71-6.57,1.79-13.13,1.71-19.74-.18-13.51-5.23-27.21-1.69-40.24c3.21-11.84,12.84-20.64,19.69-30.82c5.27-7.83,8.98-16.71,10.85-25.97.61-3.02,1.07-6.21,2.87-8.72c1.18-1.68,3.21-2.91,5.2-3.04Z" fill="#ff7baa"/></g></g></g></g><g><g><ellipse rx="65.58" ry="53.71" transform="matrix(.022-.9998 0.9998 0.022 298.391555 203.490902)" fill="#ff71aa"/></g><g id="eGPmDoS5AaI28_to" transform="translate(298.087341,187.839256)"><g transform="translate(-298.087341,-187.839256)"><g><g><ellipse rx="7.29" ry="7.28" transform="translate(286.9 168.14)" fill="#fdf2c9"/></g><g><ellipse rx="7.29" ry="7.28" transform="translate(309.85 168.04)" fill="#fdf2c9"/></g></g><g><g><path d="M271.66,210.57c1.55-30,52.63-28.9,52.86,1.15.03,4.16,6.51,4.32,6.48.14-.14-17.39-15.51-29.7-32.27-30.06-16.76-.37-32.66,11.26-33.55,28.63-.22,4.16,6.26,4.3,6.48.14v0Z" fill="#fdf2c9"/></g></g></g></g></g><g id="eGPmDoS5AaI37_to" transform="translate(301.644989,512.921204)"><g transform="translate(-301.644989,-512.921204)"><g><g><g><path d="M215.15,471.28c-.54-.07-1.08.18-1.58.43-13.08,6.33-26.23,12.46-38.25,21.08-7.24,5.3-16.2,10.73-18.02,21.05-1,5.7.19,11.59,1.68,17.16c2.03,7.61,6.73,26.93,17.13,23.07c1.97-.73,3.65-2.19,5.28-3.63c19.98-17.57,40.3-35.06,61.73-50.41-1.61,1.16-24.19-25.35-26.32-27.64-.46-.49-.95-1-1.58-1.11-.03.01-.05.01-.07,0Z" fill="#ff71aa"/></g></g><g><g><path d="M388.14,471.28c.54-.07,1.08.18,1.58.43c13.08,6.33,26.23,12.46,38.25,21.08c7.24,5.3,16.2,10.73,18.02,21.05c1,5.7-.19,11.59-1.68,17.16-2.03,7.61-6.73,26.93-17.13,23.07-1.97-.73-3.65-2.19-5.28-3.63-19.98-17.57-40.3-35.06-61.73-50.41c1.61,1.16,24.19-25.35,26.32-27.64.46-.49.95-1,1.58-1.11.03.01.05.01.07,0Z" fill="#ff71aa"/></g></g></g></g></g><g id="eGPmDoS5AaI45_to" transform="translate(301.650032,270.207772)"><g transform="translate(-301.650032,-276.379974)"><g><g><path d="M74.21,266.15c-4.28,4.01-1.3,11.18,4.56,11.02c2.4-.07,4.81-.1,7.23-.1c48.79,0,94.31,13.96,132.78,38.09l18.33-21.63l19.59-23.12c-27.84-20.62-62.31-32.81-99.65-32.81-4.69,0-9.34.19-13.92.57-11.62.96-22.91,3.1-33.73,6.3-13.19,4.83-25.13,12.27-35.19,21.68Z" fill="#ff71aa"/></g></g><g><g><path d="M529.09,266.15c4.28,4.01,1.3,11.18-4.56,11.02-2.4-.07-4.81-.1-7.23-.1-48.79,0-94.31,13.96-132.78,38.09l-18.33-21.63-19.59-23.12c27.84-20.62,62.31-32.81,99.65-32.81c4.69,0,9.34.19,13.92.57c11.62.96,22.91,3.1,33.73,6.3c13.18,4.83,25.12,12.27,35.19,21.68Z" fill="#ff71aa"/></g></g></g></g><g><g><g><g><ellipse rx="149.92" ry="149.68" transform="translate(298.38 374.72)" fill="#0ad387"/></g><ellipse rx="149.77" ry="149.53" transform="translate(298.53 374.56)" fill="none" stroke="#0ad387" stroke-width="1.6089" stroke-miterlimit="10"/></g><g><polygon points="327.5,272.6 271.04,271.03 241.81,305.82 269.04,342.19 325.5,343.77 354.73,308.98" fill="none" stroke="#fcf1c8" stroke-width="1.6788" stroke-miterlimit="10"/><polygon points="325.5,343.77 269.04,342.19 239.81,376.99 267.05,413.36 323.51,414.94 352.73,380.15" fill="none" stroke="#fcf1c8" stroke-width="1.6788" stroke-miterlimit="10"/><polygon points="323.51,414.94 267.05,413.36 237.82,448.16 265.05,484.53 321.51,486.11 350.74,451.32" fill="none" stroke="#fcf1c8" stroke-width="1.6788" stroke-miterlimit="10"/><line x1="327.5" y1="272.6" x2="361.89" y2="240.14" fill="none" stroke="#fcf1c8" stroke-width="1.6788" stroke-miterlimit="10"/><line x1="271.04" y1="271.03" x2="239.92" y2="238.17" fill="none" stroke="#fcf1c8" stroke-width="1.6788" stroke-miterlimit="10"/><line x1="241.81" y1="305.82" x2="167.23" y2="303.73" fill="none" stroke="#fcf1c8" stroke-width="1.6788" stroke-miterlimit="10"/><line x1="239.81" y1="376.99" x2="148.28" y2="374.31" fill="none" stroke="#fcf1c8" stroke-width="1.6788" stroke-miterlimit="10"/><line x1="237.82" y1="448.16" x2="199.21" y2="484.61" fill="none" stroke="#fcf1c8" stroke-width="1.6788" stroke-miterlimit="10"/><line x1="265.05" y1="484.53" x2="237.14" y2="510.88" fill="none" stroke="#fcf1c8" stroke-width="1.6788" stroke-miterlimit="10"/><line x1="352.73" y1="380.15" x2="447.55" y2="382.8" fill="none" stroke="#fcf1c8" stroke-width="1.6788" stroke-miterlimit="10"/><line x1="354.73" y1="308.98" x2="434.39" y2="311.04" fill="none" stroke="#fcf1c8" stroke-width="1.6788" stroke-miterlimit="10"/><line x1="350.74" y1="451.32" x2="390.68" y2="493.5" fill="none" stroke="#fcf1c8" stroke-width="1.6788" stroke-miterlimit="10"/><line x1="321.51" y1="486.11" x2="350.38" y2="516.6" fill="none" stroke="#fcf1c8" stroke-width="1.6788" stroke-miterlimit="10"/><polyline points="252.42,251.37 195.65,304.96 164.99,374.9 209.62,474.77" fill="none" stroke="#fcf1c8" stroke-width="1.6788" stroke-miterlimit="10"/><polyline points="347.25,254.02 400.51,310.26 427.62,382.24 377.45,479.47" fill="none" stroke="#fcf1c8" stroke-width="1.6788" stroke-miterlimit="10"/><ellipse rx="142.22" ry="142" transform="translate(296.64 378.58)" fill="none"/></g></g></g></svg>
