<svg id="eOcA7NdHDUK1" xmlns="http://www.w3.org/2000/svg" xmlns:xlink="http://www.w3.org/1999/xlink" viewBox="0 0 222 290" shape-rendering="geometricPrecision" text-rendering="geometricPrecision">
<style><![CDATA[
#eOcA7NdHDUK3_to {animation: eOcA7NdHDUK3_to__to 3000ms linear infinite normal forwards}@keyframes eOcA7NdHDUK3_to__to { 0% {transform: translate(50.787709px,124.29744px)} 6.666667% {transform: translate(50.787709px,119.752653px)} 13.333333% {transform: translate(50.787709px,115.207866px)} 20% {transform: translate(50.787709px,109.14815px)} 26.666667% {transform: translate(50.787709px,104.603363px)} 33.333333% {transform: translate(50.787709px,98.543647px)} 40% {transform: translate(50.787709px,92.483931px)} 46.666667% {transform: translate(50.787709px,98.543647px)} 53.333333% {transform: translate(50.787709px,103.088434px)} 60% {transform: translate(50.787709px,107.633221px)} 66.666667% {transform: translate(50.787709px,112.178008px)} 73.333333% {transform: translate(50.787709px,118.237724px)} 80% {transform: translate(50.787709px,124.29744px)} 86.666667% {transform: translate(50.787709px,131.872085px)} 100% {transform: translate(50.787709px,131.872085px)}} #eOcA7NdHDUK4_to {animation: eOcA7NdHDUK4_to__to 3000ms linear infinite normal forwards}@keyframes eOcA7NdHDUK4_to__to { 0% {transform: translate(170.964146px,132.767944px)} 6.666667% {transform: translate(170.964146px,128.223157px)} 13.333333% {transform: translate(170.964146px,123.67837px)} 20% {transform: translate(170.964146px,117.618654px)} 26.666667% {transform: translate(170.964146px,113.073867px)} 33.333333% {transform: translate(170.964146px,107.014151px)} 40% {transform: translate(170.964146px,100.954435px)} 46.666667% {transform: translate(170.964146px,107.014151px)} 53.333333% {transform: translate(170.964146px,111.558938px)} 60% {transform: translate(170.964146px,116.103725px)} 66.666667% {transform: translate(170.964146px,120.648512px)} 73.333333% {transform: translate(170.964146px,126.708228px)} 80% {transform: translate(170.964146px,132.767944px)} 86.666667% {transform: translate(170.964146px,140.342589px)} 100% {transform: translate(170.964146px,140.342589px)}} #eOcA7NdHDUK5_to {animation: eOcA7NdHDUK5_to__to 3000ms linear infinite normal forwards}@keyframes eOcA7NdHDUK5_to__to { 0% {transform: translate(125.5px,8.5px)} 6.666667% {transform: translate(125.5px,3.955213px)} 13.333333% {transform: translate(125.5px,-0.589574px)} 20% {transform: translate(125.5px,-6.64929px)} 26.666667% {transform: translate(125.5px,-11.194077px)} 33.333333% {transform: translate(125.5px,-17.253793px)} 40% {transform: translate(125.5px,-23.313509px)} 46.666667% {transform: translate(125.5px,-17.253793px)} 53.333333% {transform: translate(125.5px,-12.709006px)} 60% {transform: translate(125.5px,-8.164219px)} 66.666667% {transform: translate(125.5px,-3.619432px)} 73.333333% {transform: translate(125.5px,2.440284px)} 80% {transform: translate(125.5px,8.5px)} 86.666667% {transform: translate(125.5px,16.074645px)} 100% {transform: translate(125.5px,16.074645px)}}
]]></style>
<g transform="matrix(.660097 0 0 0.660097 36.891986 49.213983)"><g id="eOcA7NdHDUK3_to" transform="translate(50.787709,124.29744)"><path d="M9.268,97.2267C49.9796,61.7876,87.625,131.165,99.5385,156.503c1.3485,2.872-1.7234,5.824-4.5378,4.354l-13.775-7.206c-1.3491-.708-2.9324-.824-4.374-.336l-5.3868,1.835c-27.6822,6.49-29.0567-21.027-29.0567-21.027s-3.0054,2.285-6.8866,3.291c-3.5381.907-7.2509.913-10.7676-.045-13.4687-3.674-19.42408-10.257-21.77999-16.675-3.062388-8.321-.40576-17.65,6.2691-23.4655l.02489-.0018Z" transform="translate(-50.787709,-124.29744)" fill="#fff"/></g><g id="eOcA7NdHDUK4_to" transform="translate(170.964146,132.767944)"><path d="M204.594,96.2541c-46.503-27.4008-70.833,47.6879-77.915,74.7769-.801,3.07,2.759,5.411,5.257,3.452l12.226-9.603c1.197-.942,2.733-1.345,4.239-1.13l5.632.82c28.402,1.321,24.723-25.983,24.723-25.983s3.373,1.696,7.373,1.976c3.644.245,7.295-.427,10.578-2.012c12.57-6.075,17.222-13.635,18.365-20.375c1.49-8.741-2.827-17.427-10.453-21.9248l-.025.0029Z" transform="translate(-170.964146,-132.767944)" fill="#fff"/></g><g id="eOcA7NdHDUK5_to" transform="translate(125.5,8.5)"><path d="M125.5,17c15.74,0,28.5-3.8094,28.5-8.49453s-12.76-8.50547-28.5-8.50547-28.5,3.8094-28.5,8.49453s12.76,8.49457,28.5,8.49457v.0109Zm0-10.8152c0,0,17.295,0,17.295,2.30973c0,2.55057-17.295,2.55057-17.295,2.55057s-17.284-.1642-17.284-2.55057s17.284-2.30973,17.284-2.30973Z" transform="translate(-125.5,-8.5)" fill="#fff4cb"/></g><path d="M83.9348,270.487l2.3335,3.211c1.3232,1.828.9142,4.377-.9141,5.699l-12.9669,9.404c-1.8283,1.322-4.3784.913-5.7016-.914L56.3531,273.65c-.5052-.698-.7818-1.539-.7818-2.405l.0481-58.944h9.8154v37.468l26.2825,14.658c1.0946.613,1.0224,2.212-.1323,2.717l-7.6622,3.331.012.012Z" fill="#01d589"/><path d="M128.092,270.487l2.334,3.211c1.323,1.828.914,4.377-.915,5.699l-12.966,9.404c-1.829,1.322-4.379.913-5.702-.914L100.51,273.65c-.505-.698-.7815-1.539-.7815-2.405l.0481-58.944h9.8154v37.468l26.283,14.658c1.094.613,1.022,2.212-.133,2.717l-7.662,3.331.012.012Z" fill="#01d589"/><path d="M142.718,148.884c-.878-1.154-1.72-2.345-2.526-3.547-.529-.806-1.058-1.612-1.563-2.429-7.193-11.7-11.355-25.48-11.355-40.234c0-6.5175.806-12.8424,2.333-18.8907c14.543-.3367,26.211-11.1346,26.211-24.3856c0-2.7657-.506-5.4231-1.444-7.9121-.673-1.7797-1.576-3.4751-2.646-5.0383-1.768-2.5372-4.03-4.7737-6.676-6.5654C140.553,36.8157,134.948,35,128.886,35c-9.431,0-19.583,4.7737-24.022,13.4313-1.419,2.7777-2.165,5.9882-2.826,9.0184-.253,1.1303-.469,2.2606-.662,3.4029-.565,3.2587-.95,6.5414-1.215,9.8361-.8779,11.1226-.2164,22.2212.361,33.3443.265,5.122.95,10.124.541,15.307-.024.216-.036.421-.06.637-.457,5.026-1.5636,10.016-3.3318,14.754-.2165.565-.433,1.118-.6736,1.671-5.1843,12.35-14.7471,22.414-26.7396,28.258-5.8339,2.838-12.2572,4.678-19.0293,5.279-.0481-.012-.0962-.048-.1323-.084-1.8765-1.251-3.7169-2.838-5.5091-4.534-.5774-.553-1.1548-1.106-1.7081-1.683-3.5003-3.499-6.736-7.179-9.5507-9.283-1.7442-1.311-3.332-2.008-4.7152-1.695l-.3368.084c-3.7049,1.022-6.5316,5.134-8.4201,11.267-1.6479,5.206-2.5741,11.868-2.8027,19.335-.0601,2.14-.0721,4.341-.024,6.589c1.1066,20.117,12.6782,37.445,29.3619,46.619.012.012.024.024.0481.024c6.4233,3.115,13.3397,5.375,20.6171,6.602c4.2461.721,8.6245,1.106,13.0751,1.106c9.9597,0,19.4261-1.948,28.0871-5.459c12.437-5.05,23.239-13.323,31.503-23.712l.024-.024c6.748-9.86,10.681-21.789,10.681-34.631c0-10.161-2.466-19.756-6.844-28.197-.59-1.143-1.215-2.273-1.889-3.379h.024ZM130.269,82.0999c0,0-.012.0601-.036.1202h-.024l.06-.1202Z" fill="#ffc4e1"/><path d="M118.601,256.984v.048l-.313-.168.156-.109.157.229Z" fill="#01d589"/><path d="M177,63.5221c-6.808,6.4692-16.01,10.4132-26.126,10.4132-.457,0-.914,0-1.371-.0361-1.456-3.1624-2.274-6.6736-2.274-10.3771c0-3.7036.818-7.2147,2.274-10.3771.457-.0241.914-.0361,1.371-.0361c10.128,0,19.318,3.944,26.126,10.4132Z" fill="#01d589"/><path d="M103.301,181.819c5.749,9.367-2.502,30.217-21.8683,38.057-17.6941,7.167-36.5911,1.744-42.2085-12.108-.5653-1.407-4.4385-9.464.1684-17.292c10.1762-17.267,55.1874-22.858,63.9084-8.657Z" fill="#01d589"/><path d="M118.673,257.068l-.072-.036-.313-.168.156-.109.157.229.072.084Z" fill="#01d589"/><path d="M127.154,51.9426c2.119,0,3.837-1.7173,3.837-3.8358s-1.718-3.8358-3.837-3.8358c-2.12,0-3.838,1.7173-3.838,3.8358s1.718,3.8358,3.838,3.8358Z" fill="#01d589"/><path d="M141.107,51.9426c2.119,0,3.837-1.7173,3.837-3.8358s-1.718-3.8358-3.837-3.8358c-2.12,0-3.837,1.7173-3.837,3.8358s1.717,3.8358,3.837,3.8358Z" fill="#01d589"/><path d="M130.256,82.1001c0,0-.012.0599-.036.1198h-.024l.06-.1198Z" fill="#01d589"/><path d="M130.233,82.2077h-.024l.06-.1198c0,0-.012.0599-.036.1198Z" fill="#01d589"/><path d="M130.233,82.2077h-.024l.06-.1198c0,0-.012.0599-.036.1198Z" fill="#01d589"/></g></svg>
