<svg width="397" height="168" viewBox="0 0 397 168" fill="none" xmlns="http://www.w3.org/2000/svg">
<path d="M367.381 137.248C355.636 137.673 352.841 132.738 352.152 121.849C350.409 94.3792 324.689 74.4777 298.031 79.5129C289.46 81.1347 284.645 79.6828 279.411 72.1145C260.86 45.2626 232.205 35.586 202.427 46.4519C191.773 50.3364 186.477 47.5948 180.856 38.984C170.838 23.6311 157.242 11.5142 139.852 5.56765C105.986 -6.02419 75.21 0.331625 49.8688 26.0715C25.0541 51.2786 18.8368 81.4282 29.5447 114.983C31.5423 121.254 37.6279 128.174 36.1568 133.109C34.2909 139.349 24.2798 135.789 18.3413 138.77C9.80908 143.056 -1.62659 145.905 0.192898 157.937C2.11304 170.61 14.1294 167.699 22.77 167.738C80.0645 168 137.359 167.877 194.661 167.877C251.538 167.877 308.414 167.877 365.298 167.877C373.25 167.877 381.287 168.093 388.851 165.189C397.809 161.752 399.489 154.833 393.357 147.489C386.598 139.387 377.028 136.893 367.381 137.24V137.248Z" fill="#949494"/>
</svg>
