<svg width="379" height="144" viewBox="0 0 379 144" fill="none" xmlns="http://www.w3.org/2000/svg">
<g clip-path="url(#clip0_1189_59)">
<path d="M349.652 106.866H343.809C338.814 106.866 334.309 103.66 332.812 98.879C324.263 71.3501 298.672 51.3749 268.432 51.3749C265.05 51.3749 261.725 51.6205 258.472 52.1115C258.472 52.1115 258.472 52.1115 258.458 52.1115C249.85 22.0261 222.244 0 189.5 0C165.032 0 143.442 12.3057 130.488 31.0676C120.931 27.919 110.511 26.6913 99.6725 27.7601C60.1921 31.6887 30.5566 66.7282 32.9027 106.491C32.9027 106.621 32.9171 106.751 32.9315 106.881H29.3764C13.1697 106.881 0.0288086 116.312 0.0288086 127.953C0.0288086 136.822 10.032 144 22.3813 144H189.255C189.342 144 189.428 144 189.529 144C189.63 144 189.702 144 189.802 144H356.676C369.026 144 379.029 136.822 379.029 127.953C379.029 116.312 365.888 106.881 349.681 106.881L349.652 106.866Z" fill="#949494"/>
</g>
<defs>
<clipPath id="clip0_1189_59">
<rect width="379" height="144" fill="white"/>
</clipPath>
</defs>
</svg>
