<svg cache-id="5ae5d8a1ded047278cd823eedb7973e3" id="e65NKRpwDs31" xmlns="http://www.w3.org/2000/svg" xmlns:xlink="http://www.w3.org/1999/xlink" viewBox="0 0 600 600" shape-rendering="geometricPrecision" text-rendering="geometricPrecision">
<style><![CDATA[
#e65NKRpwDs34_to {animation: e65NKRpwDs34_to__to 5000ms linear infinite normal forwards}@keyframes e65NKRpwDs34_to__to { 0% {transform: translate(692.424366px,299.998905px)} 30% {transform: translate(209.744988px,299.998905px)} 100% {transform: translate(209.744988px,299.998905px)}} #e65NKRpwDs34_tr {animation: e65NKRpwDs34_tr__tr 5000ms linear infinite normal forwards}@keyframes e65NKRpwDs34_tr__tr { 0% {transform: rotate(0deg)} 60% {transform: rotate(0deg)} 70% {transform: rotate(7.281481deg)} 80% {transform: rotate(0.326695deg)} 90% {transform: rotate(-5.041584deg)} 100% {transform: rotate(5.936747deg)}} #e65NKRpwDs39_to {animation: e65NKRpwDs39_to__to 5000ms linear infinite normal forwards}@keyframes e65NKRpwDs39_to__to { 0% {transform: translate(740.594921px,299.998905px)} 30% {transform: translate(257.915543px,299.998905px)} 100% {transform: translate(257.915543px,299.998905px)}} #e65NKRpwDs39_tr {animation: e65NKRpwDs39_tr__tr 5000ms linear infinite normal forwards}@keyframes e65NKRpwDs39_tr__tr { 0% {transform: rotate(0deg)} 50% {transform: rotate(0deg)} 60% {transform: rotate(7.281481deg)} 70% {transform: rotate(0.326695deg)} 80% {transform: rotate(-5.041584deg)} 90% {transform: rotate(5.936747deg)} 100% {transform: rotate(14.791692deg)}} #e65NKRpwDs314_to {animation: e65NKRpwDs314_to__to 5000ms linear infinite normal forwards}@keyframes e65NKRpwDs314_to__to { 0% {transform: translate(788.061657px,286.135008px)} 30% {transform: translate(305.382279px,286.135008px)} 90% {transform: translate(305.382279px,289.43767px)} 100% {transform: translate(305.382279px,289.43767px)}} #e65NKRpwDs314_tr {animation: e65NKRpwDs314_tr__tr 5000ms linear infinite normal forwards}@keyframes e65NKRpwDs314_tr__tr { 0% {transform: rotate(0deg)} 40% {transform: rotate(0deg)} 50% {transform: rotate(7.281481deg)} 60% {transform: rotate(0.326695deg)} 70% {transform: rotate(-5.041584deg)} 80% {transform: rotate(5.936747deg)} 90% {transform: rotate(14.791692deg)} 100% {transform: rotate(4.252561deg)}} #e65NKRpwDs319_to {animation: e65NKRpwDs319_to__to 5000ms linear infinite normal forwards}@keyframes e65NKRpwDs319_to__to { 0% {transform: translate(856.079372px,239.345001px)} 30% {transform: translate(373.399994px,239.345001px)} 100% {transform: translate(373.399994px,239.345001px)}}
]]></style>
<g><rect width="600" height="600" rx="0" ry="0" fill="#ff7baa"/></g><g id="e65NKRpwDs34_to" transform="translate(692.424366,299.998905)"><g id="e65NKRpwDs34_tr" transform="rotate(0)"><g transform="translate(-209.745003,-299.998905)"><path d="M290.06,41.73c-19.51-.22-43.32,15.99-61.02,44.01-17.71,28.01-24.47,60.18-19.29,83.07c19.51.22,43.32-15.99,61.02-44.01c17.71-28.01,24.47-60.18,19.29-83.07Z" fill="#05d589"/><path d="M211.44,166.37c-34.88,34.96-58.97,109.55-58.97,195.95s24.09,160.99,58.97,195.95c34.88-34.96,58.97-109.55,58.97-195.95s-24.1-160.99-58.97-195.95Z" fill="#05d589"/><path d="M129.43,41.73c19.51-.22,43.32,15.99,61.02,44.01c17.71,28.01,24.47,60.18,19.29,83.07-19.51.22-43.32-15.99-61.02-44.01-17.71-28.01-24.47-60.18-19.29-83.07Z" fill="#05d589"/><ellipse rx="11.84" ry="14.4" transform="translate(211.97 501.66)" fill="#00dee1"/></g></g></g><g id="e65NKRpwDs39_to" transform="translate(740.594921,299.998905)"><g id="e65NKRpwDs39_tr" transform="rotate(0)"><g transform="translate(-257.915558,-299.998905)"><path d="M338.23,41.73c-19.51-.22-43.32,15.99-61.02,44.01-17.71,28.01-24.47,60.18-19.29,83.07c19.51.22,43.32-15.99,61.02-44.01c17.71-28.01,24.47-60.18,19.29-83.07Z" fill="#3061ac"/><path d="M259.61,166.37c-34.88,34.96-58.97,109.55-58.97,195.95s24.09,160.99,58.97,195.95c34.88-34.96,58.97-109.55,58.97-195.95s-24.09-160.99-58.97-195.95Z" fill="#3061ac"/><path d="M177.6,41.73c19.51-.22,43.32,15.99,61.02,44.01c17.71,28.01,24.47,60.18,19.29,83.07-19.51.22-43.32-15.99-61.02-44.01-17.7-28.01-24.47-60.18-19.29-83.07Z" fill="#3061ac"/><ellipse rx="11.84" ry="14.4" transform="translate(260.14 501.66)" fill="#05d589"/></g></g></g><g id="e65NKRpwDs314_to" transform="translate(788.061657,286.135008)"><g id="e65NKRpwDs314_tr" transform="rotate(0)"><g transform="translate(-305.382294,-286.135008)"><path d="M218.41,42.42c19.37-2.34,44.8,11.19,65.45,37.11s30.87,57.16,28.21,80.47c-19.37,2.34-44.8-11.19-65.45-37.11-20.64-25.92-30.86-57.16-28.21-80.47Z" fill="#ffc4e1"/><path d="M310.13,157.76c38.47,30.95,70.54,102.49,79.94,188.37s-6.43,162.66-37.3,201.2c-38.47-30.95-70.54-102.49-79.94-188.37s6.43-162.66,37.3-201.2Z" fill="#ffc4e1"/><path d="M378.09,24.94c-19.41,1.91-41.32,20.61-55.87,50.39-14.55,29.77-17.77,62.49-10.14,84.67c19.41-1.91,41.32-20.61,55.87-50.39c14.55-29.77,17.78-62.48,10.14-84.67Z" fill="#ffc4e1"/><ellipse rx="11.84" ry="14.4" transform="matrix(.9941-.1088 0.1088 0.9941 346.086435 491.143831)" fill="#fff4cb"/></g></g></g><g id="e65NKRpwDs319_to" transform="translate(856.079372,239.345001)"><g transform="translate(-373.400009,-239.345001)"><rect width="201.09" height="124.64" rx="0" ry="0" transform="translate(398.91 177.03)" fill="#05d589"/><path d="M395.07,336.38h-235.4c-7.08,0-12.87-5.79-12.87-12.87v-168.33c0-7.08,5.79-12.87,12.87-12.87h235.41c7.08,0,12.87,5.79,12.87,12.87v168.32c-.01,7.08-5.8,12.88-12.88,12.88Z" fill="#fff4cb"/></g></g></svg>
