<svg id="eP4NYMU1hLC1" xmlns="http://www.w3.org/2000/svg" xmlns:xlink="http://www.w3.org/1999/xlink" viewBox="0 0 600 600" shape-rendering="geometricPrecision" text-rendering="geometricPrecision">
<style><![CDATA[
#eP4NYMU1hLC19_tr {animation: eP4NYMU1hLC19_tr__tr 4200ms linear infinite normal forwards}@keyframes eP4NYMU1hLC19_tr__tr { 0% {transform: translate(415.530975px,463.083038px) rotate(0deg)} 11.904762% {transform: translate(415.530975px,463.083038px) rotate(2.084267deg)} 23.809524% {transform: translate(415.530975px,463.083038px) rotate(0deg)} 35.714286% {transform: translate(415.530975px,463.083038px) rotate(2.084267deg)} 47.619048% {transform: translate(415.530975px,463.083038px) rotate(0deg)} 59.52381% {transform: translate(415.530975px,463.083038px) rotate(2.084267deg)} 71.428571% {transform: translate(415.530975px,463.083038px) rotate(0deg)} 83.333333% {transform: translate(415.530975px,463.083038px) rotate(2.084267deg)} 95.238095% {transform: translate(415.530975px,463.083038px) rotate(0deg)} 100% {transform: translate(415.530975px,463.083038px) rotate(0deg)}} #eP4NYMU1hLC20_tr {animation: eP4NYMU1hLC20_tr__tr 4200ms linear infinite normal forwards}@keyframes eP4NYMU1hLC20_tr__tr { 0% {transform: translate(256.71801px,476.509659px) rotate(0deg)} 11.904762% {transform: translate(256.71801px,476.509659px) rotate(-4.130763deg)} 23.809524% {transform: translate(256.71801px,476.509659px) rotate(0deg)} 35.714286% {transform: translate(256.71801px,476.509659px) rotate(-4.130763deg)} 47.619048% {transform: translate(256.71801px,476.509659px) rotate(0deg)} 59.52381% {transform: translate(256.71801px,476.509659px) rotate(-4.130763deg)} 71.428571% {transform: translate(256.71801px,476.509659px) rotate(0deg)} 83.333333% {transform: translate(256.71801px,476.509659px) rotate(-4.130763deg)} 95.238095% {transform: translate(256.71801px,476.509659px) rotate(0deg)} 100% {transform: translate(256.71801px,476.509659px) rotate(0deg)}} #eP4NYMU1hLC21_tr {animation: eP4NYMU1hLC21_tr__tr 4200ms linear infinite normal forwards}@keyframes eP4NYMU1hLC21_tr__tr { 0% {transform: translate(190.562263px,231.434783px) rotate(0deg)} 11.904762% {transform: translate(190.562263px,231.434783px) rotate(-10.154172deg)} 23.809524% {transform: translate(190.562263px,231.434783px) rotate(0deg)} 35.714286% {transform: translate(190.562263px,231.434783px) rotate(-10.154172deg)} 47.619048% {transform: translate(190.562263px,231.434783px) rotate(0deg)} 59.52381% {transform: translate(190.562263px,231.434783px) rotate(-10.154172deg)} 71.428571% {transform: translate(190.562263px,231.434783px) rotate(0deg)} 83.333333% {transform: translate(190.562263px,231.434783px) rotate(-10.154172deg)} 95.238095% {transform: translate(190.562263px,231.434783px) rotate(0deg)} 100% {transform: translate(190.562263px,231.434783px) rotate(0deg)}} #eP4NYMU1hLC25_to {animation: eP4NYMU1hLC25_to__to 4200ms linear infinite normal forwards}@keyframes eP4NYMU1hLC25_to__to { 0% {transform: translate(327.069092px,195.584381px)} 59.52381% {transform: translate(327.069092px,195.584381px)} 71.428571% {transform: translate(345.121061px,186.827983px)} 83.333333% {transform: translate(335.911061px,190.88332px)} 95.238095% {transform: translate(327.069092px,195.584381px)} 100% {transform: translate(327.069092px,195.584381px)}} #eP4NYMU1hLC27_to {animation: eP4NYMU1hLC27_to__to 4200ms linear infinite normal forwards}@keyframes eP4NYMU1hLC27_to__to { 0% {transform: translate(300.509989px,172.725005px)} 54.761905% {transform: translate(300.509989px,172.725005px)} 71.428571% {transform: translate(300.509989px,189.725005px)} 83.333333% {transform: translate(300.509989px,162.725005px)} 95.238095% {transform: translate(300.509989px,172.725005px)} 100% {transform: translate(300.509989px,172.725005px)}} #eP4NYMU1hLC27 {animation: eP4NYMU1hLC27_c_o 4200ms linear infinite normal forwards}@keyframes eP4NYMU1hLC27_c_o { 0% {opacity: 0} 23.809524% {opacity: 1} 47.619048% {opacity: 1} 100% {opacity: 1}} #eP4NYMU1hLC30_to {animation: eP4NYMU1hLC30_to__to 4200ms linear infinite normal forwards}@keyframes eP4NYMU1hLC30_to__to { 0% {transform: translate(342.79998px,210.515003px)} 54.761905% {transform: translate(342.79998px,210.515003px)} 71.428571% {transform: translate(342.79998px,182.013501px)} 83.333333% {transform: translate(342.79998px,216.76976px)} 95.238095% {transform: translate(342.79998px,195.584224px)} 100% {transform: translate(342.79998px,195.584224px)}} #eP4NYMU1hLC30 {animation: eP4NYMU1hLC30_c_o 4200ms linear infinite normal forwards}@keyframes eP4NYMU1hLC30_c_o { 0% {opacity: 0} 23.809524% {opacity: 0} 47.619048% {opacity: 1} 100% {opacity: 1}}
]]></style>
<g><path d="M0.15,0v600h153.08l3.14-22.86c10.8-59,27.04-144.17,35.83-190.01c4.07-21.26,4.18-43.08.3-64.38L179,248.45c-6.59-36.25,3.45-73.85,28.22-101.13c30.06-33.1,63.71-32.65,91.5-22.29c31.42,11.72,55.98,36.76,68.46,67.89c9.88,24.66,27.54,61.67,55.1,96.37c13.67,17.21,31.87,41.24,49.44,69.43c24,15.49,141.46,100.26,81.03,241.29h47.39v-600.01L0.15,0Z" transform="translate(.309573-.02)" fill="#ffc4e1"/><path d="M0.15,0v600h153.08l3.14-22.86c10.8-59,27.04-144.17,35.83-190.01c4.07-21.26,4.18-43.08.3-64.38L179,248.45c-6.59-36.25,3.45-73.85,28.22-101.13c30.06-33.1,63.71-32.65,91.5-22.29c31.42,11.72,55.98,36.76,68.46,67.89c9.88,24.66,27.54,61.67,55.1,96.37c13.67,17.21,31.87,41.24,49.44,69.43c24,15.49,141.46,100.26,81.03,241.29h47.39v-600.01L0.15,0Z" transform="translate(-.58771-.02)" fill="#ffc4e1"/><path d="M0.15,353.44c0,0,187.42-12.67,210.39,0s-57.9,246.56-57.9,246.56h-152.49v-246.56Z" fill="#3061ac"/><path d="M471.73,358.71c-92.359999,104.405713,81.91,161.93,42.87,241.28h-.24h38.39c61.278757-142.180149,81.598743-370.499916-81.02-241.28Z" fill="#ffc4e1"/><path d="M467.55,356.12c0,0,1.53.88,4.18,2.59-17.57-28.18-35.77-52.22-49.44-69.43-27.56-34.69-45.22-71.7-55.1-96.37-12.47-31.13-37.04-56.17-68.46-67.89-27.79-10.36-61.45-10.81-91.5,22.29-24.77,27.28-34.81,64.88-28.22,101.13l13.5,74.3c3.87,21.3,3.77,43.12-.3,64.38-8.78,45.84-25.02,131.01-35.83,190.01L153.23,600h360.4L467.55,356.12Z" fill="#00dee1"/><path d="M471.73,358.71c-2.65-1.71-4.18-2.59-4.18-2.59L500.67,600h13.7.24c39.03-79.36-.08-172.64-42.88-241.29Z" fill="#00dee1"/><path d="M327.09,151.33c0-9.02,5.91-16.65,14.06-19.25-1.94-.62-4-.96-6.14-.96-11.16,0-20.2,9.05-20.2,20.2s9.05,20.2,20.2,20.2c2.14,0,4.2-.34,6.14-.96-8.15-2.58-14.06-10.21-14.06-19.23Z" fill="#3061ac"/><path d="M355.21,151.33c0-9.02-5.91-16.65-14.06-19.25-8.15,2.6-14.06,10.23-14.06,19.25s5.91,16.65,14.06,19.25c8.16-2.6,14.06-10.23,14.06-19.25Z" fill="#ff7baa"/><path d="M228.5,190.78c0-9.02,5.91-16.65,14.06-19.25-1.94-.62-4-.96-6.14-.96-11.16,0-20.2,9.05-20.2,20.2c0,11.16,9.05,20.2,20.2,20.2c2.14,0,4.2-.34,6.14-.96-8.15-2.58-14.06-10.21-14.06-19.23Z" fill="#3061ac"/><path d="M256.63,190.78c0-9.02-5.91-16.65-14.06-19.25-8.15,2.6-14.06,10.23-14.06,19.25s5.91,16.65,14.06,19.25c8.15-2.6,14.06-10.23,14.06-19.25Z" fill="#ff7baa"/><path d="M335.01,205.16c27.99,0,51.5,25.15,58.21,59.21c1.25-6.36,1.92-13.03,1.92-19.91c0-43.69-26.92-79.11-60.14-79.11s-60.14,35.42-60.14,79.11c0,6.88.67,13.55,1.92,19.91c6.73-34.06,30.25-59.21,58.23-59.21Z" transform="translate(0 1)" fill="#3061ac"/><path d="M335.01,323.57c27.99,0,51.5-25.15,58.21-59.21-6.71-34.06-30.23-59.21-58.21-59.21-27.99,0-51.5,25.15-58.21,59.21c6.71,34.06,30.23,59.21,58.21,59.21Z" fill="#3061ac"/><path d="M335.01,283.75c-27.99,0-51.5-25.15-58.21-59.21-1.25,6.36-1.92,13.03-1.92,19.91c0,43.69,26.92,79.11,60.14,79.11s60.14-35.42,60.14-79.11c0-6.88-.67-13.55-1.92-19.91-6.73,34.06-30.24,59.21-58.23,59.21Z" fill="#3061ac"/><path d="M379.37,262.6c6.65,22.46-5.28,45.8-26.64,52.13-21.37,6.33-44.08-6.75-50.73-29.22" fill="#ff7baa"/><path d="M0,387.21L0.15,600h157.4l38.6-228.4c.53-3.13.61-6.33.24-9.48l-1.43-12.21L0.15,353.44" fill="#0d6092"/></g><g><g id="eP4NYMU1hLC19_tr" transform="translate(415.530975,463.083038) rotate(0)"><path d="M524.67,539.02C511.86,485.71,466,330.18,368.71,339.51c0,0-32.7-4.08-37.61,8.3c0,0-11.11,1.59-11.41,17.15c0,0-13.16,0-15.25,11.67-1.79,9.99,143.5,139.48,185.19,176.39c7.4,6.56,14.21,13.73,20.36,21.48l10.17,12.8c0,0,1.66-5.1,3.52-11.31c3.57-12.03,3.92-24.78.99-36.97Z" transform="translate(-415.530975,-463.083038)" fill="#0d6092"/></g><g id="eP4NYMU1hLC20_tr" transform="translate(256.71801,476.509659) rotate(0)"><path d="M147.89,553.6c13.34-54.73,59.12-206.53,155.06-197.86.31.03.62.03.93-.01c3.74-.41,30.15-2.95,36.44,6.92.58.9,1.47,1.54,2.47,1.91c2.79,1.04,8.07,4.17,9.38,13.01.31,2.08,1.98,3.67,4.03,4.14c4.06.92,10.15,3.56,11.51,11.18c1.79,9.97-142.72,138.78-184.85,176.09-7.63,6.76-14.64,14.15-20.98,22.13l-3.83,4.82c-2.59,3.26-7.77,2.27-8.98-1.72-.04-.13-.08-.25-.11-.38-3.94-13.06-4.3-26.95-1.07-40.23Z" transform="translate(-256.71801,-476.509659)" fill="#0d6092"/></g></g><g id="eP4NYMU1hLC21_tr" transform="translate(190.562263,231.434783) rotate(0)"><g transform="translate(-190.562263,-231.613792)"><g><path d="M201.14,226.51c0,0-42.67-9.18-6.81,12.17" fill="#006295"/><path d="M200.44,227.77c0,0-29.91-6.43-4.78,8.53" fill="#ff71aa"/></g></g></g><g id="eP4NYMU1hLC25_to" transform="translate(327.069092,195.584381)"><g transform="translate(-335,-190.77)"><ellipse rx="25.05" ry="18.79" transform="matrix(.9588-.2839 0.2839 0.9588 327.068934 195.584224)" fill="#ff7baa"/></g></g><g id="eP4NYMU1hLC27_to" transform="translate(300.509989,172.725005)"><g id="eP4NYMU1hLC27" transform="translate(-300.509989,-172.725005)" opacity="0"><path d="M542.78,14.47c-16.1,0-29.15,14.65-29.15,32.71c0-18.07-13.05-32.71-29.15-32.71s-29.15,14.65-29.15,32.71c0,27.7,58.29,73.72,58.29,73.72s58.29-46.01,58.29-73.72c.02-18.06-13.03-32.71-29.13-32.71Z" fill="#ff7baa"/><path d="M116.56,224.55c-16.1,0-29.15,14.65-29.15,32.71c0-18.07-13.05-32.71-29.15-32.71s-29.15,14.65-29.15,32.71c0,27.7,58.29,73.72,58.29,73.72s58.29-46.01,58.29-73.72c.02-18.06-13.03-32.71-29.13-32.71Z" fill="#ff7baa"/></g></g><g id="eP4NYMU1hLC30_to" transform="translate(342.79998,210.515003)"><g id="eP4NYMU1hLC30" transform="translate(-342.79998,-210.515003)" opacity="0"><path d="M194.84,33.09c-16.1,0-29.15,14.65-29.15,32.71c0-18.07-13.05-32.71-29.15-32.71s-29.15,14.65-29.15,32.71c0,27.7,58.29,73.72,58.29,73.72s58.29-46.01,58.29-73.72c.01-18.06-13.03-32.71-29.13-32.71Z" fill="#ff7baa"/><path d="M549.08,281.51c-16.1,0-29.15,14.65-29.15,32.71c0-18.07-13.05-32.71-29.15-32.71s-29.15,14.65-29.15,32.71c0,27.7,58.29,73.72,58.29,73.72s58.29-46.01,58.29-73.72c.02-18.07-13.03-32.71-29.13-32.71Z" fill="#ff7baa"/></g></g><g><g><path d="M275.12,570.4c11.14,1.33,25.76-6.46,37.62-21.38s17.72-32.89,16.18-46.3c-11.14-1.33-25.76,6.46-37.62,21.38-11.86,14.93-17.72,32.9-16.18,46.3Z" fill="#05d589"/><path d="M327.8,504.02c22.11-17.82,40.51-58.98,45.87-108.37c5.36-49.4-3.79-93.54-21.56-115.69-22.11,17.82-40.51,58.98-45.87,108.37-5.36,49.4,3.79,93.54,21.56,115.69Z" fill="#05d589"/><path d="M366.96,580.37c-11.17-1.09-23.78-11.83-32.16-28.95-8.39-17.12-10.26-35.93-5.88-48.69c11.17,1.09,23.78,11.83,32.16,28.95c8.39,17.11,10.26,35.93,5.88,48.69Z" fill="#05d589"/><ellipse rx="8.28" ry="6.81" transform="matrix(.1079-.9942 0.9942 0.1079 348.318777 312.280236)" fill="#05d589"/></g></g></svg>
