<svg cache-id="3c63d82f60a04b858e001d8997db8461" id="eXUOv2I0RPq1" xmlns="http://www.w3.org/2000/svg" xmlns:xlink="http://www.w3.org/1999/xlink" viewBox="0 0 600 600" shape-rendering="geometricPrecision" text-rendering="geometricPrecision">
<style><![CDATA[
#eXUOv2I0RPq5_to {animation: eXUOv2I0RPq5_to__to 5100ms linear infinite normal forwards}@keyframes eXUOv2I0RPq5_to__to { 0% {transform: translate(100.919994px,187.495003px)} 19.607843% {transform: translate(50.37001px,235.337555px)} 39.215686% {transform: translate(88.787343px,229.309365px)} 58.823529% {transform: translate(147.02233px,242.954996px)} 76.470588% {transform: translate(74.523689px,242.954996px)} 100% {transform: translate(74.523689px,242.954996px)}} #eXUOv2I0RPq5 {animation: eXUOv2I0RPq5_c_o 5100ms linear infinite normal forwards}@keyframes eXUOv2I0RPq5_c_o { 0% {opacity: 1} 25.490196% {opacity: 0.58} 50.980392% {opacity: 1} 76.470588% {opacity: 0.7} 98.039216% {opacity: 1} 100% {opacity: 1}} #eXUOv2I0RPq13_to {animation: eXUOv2I0RPq13_to__to 5100ms linear infinite normal forwards}@keyframes eXUOv2I0RPq13_to__to { 0% {transform: translate(232.239998px,155.56501px)} 19.607843% {transform: translate(181.690014px,203.407562px)} 39.215686% {transform: translate(220.107348px,197.379372px)} 58.823529% {transform: translate(278.342335px,211.025003px)} 76.470588% {transform: translate(205.843694px,211.025003px)} 100% {transform: translate(205.843694px,211.025003px)}} #eXUOv2I0RPq13 {animation: eXUOv2I0RPq13_c_o 5100ms linear infinite normal forwards}@keyframes eXUOv2I0RPq13_c_o { 0% {opacity: 1} 25.490196% {opacity: 0.58} 50.980392% {opacity: 1} 76.470588% {opacity: 0.7} 98.039216% {opacity: 1} 100% {opacity: 1}} #eXUOv2I0RPq21_to {animation: eXUOv2I0RPq21_to__to 5100ms linear infinite normal forwards}@keyframes eXUOv2I0RPq21_to__to { 0% {transform: translate(510.189987px,190.715004px)} 19.607843% {transform: translate(459.640004px,238.557556px)} 39.215686% {transform: translate(498.057338px,232.529366px)} 58.823529% {transform: translate(556.292325px,246.174997px)} 76.470588% {transform: translate(483.793684px,246.174997px)} 100% {transform: translate(483.793684px,246.174997px)}} #eXUOv2I0RPq21 {animation: eXUOv2I0RPq21_c_o 5100ms linear infinite normal forwards}@keyframes eXUOv2I0RPq21_c_o { 0% {opacity: 1} 25.490196% {opacity: 0.58} 50.980392% {opacity: 1} 76.470588% {opacity: 0.7} 98.039216% {opacity: 1} 100% {opacity: 1}} #eXUOv2I0RPq41_tr {animation: eXUOv2I0RPq41_tr__tr 5100ms linear infinite normal forwards}@keyframes eXUOv2I0RPq41_tr__tr { 0% {transform: translate(354.210007px,508.16304px) rotate(8.381345deg)} 9.803922% {transform: translate(354.210007px,508.16304px) rotate(-3.034199deg)} 19.607843% {transform: translate(354.210007px,508.16304px) rotate(8.381345deg)} 29.411765% {transform: translate(354.210007px,508.16304px) rotate(-3.034199deg)} 39.215686% {transform: translate(354.210007px,508.16304px) rotate(8.381345deg)} 49.019608% {transform: translate(354.210007px,508.16304px) rotate(-3.034199deg)} 58.823529% {transform: translate(354.210007px,508.16304px) rotate(8.381345deg)} 68.627451% {transform: translate(354.210007px,508.16304px) rotate(-3.034199deg)} 78.431373% {transform: translate(354.210007px,508.16304px) rotate(8.381345deg)} 88.235294% {transform: translate(354.210007px,508.16304px) rotate(-3.034199deg)} 98.039216% {transform: translate(354.210007px,508.16304px) rotate(8.381345deg)} 100% {transform: translate(354.210007px,508.16304px) rotate(8.381345deg)}} #eXUOv2I0RPq43_tr {animation: eXUOv2I0RPq43_tr__tr 5100ms linear infinite normal forwards}@keyframes eXUOv2I0RPq43_tr__tr { 0% {transform: translate(459.752243px,440.623795px) rotate(0deg)} 9.803922% {transform: translate(459.752243px,440.623795px) rotate(-16.287918deg)} 19.607843% {transform: translate(459.752243px,440.623795px) rotate(0deg)} 29.411765% {transform: translate(459.752243px,440.623795px) rotate(-16.287918deg)} 39.215686% {transform: translate(459.752243px,440.623795px) rotate(0deg)} 49.019608% {transform: translate(459.752243px,440.623795px) rotate(-16.287918deg)} 58.823529% {transform: translate(459.752243px,440.623795px) rotate(0deg)} 100% {transform: translate(459.752243px,440.623795px) rotate(0deg)}} #eXUOv2I0RPq47_ts {animation: eXUOv2I0RPq47_ts__ts 5100ms linear infinite normal forwards}@keyframes eXUOv2I0RPq47_ts__ts { 0% {transform: translate(499.730789px,440.373104px) scale(1,1)} 9.803922% {transform: translate(499.730789px,440.373104px) scale(1.1,1.1)} 19.607843% {transform: translate(499.730789px,440.373104px) scale(1,1)} 29.411765% {transform: translate(499.730789px,440.373104px) scale(1.1,1.1)} 39.215686% {transform: translate(499.730789px,440.373104px) scale(1,1)} 49.019608% {transform: translate(499.730789px,440.373104px) scale(1.1,1.1)} 58.823529% {transform: translate(499.730789px,440.373104px) scale(1,1)} 100% {transform: translate(499.730789px,440.373104px) scale(1,1)}} #eXUOv2I0RPq53 {animation: eXUOv2I0RPq53_c_o 5100ms linear infinite normal forwards}@keyframes eXUOv2I0RPq53_c_o { 0% {opacity: 0} 58.823529% {opacity: 0} 78.431373% {opacity: 1} 100% {opacity: 1}} #eXUOv2I0RPq69_ts {animation: eXUOv2I0RPq69_ts__ts 5100ms linear infinite normal forwards}@keyframes eXUOv2I0RPq69_ts__ts { 0% {transform: translate(470.49501px,134.234798px) scale(1,1)} 78.431373% {transform: translate(470.49501px,134.234798px) scale(1,1)} 88.235294% {transform: translate(470.49501px,134.234798px) scale(0.99545,1.313362)} 98.039216% {transform: translate(470.49501px,134.234798px) scale(1,1)} 100% {transform: translate(470.49501px,134.234798px) scale(1,1)}}
]]></style>
<g><rect width="600" height="600" rx="0" ry="0" fill="#ffc4e1"/></g><g><g id="eXUOv2I0RPq5_to" transform="translate(100.919994,187.495003)"><g id="eXUOv2I0RPq5" transform="translate(-100.919994,-187.495003)"><g><g><path d="M113.24,185.8h-24.64c-3.2,0-5.81-2.62-5.81-5.81v-40.94c0-3.2,2.62-5.81,5.81-5.81h24.64c3.2,0,5.81,2.62,5.81,5.81v40.94c.01,3.2-2.61,5.81-5.81,5.81Z" fill="#3061ac"/></g><g><path d="M153.65,308.22h-105.46v-124.9c0-6.6,5.4-12,12-12h81.45c6.6,0,12,5.4,12,12v124.9h.01Z" fill="#3061ac"/></g><g><ellipse rx="43.47" ry="51.32" transform="translate(100.19 118.09)" fill="#3061ac"/></g></g></g></g><g id="eXUOv2I0RPq13_to" transform="translate(232.239998,155.56501)"><g id="eXUOv2I0RPq13" transform="translate(-232.239998,-155.56501)"><g><g><path d="M244.56,153.87h-24.64c-3.2,0-5.81-2.62-5.81-5.81v-40.94c0-3.2,2.62-5.81,5.81-5.81h24.64c3.2,0,5.81,2.62,5.81,5.81v40.94c.01,3.2-2.61,5.81-5.81,5.81Z" fill="#3061ac"/></g><g><path d="M284.97,276.29h-105.46v-124.9c0-6.6,5.4-12,12-12h81.45c6.6,0,12,5.4,12,12v124.9h.01Z" fill="#3061ac"/></g><g><ellipse rx="43.47" ry="51.32" transform="translate(231.52 86.16)" fill="#3061ac"/></g></g></g></g><g id="eXUOv2I0RPq21_to" transform="translate(510.189987,190.715004)"><g id="eXUOv2I0RPq21" transform="translate(-510.189987,-190.715004)"><g><g><path d="M522.51,189.03h-24.64c-3.2,0-5.81-2.62-5.81-5.81v-40.94c0-3.2,2.62-5.81,5.81-5.81h24.64c3.2,0,5.81,2.62,5.81,5.81v40.94c.01,3.19-2.61,5.81-5.81,5.81Z" fill="#3061ac"/></g><g><path d="M562.92,311.44h-105.46v-124.9c0-6.6,5.4-12,12-12h81.45c6.6,0,12,5.4,12,12v124.9h.01Z" fill="#3061ac"/></g><g><ellipse rx="43.47" ry="51.32" transform="translate(509.46 121.31)" fill="#3061ac"/></g></g></g></g><path d="M600,338.7c-82.02-64.71-185.57-103.34-298.16-103.34-114.28,0-219.25,39.82-301.84,106.3L0,600h600v-261.3Z" fill="#05d589"/></g><g><path d="M428.8,382.76c0,0,105.21,17.71,93.92,70.68c0,0,.19,22.4,6.19,27.55s4.72,29.32-102.66,20.52c0,0-318.78,37.12-350.98,32.14-17.75-2.74-31.65-5.41-41.15-7.4-9.39-1.97-16.62-9.43-18.32-18.87C9.18,470.75,10.58,377.1,126.23,368.2c145.87-11.22,232.81-18.28,302.57,14.56Z" fill="#00e1e2"/><ellipse rx="23.53" ry="12.01" transform="matrix(.1574-.9875 0.9875 0.1574 520.960176 481.038978)" fill="#006295"/><ellipse rx="2.87" ry="4.87" transform="matrix(.1574-.9875 0.9875 0.1574 525.167673 465.895564)" fill="#ff71aa"/><path d="M512.37,494.91c1.29-4.64,5.78-9.1,9.77-8.15s5.97,6.95,4.67,11.59l-14.44-3.44Z" fill="#ff71aa"/><g><path d="M502.04,481.47c0,0-18.6,16.3-28.56,12.36" fill="none" stroke="#ff71aa" stroke-width="0.25" stroke-miterlimit="10"/><path d="M500.16,478.76c0,0-19.93,13.79-29.18,8.85" fill="none" stroke="#ff71aa" stroke-width="0.25" stroke-miterlimit="10"/><path d="M498.27,476.06c0,0-21.26,11.28-29.81,5.33" fill="none" stroke="#ff71aa" stroke-width="0.25" stroke-miterlimit="10"/><path d="M496.38,473.35c0,0-22.59,8.77-30.44,1.81" fill="none" stroke="#ff71aa" stroke-width="0.25" stroke-miterlimit="10"/><path d="M494.49,470.65c0,0-23.93,6.26-31.07-1.71" fill="none" stroke="#ff71aa" stroke-width="0.25" stroke-miterlimit="10"/></g></g><g id="eXUOv2I0RPq41_tr" transform="translate(354.210007,508.16304) rotate(8.381345)"><g transform="translate(-354.210007,-508.16304)"><path d="M348.96,468.15c-5.43-11.91,61.98,27.45,61.98,27.45s-73.65,67.8-113.46,52.6" fill="#00e1e2"/></g></g><g id="eXUOv2I0RPq43_tr" transform="translate(459.752243,440.623795) rotate(0)"><g transform="translate(-459.752243,-440.623795)"><g><path d="M470.33,435.52c0,0-42.67-9.18-6.81,12.17" fill="#006295"/><path d="M469.63,436.79c0,0-29.91-6.43-4.78,8.53" fill="#ff71aa"/></g></g></g><g id="eXUOv2I0RPq47_ts" transform="translate(499.730789,440.373104) scale(1,1)"><g transform="translate(-499.730789,-440.16571)"><g><g><rect width="7.68" height="23.29" rx="0" ry="0" transform="matrix(.763-.6464 0.6464 0.763 489.275411 433.805469)"/></g><g><rect width="23.29" height="7.68" rx="0" ry="0" transform="matrix(.6464-.763 0.763 0.6464 489.271548 446.526571)"/></g></g></g></g><g id="eXUOv2I0RPq53" opacity="0"><ellipse rx="138.8" ry="79.12" transform="translate(438.22 130.18)" fill="#fff"/><g><g><path d="M518.08,136.84c.29-7.95-5.16-17.86-14.81-25.43-9.66-7.57-20.89-10.73-28.99-8.9-.29,7.95,5.16,17.86,14.81,25.43c9.66,7.56,20.89,10.72,28.99,8.9Z" fill="#05d589"/><path d="M475.12,103.23c-11.91-14.66-37.87-25.41-68.23-26.49s-56.84,7.81-69.5,21.6c11.91,14.66,37.87,25.41,68.23,26.49c30.37,1.07,56.84-7.82,69.5-21.6Z" fill="#05d589"/><path d="M519.81,71.34c-.13,7.96-6.09,17.46-16.12,24.33-10.04,6.87-21.41,9.23-29.4,6.83.13-7.96,6.09-17.46,16.12-24.33s21.41-9.22,29.4-6.83Z" fill="#05d589"/><g><ellipse rx="4.82" ry="5.07" transform="matrix(.1244-.9922 0.9922 0.1244 357.28739 99.276762)" fill="#05d589"/></g></g></g><g><g><path d="M491.53,188.98c.29-7.95-5.16-17.86-14.81-25.43-9.66-7.57-20.89-10.73-28.99-8.9-.29,7.95,5.16,17.86,14.81,25.43c9.66,7.57,20.89,10.73,28.99,8.9Z" fill="#05d589"/><path d="M448.57,155.37c-11.91-14.66-37.87-25.41-68.23-26.49s-56.84,7.81-69.5,21.6c11.91,14.66,37.87,25.41,68.23,26.49s56.84-7.82,69.5-21.6Z" fill="#05d589"/><path d="M493.25,123.49c-.13,7.96-6.09,17.46-16.12,24.33-10.04,6.87-21.41,9.23-29.4,6.83.13-7.96,6.09-17.46,16.12-24.33c10.04-6.87,21.42-9.23,29.4-6.83Z" fill="#05d589"/><g><ellipse rx="4.82" ry="5.07" transform="matrix(.1244-.9922 0.9922 0.1244 330.726873 151.416885)" fill="#05d589"/></g></g></g><g id="eXUOv2I0RPq69_ts" transform="translate(470.49501,134.234798) scale(1,1)"><g transform="translate(-470.49501,-134.234798)"><g><path d="M559.97,167.18c.29-7.95-5.16-17.86-14.81-25.43-9.66-7.57-20.89-10.73-28.99-8.9-.29,7.95,5.16,17.86,14.81,25.43c9.66,7.57,20.9,10.73,28.99,8.9Z" fill="#ffc4e1"/><path d="M517.02,133.57c-11.91-14.66-37.87-25.41-68.23-26.49s-56.84,7.81-69.5,21.6c11.91,14.66,37.87,25.41,68.23,26.49s56.84-7.81,69.5-21.6Z" fill="#ffc4e1"/><path d="M561.7,101.69c-.13,7.96-6.09,17.46-16.12,24.33-10.04,6.87-21.41,9.23-29.4,6.83.13-7.96,6.09-17.46,16.12-24.33c10.04-6.87,21.41-9.22,29.4-6.83Z" fill="#ffc4e1"/><g><ellipse rx="4.82" ry="5.07" transform="matrix(.1244-.9922 0.9922 0.1244 399.182772 129.630048)" fill="#ffc4e1"/></g></g></g></g><circle r="15.54" transform="translate(458.66 244.14)" fill="#fff"/><circle r="9.41" transform="translate(408.58 293.58)" fill="#fff"/><circle r="9.41" transform="translate(393.78 337.6)" fill="#fff"/></g></svg>
