<svg id="e0zoxFVYfHD1" xmlns="http://www.w3.org/2000/svg" xmlns:xlink="http://www.w3.org/1999/xlink" viewBox="0 0 407 302" shape-rendering="geometricPrecision" text-rendering="geometricPrecision">
<style><![CDATA[
#e0zoxFVYfHD4_to {animation: e0zoxFVYfHD4_to__to 3000ms linear infinite normal forwards}@keyframes e0zoxFVYfHD4_to__to { 0% {transform: translate(57.54374px,116.829472px)} 6.666667% {transform: translate(57.54374px,111.583832px)} 13.333333% {transform: translate(57.54374px,106.338192px)} 20% {transform: translate(57.54374px,101.092552px)} 26.666667% {transform: translate(57.54374px,95.846912px)} 33.333333% {transform: translate(57.54374px,90.601272px)} 40% {transform: translate(57.54374px,97.158322px)} 46.666667% {transform: translate(57.54374px,102.403962px)} 53.333333% {transform: translate(57.54374px,107.649602px)} 60% {transform: translate(57.54374px,112.895242px)} 66.666667% {transform: translate(57.54374px,119.452292px)} 73.333333% {transform: translate(57.54374px,124.697932px)} 100% {transform: translate(57.54374px,124.697932px)}} #e0zoxFVYfHD5_to {animation: e0zoxFVYfHD5_to__to 3000ms linear infinite normal forwards}@keyframes e0zoxFVYfHD5_to__to { 0% {transform: translate(348.411194px,107.095745px)} 6.666667% {transform: translate(348.411194px,101.850105px)} 13.333333% {transform: translate(348.411194px,96.604465px)} 20% {transform: translate(348.411194px,91.358825px)} 26.666667% {transform: translate(348.411194px,86.113185px)} 33.333333% {transform: translate(348.411194px,80.867545px)} 40% {transform: translate(348.411194px,87.424595px)} 46.666667% {transform: translate(348.411194px,92.670235px)} 53.333333% {transform: translate(348.411194px,97.915875px)} 60% {transform: translate(348.411194px,103.161515px)} 66.666667% {transform: translate(348.411194px,109.718565px)} 73.333333% {transform: translate(348.411194px,114.964205px)} 100% {transform: translate(348.411194px,114.964205px)}} #e0zoxFVYfHD17_to {animation: e0zoxFVYfHD17_to__to 3000ms linear infinite normal forwards}@keyframes e0zoxFVYfHD17_to__to { 0% {transform: translate(188.5px,13.5px)} 6.666667% {transform: translate(188.5px,8.25436px)} 13.333333% {transform: translate(188.5px,3.00872px)} 20% {transform: translate(188.5px,-2.23692px)} 26.666667% {transform: translate(188.5px,-7.48256px)} 33.333333% {transform: translate(188.5px,-12.7282px)} 40% {transform: translate(188.5px,-6.17115px)} 46.666667% {transform: translate(188.5px,-0.92551px)} 53.333333% {transform: translate(188.5px,4.32013px)} 60% {transform: translate(188.5px,9.56577px)} 66.666667% {transform: translate(188.5px,16.12282px)} 73.333333% {transform: translate(188.5px,21.36846px)} 100% {transform: translate(188.5px,21.36846px)}}
]]></style>
<g transform="matrix(.762538 0 0 0.762538 48.294517 35.771631)"><path d="M389,164.092c0-3.85-2.17-7.209-5.352-8.904v-9.291c0-8.978-7.284-16.262-16.263-16.262h-18.657c-8.83-8.161-20.619-13.141-33.582-13.141h-162.172v171.262c0,7.477,6.065,13.527,13.528,13.527h17.824c7.477,0,13.528-6.065,13.528-13.527v-40.984c0-2.779,2.245-5.024,5.025-5.024h14.91c2.78,0,5.025,2.245,5.025,5.024v40.984c0,7.477,6.065,13.527,13.528,13.527h17.824c7.478,0,13.528-6.065,13.528-13.527v-39.809c0-2.78,2.245-5.025,5.025-5.025h41.981c2.78,0,5.025,2.245,5.025,5.025v44.521c0,4.861,6.065,8.8,13.528,8.8h17.824c7.478,0,13.528-3.939,13.528-8.8v-126.488c0-9.736-2.824-18.804-7.671-26.46h7.522c5.516,0,9.975,4.46,9.975,9.975v5.559c-3.33,1.65-5.619,5.069-5.619,9.024c0,.951.149,1.873.387,2.75h-.387l10.079,20.35l10.079-20.35h-.386c.252-.877.386-1.799.386-2.75l.03.014Z" fill="#01d589"/><g id="e0zoxFVYfHD4_to" transform="translate(57.54374,116.829472)"><path d="M16.4284,76.425c52.8758-33.8567,84.3956,52.381,93.7956,83.564c1.063,3.535-2.974,6.409-5.962,4.239L89.636,153.593c-1.4321-1.044-3.2343-1.446-4.9761-1.131l-6.511,1.196c-32.9587,2.76-29.8603-29.138-29.8603-29.138s-3.8469,2.117-8.4843,2.615c-4.2257.442-8.4992-.182-12.3831-1.883-14.8738-6.519-20.60738-15.107-22.2268-22.893-2.10874-10.0961,2.535-20.3794,11.2051-25.9362l.0289.0022Z" transform="translate(-57.54374,-116.829472)" fill="#fff"/></g><g id="e0zoxFVYfHD5_to" transform="translate(348.411194,107.095745)"><path d="M390.15,66.0791c-53.677-34.3697-85.675,53.1739-95.217,84.8309-1.08,3.587,3.018,6.505,6.052,4.303l14.848-10.797c1.453-1.059,3.283-1.468,5.051-1.148l6.61,1.215c33.458,2.801,30.313-29.58,30.313-29.58s3.905,2.149,8.613,2.654c4.289.449,8.627-.185,12.57-1.911c15.099-6.618,20.92-15.336,22.564-23.2399c2.14-10.2492-2.574-20.6883-11.375-26.3293l-.029.0023Z" transform="translate(-348.411194,-107.095745)" fill="#fff"/></g><path d="M304.666,46.3604c.297-12.4124-14.51-21.3315-28.944-17.4219l-57.13,15.4449c-8.949-5.8866-19.653-9.3205-31.159-9.3205-10.897,0-21.08,3.0771-29.717,8.3988L103.99,28.9236C89.5705,25.0289,74.7491,33.948,75.0465,46.3604L68,180.979c.3122,12.755,18.6121,19.503,30.5198,11.253l50.4252-26.876c.431,6.362.327,9.752.342,12.472.059,10.004-1.07,18.15-4.564,26.356-3.374,7.938-10.198,14.984-18.761,16.158-7.492,1.041-14.167-.535-21.496-6.065-2.096-1.575-5.0543-1.263-6.7044.773l-8.0722,9.96c-1.5907,1.962-1.4271,4.846.4311,6.57c4.8909,4.519,10.3615,8.429,16.2935,11.565c10.822,5.768,23.19,9.024,36.302,9.024c23.399,0,44.345-10.362,58.542-26.743c4.995-6.511,9.351-13.512,12.978-20.96c6.17-12.531,10.258-26.252,11.878-40.715h.312l.193-1.636.253,1.175l54.32,28.942c11.923,8.25,30.223,1.502,30.52-11.253L304.666,46.3604Z" fill="#00dee1"/><path d="M161.7,185.736c-8.756,10.183-20.619,16.114-32.958,17.586-4.058.49-5.946-4.935-2.482-7.121c4.326-2.69,8.31-6.08,11.803-10.138c6.586-7.655,10.525-16.693,11.923-25.984.282-1.903,2.007-3.255,3.924-3.032l16.026,1.873c2.066.237,3.523,2.2,3.077,4.236-1.769,8.087-5.515,15.876-11.298,22.58h-.015Z" fill="#fff4cb"/><path d="M227.065,132.935v30.474l-.193-.104-.253-1.175-.178,1.635h-.313c-1.635,14.464-5.723,28.185-11.892,40.716-3.628,7.433-7.983,14.434-12.978,20.96-14.197,16.381-35.158,26.742-58.542,26.742-13.127,0-25.48-3.255-36.303-9.023-5.931-3.151-11.402-7.046-16.2929-11.565-1.8583-1.724-2.0218-4.608-.4312-6.57l8.0723-9.945c1.6501-2.037,4.6088-2.364,6.7048-.788c7.343,5.545,14.018,7.106,21.511,6.08c7.775-1.085,14.107-6.987,17.735-14.018.371-.699.698-1.412,1.011-2.141c2.869-6.689,4.147-13.363,4.474-21.034.089-1.724.119-3.493.104-5.336-.015-1.962.03-4.252-.104-7.76v-37.148h77.868Z" fill="#00dee1"/><path d="M151.902,126.81c2.661,0,4.817-3.329,4.817-7.447s-2.156-7.447-4.817-7.447-4.816,3.329-4.816,7.447s2.155,7.447,4.816,7.447Z" fill="#ff7baa"/><path d="M222.219,126.825c2.66,0,4.816-3.334,4.816-7.447s-2.156-7.448-4.816-7.448-4.817,3.335-4.817,7.448s2.157,7.447,4.817,7.447Z" fill="#ff7baa"/><path d="M195,173.338l-38.117-2.126c-.936-.029-1.65.64-1.694,1.517-.045.892.624,1.65,1.516,1.694l38.116,2.126c0,0,.06,0,.089,0c.848,0,1.561-.669,1.606-1.516.045-.892-.624-1.65-1.516-1.695Z" fill="#ff7baa"/><path d="M190.331,187.4l-32.943-4.117c-.877-.104-1.68.52-1.799,1.397-.104.877.521,1.68,1.398,1.799l32.943,4.117c0,0,.134,0,.208,0c.803,0,1.486-.594,1.591-1.412.104-.877-.521-1.679-1.398-1.798v.014Z" fill="#ff7baa"/><path d="M184.267,201.077l-27.77-7.671c-.847-.237-1.739.268-1.977,1.115-.238.863.267,1.74,1.115,1.977l27.769,7.671c.149.044.283.059.431.059.699,0,1.353-.46,1.546-1.174.238-.862-.267-1.739-1.114-1.977Z" fill="#ff7baa"/><path d="M175.436,214.173L153.627,203.53c-.803-.387-1.769-.06-2.155.743-.387.803-.06,1.769.743,2.155l21.808,10.644c.223.104.476.163.699.163.595,0,1.174-.327,1.442-.906.386-.803.059-1.769-.743-2.156h.015Z" fill="#ff7baa"/><path d="M146.982,212.924c-.713-.535-1.709-.401-2.259.298-.536.713-.402,1.709.297,2.259l16.234,12.398c.297.223.639.327.981.327.49,0,.966-.223,1.278-.64.535-.713.402-1.709-.297-2.259l-16.234-12.398v.015Z" fill="#ff7baa"/><path d="M230.797,186.435c-7.552,11.104-18.672,18.329-30.773,21.198-3.984.951-6.466-4.237-3.27-6.794c3.984-3.151,7.566-6.972,10.584-11.401c5.679-8.34,8.578-17.764,8.92-27.159.074-1.932,1.62-3.464,3.553-3.464l16.129.045c2.081,0,3.746,1.799,3.538,3.865-.847,8.235-3.701,16.396-8.681,23.71Z" fill="#fff4cb"/><g id="e0zoxFVYfHD17_to" transform="translate(188.5,13.5)"><path d="M188.5,27c25.128,0,45.5-6.0502,45.5-13.4913s-20.372-13.5087-45.5-13.5087-45.5,6.05023-45.5,13.4913s20.372,13.4913,45.5,13.4913v.0174Zm0-17.17708c0,0,27.611,0,27.611,3.66838c0,4.0509-27.611,4.0509-27.611,4.0509s-27.594-.2608-27.594-4.0509s27.594-3.66838,27.594-3.66838Z" transform="translate(-188.5,-13.5)" fill="#fff4cb"/></g></g></svg>
