<svg id="eyIZ3sYJjSc1" xmlns="http://www.w3.org/2000/svg" xmlns:xlink="http://www.w3.org/1999/xlink" viewBox="0 0 299 298" shape-rendering="geometricPrecision" text-rendering="geometricPrecision">
<style><![CDATA[
#eyIZ3sYJjSc16_to {animation: eyIZ3sYJjSc16_to__to 3000ms linear infinite normal forwards}@keyframes eyIZ3sYJjSc16_to__to { 0% {transform: translate(219.673004px,86.927425px)} 6.666667% {transform: translate(219.673004px,82.927425px)} 13.333333% {transform: translate(219.673004px,78.927425px)} 20% {transform: translate(219.673004px,74.927425px)} 26.666667% {transform: translate(219.673004px,70.927425px)} 33.333333% {transform: translate(219.673004px,66.927425px)} 40% {transform: translate(219.673004px,70.927425px)} 46.666667% {transform: translate(219.673004px,74.927425px)} 53.333333% {transform: translate(219.673004px,77.927425px)} 60% {transform: translate(219.673004px,81.927425px)} 66.666667% {transform: translate(219.673004px,86.927425px)} 73.333333% {transform: translate(219.673004px,89.927425px)} 100% {transform: translate(219.673004px,89.927425px)}} #eyIZ3sYJjSc17_to {animation: eyIZ3sYJjSc17_to__to 3000ms linear infinite normal forwards}@keyframes eyIZ3sYJjSc17_to__to { 0% {transform: translate(117.157867px,163.589088px)} 6.666667% {transform: translate(117.157867px,159.589088px)} 13.333333% {transform: translate(117.157867px,155.589088px)} 20% {transform: translate(117.157867px,151.589088px)} 26.666667% {transform: translate(117.157867px,147.589088px)} 33.333333% {transform: translate(117.157867px,143.589088px)} 40% {transform: translate(117.157867px,147.589088px)} 46.666667% {transform: translate(117.157867px,151.589088px)} 53.333333% {transform: translate(117.157867px,154.589088px)} 60% {transform: translate(117.157867px,158.589088px)} 66.666667% {transform: translate(117.157867px,163.589088px)} 73.333333% {transform: translate(117.157867px,166.589088px)} 100% {transform: translate(117.157867px,166.589088px)}}
]]></style>
<path d="M191.339,216.916c-2.739,16.182-7.525,31.178-18.046,43.732-11.461,13.661-26.264,18.416-43.677,15.727-1.058-.158-2.106-.375-3.431-.603c2.946-5.664,5.745-11.071,8.563-16.449c6.566-12.524,13.171-25.029,19.668-37.593.939-1.819,2.037-2.511,4.133-2.63c10.215-.603,20.42-1.433,30.634-2.165.603-.039,1.217,0,2.156,0v-.019Z" fill="#0e6092"/><path d="M106.24,88.8227c-5.26-12.495-10.1055-25.1679-15.4749-37.6134-2.2149-5.1305-9.1763-18.5349-13.28-21.283-1.0482-.7018-2.4523-.3064-2.7984.8996l-.4747,1.6805c-.2768.9885-1.3349,1.5322-2.3039,1.1763l-2.3732-.86c-.9493-.346-1.9975.1779-2.2941,1.1467l-.9098,3.0249c-.2768.9193-1.2459,1.4531-2.1655,1.1862l-3.9356-1.117c-1.2855-.3658-2.4127.7611-2.2051,2.0858c1.1471,7.2261,26.6096,40.5987,37.8526,56.9193c2.1062,3.0644,4.3016,6.0594,6.7236,9.4804c1.385-3.668,2.403-6.9399,3.847-10.0142c1.127-2.4021.791-4.3397-.208-6.722v.0099Z" fill="#0e6092"/><path d="M243.619,118.004c.732-5.496-6.229-11.447-11.273-11.764-5.389-.326-10.076,1.76-13.893,5.437-7.416,7.157-14.763,15.441-16.8,25.88-1.81,9.233-5.083,17.823-9.859,25.919-1.799,3.055-4.38,4.587-7.633,5.249-4.559.919-8.663-.415-11.906-3.499-4.064-3.875-7.95-7.997-11.55-12.317-18.254-21.896-21.784-25.218-38.03-48.626-4.045-5.8322-8.653-11.4965-10.126-18.6336-1.275-6.1783-1.651-12.5345-2.66-18.7721-1.671-10.3202-3.253-20.6701-5.429-30.8915-.603-2.8074-1.354-6.6429-2.491-9.9149-.831-3.0249-2.0671-5.1008-3.0955-6.4056-.7713-.9886-2.3237-.8502-2.9269.2471l-.8405,1.5322c-.4945.8996-1.6514,1.1862-2.5117.6327l-2.1161-1.3741c-.8504-.5536-1.9876-.2768-2.4919.603l-1.5722,2.7382c-.4746.8304-1.5327,1.1368-2.3831.6722l-3.5895-1.9671c-1.1668-.6426-2.6204.1977-2.6105,1.5322c0,2.7085.7911,4.5769.7911,4.5769c3.5598,16.8642,7.1493,33.7186,10.6992,50.5828.9789,4.656,2.6599,9.3317,2.6698,13.9975.0198,11.2201.7318,22.3601,2.2447,33.4421c2.8083,20.601,6.6651,41.004,11.7671,61.17c3.856,15.243,8.227,30.318,15.406,44.414c6.378,12.525,15.248,22.499,28.844,27.461c1.869.683,3.778,1.266,5.924,1.987-4.539,8.699-8.949,17.122-13.478,25.801c11.431,2.966,23.405.119,26.362-.811c12.331-3.875,20.756-12.425,27.094-23.289.9-1.542,1.968-2.432,3.629-2.976c22.348-6.87,39.207-25.87,39.207-25.87c23.693-30.308,3.54-92.822,4.618-116.744l.01-.02Z" fill="#00dee1"/><path d="M244.501,120.446c2.105-3.645-1.1-9.435-7.158-12.932-6.059-3.497-12.677-3.376-14.782.269s1.099,9.435,7.158,12.932c6.058,3.497,12.677,3.376,14.782-.269Z" fill="#0e6092"/><path d="M217.257,128.018c2.403,0,4.351-1.947,4.351-4.35c0-2.402-1.948-4.349-4.351-4.349s-4.351,1.947-4.351,4.349c0,2.403,1.948,4.35,4.351,4.35Z" fill="#ff7baa"/><path d="M225.388,112.958c.906-.109,1.485-1.484,1.295-3.073-.191-1.588-1.079-2.787-1.985-2.679-.905.109-1.485,1.484-1.294,3.073.19,1.588,1.079,2.787,1.984,2.679Z" fill="#ff7baa"/><path d="M239.595,111.885c2.432.909,4.459,3.786,3.54,6.218-.92,2.431-4.41,3.499-6.843,2.59l3.303-8.808Z" fill="#ff7baa"/><path d="M208.822,130.786c0,0-7.91,8.521,1.859,3.222l-1.859-3.222Z" fill="#0e6092"/><path d="M209.019,131.122c0,0-5.547,5.97,1.306,2.253l-1.306-2.253Z" fill="#ff7baa"/><path d="M231.249,123.065c0,0,12.113,6.218,12.113,12.109" fill="none" stroke="#ff7baa" stroke-width="0.25" stroke-miterlimit="10"/><path d="M230.25,124.587c0,0,11.105,7.404,10.442,13.148" fill="none" stroke="#ff7baa" stroke-width="0.25" stroke-miterlimit="10"/><path d="M229.241,126.1c0,0,10.086,8.6,8.771,14.185" fill="none" stroke="#ff7baa" stroke-width="0.25" stroke-miterlimit="10"/><path d="M228.242,127.612c0,0,9.068,9.787,7.09,15.214" fill="none" stroke="#ff7baa" stroke-width="0.25" stroke-miterlimit="10"/><path d="M227.244,129.125c0,0,8.059,10.983,5.419,16.251" fill="none" stroke="#ff7baa" stroke-width="0.25" stroke-miterlimit="10"/><g id="eyIZ3sYJjSc16_to" transform="translate(219.673004,86.927425)"><path d="M222.138,95.0648c15.063-4.5638,26.171-11.9096,24.812-16.3934-1.358-4.4839-14.678-4.4401-29.742.1238-15.063,4.5639-26.171,11.9096-24.812,16.3935c1.358,4.4838,14.675,4.4295,29.738-.1343l.004.0104Zm-3.136-10.3505c0,0,16.552-5.0149,17.221-2.8044.74,2.441-15.812,7.4559-15.812,7.4559s-16.589,4.8545-17.281,2.5707s15.872-7.2222,15.872-7.2222Z" transform="translate(-219.673004,-86.927425)" fill="#fff4cb"/></g><g id="eyIZ3sYJjSc17_to" transform="translate(117.157867,163.589088)"><path d="M68.6754,147.84c32.3676-43.194,83.7346,16.738,100.6996,39.011c1.922,2.525-.462,6.056-3.522,5.21l-14.981-4.155c-1.468-.409-3.04-.19-4.347.589l-4.882,2.925c-25.704,12.155-32.822-14.46-32.822-14.46s-2.459,2.864-6.043,4.662c-3.2688,1.63-6.8976,2.415-10.5372,2.216-13.9397-.766-21.144-5.952-24.7944-11.733-4.7404-7.493-4.1008-17.172,1.205-24.259l.024-.006Z" transform="translate(-117.157867,-163.589088)" fill="#fff"/></g></svg>
