<svg id="eoHgQjAt7ew1" xmlns="http://www.w3.org/2000/svg" xmlns:xlink="http://www.w3.org/1999/xlink" viewBox="0 0 566 231" shape-rendering="geometricPrecision" text-rendering="geometricPrecision">
<style><![CDATA[
#eoHgQjAt7ew2_to {animation: eoHgQjAt7ew2_to__to 3000ms linear infinite normal forwards}@keyframes eoHgQjAt7ew2_to__to { 0% {transform: translate(169.787621px,39.973963px)} 6.666667% {transform: translate(169.787621px,35.973963px)} 13.333333% {transform: translate(169.787621px,31.973963px)} 20% {transform: translate(169.787621px,27.973963px)} 26.666667% {transform: translate(169.787621px,23.973963px)} 33.333333% {transform: translate(169.787621px,20.973963px)} 40% {transform: translate(169.787621px,16.973963px)} 46.666667% {transform: translate(169.787621px,20.973963px)} 53.333333% {transform: translate(169.787621px,24.973963px)} 60% {transform: translate(169.787621px,28.973963px)} 66.666667% {transform: translate(169.787621px,31.973963px)} 73.333333% {transform: translate(169.787621px,35.973963px)} 80% {transform: translate(169.787621px,40.973963px)} 86.666667% {transform: translate(169.787621px,46.973963px)} 93.333333% {transform: translate(169.787621px,50.973963px)} 100% {transform: translate(169.787621px,56.973963px)}} #eoHgQjAt7ew19_to {animation: eoHgQjAt7ew19_to__to 3000ms linear infinite normal forwards}@keyframes eoHgQjAt7ew19_to__to { 0% {transform: translate(315.964127px,43.981592px)} 6.666667% {transform: translate(315.964127px,39.981592px)} 13.333333% {transform: translate(315.964127px,35.981592px)} 20% {transform: translate(315.964127px,31.981592px)} 26.666667% {transform: translate(315.964127px,27.981592px)} 33.333333% {transform: translate(315.964127px,24.981592px)} 40% {transform: translate(315.964127px,20.981592px)} 46.666667% {transform: translate(315.964127px,24.981592px)} 53.333333% {transform: translate(315.964127px,28.981592px)} 60% {transform: translate(315.964127px,32.981592px)} 66.666667% {transform: translate(315.964127px,35.981592px)} 73.333333% {transform: translate(315.964127px,39.981592px)} 80% {transform: translate(315.964127px,44.981592px)} 86.666667% {transform: translate(315.964127px,50.981592px)} 93.333333% {transform: translate(315.964127px,54.981592px)} 100% {transform: translate(315.964127px,60.981592px)}} #eoHgQjAt7ew20_to {animation: eoHgQjAt7ew20_to__to 3000ms linear infinite normal forwards}@keyframes eoHgQjAt7ew20_to__to { 0% {transform: translate(38.5px,21.5px)} 6.666667% {transform: translate(38.5px,17.5px)} 13.333333% {transform: translate(38.5px,13.5px)} 20% {transform: translate(38.5px,9.5px)} 26.666667% {transform: translate(38.5px,5.5px)} 33.333333% {transform: translate(38.5px,2.5px)} 40% {transform: translate(38.5px,-1.5px)} 46.666667% {transform: translate(38.5px,2.5px)} 53.333333% {transform: translate(38.5px,6.5px)} 60% {transform: translate(38.5px,10.5px)} 66.666667% {transform: translate(38.5px,13.5px)} 73.333333% {transform: translate(38.5px,17.5px)} 80% {transform: translate(38.5px,22.5px)} 86.666667% {transform: translate(38.5px,28.5px)} 93.333333% {transform: translate(38.5px,32.5px)} 100% {transform: translate(38.5px,38.5px)}}
]]></style>
<g id="eoHgQjAt7ew2_to" transform="translate(169.787621,39.973963)"><path d="M128.268,14.6896c40.712-35.4391,78.357,33.938,90.27,59.2762c1.349,2.872-1.723,5.8239-4.537,4.3543l-13.775-7.2063c-1.349-.7076-2.933-.8235-4.374-.3361l-5.387,1.8356c-27.682,6.49-29.057-21.0269-29.057-21.0269s-3.005,2.2843-6.886,3.2904c-3.538.9073-7.251.9134-10.768-.0449-13.469-3.6743-19.424-10.2569-21.78-16.675-3.062-8.3211-.406-17.6501,6.269-23.4655l.025-.0018Z" transform="translate(-169.787621,-41.760344)" fill="#fff"/></g><path d="M59.2573,112.736c3.2518,3.189,6.5186,6.378,10.1031,9.912v-11.858c3.5694,3.743,6.5942,6.902,10.0577,10.525v-12.083c3.4635,3.264,6.3523,5.989,9.6494,9.089v-11.484c3.8567,3.773,7.5924,7.411,11.6005,11.319c0,0-24.1538,15.736-41.4258,7.801c0-4.417,0-8.819,0-13.236l.0151.015Z" fill="#fff4cb"/><path d="M226.033,162.055c-15.411,12.936-21.446,30.529-26.513,48.57-1.618,5.78-2.662,11.739-3.826,17.638-.318,1.632-.998,1.976-2.556,1.766-5.279-.718-9.71-3.069-13.415-6.752-6.61-6.573-9.907-14.898-12.266-23.626-2.677-9.882-4.054-19.959-4.326-30.185-.181-6.647-.091-13.295-.106-19.943c0-.689.136-1.377.272-2.65c20.978,5.061,41.744,10.076,62.736,15.152v.03Z" fill="#0e6092"/><path d="M278.773,63.537c-20.615-5.3302-59.59-10.7502-59.454-11.2143c3.766-12.6366,9.543-25.947,19.223-35.3646c6.186-6.0189,13.642-9.32781,22.308-9.94167.787-.05989,1.573.05989,2.692.1048C260.381,28.891,264.858,46.6332,278.788,63.522l-.015.015Z" fill="#0e6092"/><path d="M414.711,117.527c-12.387-3.204-35.8-6.453-35.709-6.737c2.269-7.591,5.732-15.5867,11.54-21.2462c3.706-3.6083,8.198-5.5996,13.4-5.959.469-.0299.953.03,1.619.0599-1.906,13.0709.786,23.7313,9.15,33.8673v.015Z" fill="#0e6092"/><path d="M425.449,105.399c-11.298,5.944-33.319,14.464-33.183,14.718c3.978,6.873,9.211,13.85,16.183,18.027c4.447,2.665,9.272,3.578,14.414,2.74.469-.075.907-.255,1.558-.434-4.901-12.293-4.764-23.267,1.013-35.051h.015Z" fill="#0e6092"/><path d="M382.435,134.146c-11.297,5.944-33.319,14.464-33.182,14.718c3.977,6.873,9.21,13.85,16.183,18.027c4.446,2.665,9.271,3.578,14.413,2.74.469-.075.908-.255,1.558-.434-4.9-12.293-4.764-23.267,1.013-35.051h.015Z" fill="#0e6092"/><path d="M459.025,99.9645c-28.872,32.9395-76.212,59.9645-93.68,67.5255-7.82,3.383-16.365,5.135-24.396,8.085-23.004,8.414-46.734,12.831-71.221,13.52-.862.015-18.996.09-19.949,0-9.12-.749-18.255-1.228-27.33-2.246-20.902-2.351-41.259-7.232-61.269-13.55-28.116-8.879-54.871-20.886-80.6277-35.065-6.9572-3.818-13.7329-7.936-21.1288-12.218c3.7509-.628,6.8967-.928,9.8914-1.721c6.8211-1.812,13.6875-3.564,20.3272-5.915c5.9892-2.126,10.1635-6.692,13.7329-11.932-.681-.42-1.013-.719-1.422-.869-9.2861-3.473-18.6783-6.2583-28.8117-5.046-8.3184,1.004-15.0638,4.492-19.5104,11.664-.9831,1.587-2.1931,2.096-3.9172,2.231-9.3167.703-17.499-2.081-24.8494-7.621-5.9741-4.492-10.8139-9.9418-14.92778-15.9756c10.31488-1.9165,20.84138-3.234,31.53438-3.8928c0,0,.0151,0,.0302,0c5.5053-.3444,11.056-.524,16.6671-.524s11.1769.1796,16.6822.524h.0151c21.8396,1.3774,42.9385,5.405,62.9775,11.7982c3.464,1.1079,6.882,2.2762,10.27,3.5032c3.872.899,7.91,1.363,12.069,1.363c4.371,0,8.636-.524,12.705-1.512.529-.03,1.058-.045,1.588-.06c2.813-.33,5.687-.509,8.606-.509c1.693,0,3.372.06,5.036.179c6.171.435,12.115,1.647,17.756,3.549.03,0,.06.015.091.03c7.305,1.991,14.081,5.12,20.085,10.031.015.015.045.045.06.06.53.419,1.029.853,1.528,1.303c6.246,5.584,13.219,9.836,20.766,12.876.726.299,1.467.584,2.193.853c0,0,.015,0,.03,0c7.033,1.992,14.202,3.668,21.492,4.986c0,0,.015,0,.03,0c13.189,2.381,26.77,3.638,40.639,3.638c28.57,0,55.885-5.27,81.022-14.897l65.216-24.1954v.0299Z" fill="#00dee1"/><path d="M0,73.2992c0,0,2.61652-.8983,3.29712-1.078C42.5752,62.04,82.5187,55.8415,122.946,52.5925c14.58-1.1678,29.22-2.0362,43.831-2.0063c18.92.0599,37.901.6139,56.761,1.9763c16.063,1.1529,32.079,3.3389,47.99,5.8093c25.727,3.9976,50.773,10.7052,75.274,19.509c11.026,3.9527,22.052,8.0102,33.304,11.2292c14.081,4.0276,28.6,5.6895,43.271,6.1387c7.608.2395,15.23.4342,22.823.3743c8.439-.0749,16.879-.4791,25.303-1.5422c1.603-.1946,3.206-.3593,4.794-.539L393.779,124.16c-25.137,9.627-52.452,14.898-81.022,14.898-13.869,0-27.466-1.243-40.639-3.639c0,0-.015,0-.03,0-7.29-1.317-14.459-2.979-21.492-4.985c0,0-.015,0-.03,0-.741-.27-1.467-.554-2.193-.854-7.547-3.054-14.52-7.306-20.766-12.891-.514-.449-1.013-.883-1.528-1.303-.015-.015-.045-.044-.06-.059-6.005-4.911-12.78-8.041-20.085-10.032-.031,0-.061-.015-.091-.03-5.626-1.901-11.585-3.114-17.756-3.548-1.664-.12-3.343-.18-5.037-.18-2.919,0-5.792.18-8.605.509-.53.015-1.059.03-1.588.06-4.069.988-8.319,1.512-12.705,1.512-4.144,0-8.197-.464-12.069-1.362-3.388-1.243-6.821-2.4108-10.27-3.5038C117.774,92.359,96.6751,88.3165,74.8355,86.954h-.0151c-5.5204-.3444-11.0862-.524-16.6823-.524s-11.1466.1796-16.667.524c0,0-.0152,0-.0303,0-10.6929.6737-21.2195,1.9763-31.53432,3.8928l-3.43324-5.39L0,73.2992Z" fill="#0e6092"/><path d="M69.9352,81.1743c3.8841,0,7.0328-3.1171,7.0328-6.9622s-3.1487-6.9621-7.0328-6.9621-7.0329,3.1171-7.0329,6.9621s3.1488,6.9622,7.0329,6.9622Z" fill="#fff4cb"/><path d="M226.034,114.907c16.47,4.971,61.647,14.463,96.554,14.553c0,0,.862,1.363,2.828,3.848c23.443,29.585,52.724,50.906,89.612,61.297l.106.03c1.981.554,1.679,3.428-.378,3.578-.499.03-.998.06-1.513.09-15.971.913-31.957.704-47.883-.569-25.818-2.051-51.151-6.483-75.244-16.38-20.131-8.279-57.095-34.137-64.097-66.462l.015.015Z" fill="#0e6092"/><path d="M516.604,39.5512c-3.645,24.8691-1.663,49.1243,11.964,71.1638c8.212,13.265,20.04,23.087,33.077,31.531c1.316.854,2.647,1.677,4.356,2.755-30.718-.509-58.91-7.082-83.003-26.351-8.031-6.423-16.213-12.637-24.32-18.9399-.696-.539-1.346-1.123-2.208-1.8416c1.679-2.5603,3.251-5.0158,4.87-7.4413c9.876-14.8076,19.419-29.8548,29.765-44.3331c8.999-12.5767,20.221-23.2819,31.836-33.508.258-.2246-4.991,17.6823-6.352,26.9801l.015-.015Z" fill="#0e6092"/><path d="M160.425,120.222l-3.373,3.534-2.148,8.444l1.694,2.785" fill="none" stroke="#0e6092" stroke-width="5" stroke-miterlimit="10"/><path d="M167.246,121l-3.781,3.938-2.39,9.433l1.891,3.114" fill="none" stroke="#0e6092" stroke-width="5" stroke-miterlimit="10"/><path d="M174.067,121.765l-4.174,4.357-2.647,10.42l2.087,3.444" fill="none" stroke="#0e6092" stroke-width="5" stroke-miterlimit="10"/><path d="M180.887,122.528l-4.582,4.761-2.889,11.424l2.299,3.773" fill="none" stroke="#0e6092" stroke-width="5" stroke-miterlimit="10"/><path d="M187.694,123.292l-4.961,5.18-3.146,12.427l2.495,4.102" fill="none" stroke="#0e6092" stroke-width="5" stroke-miterlimit="10"/><g id="eoHgQjAt7ew19_to" transform="translate(315.964127,43.981592)"><path d="M349.594,9.2541c-46.503-27.4008-70.833,47.6884-77.915,74.7772-.801,3.0701,2.759,5.4108,5.257,3.4515l12.226-9.6027c1.197-.9422,2.733-1.3455,4.239-1.1299l5.632.8201c28.402,1.3209,24.723-25.9837,24.723-25.9837s3.373,1.6965,7.373,1.9762c3.644.2454,7.295-.4273,10.578-2.0122c12.57-6.0742,17.222-13.6344,18.365-20.375c1.49-8.7407-2.827-17.4269-10.453-21.92436l-.025.00286Z" transform="translate(-315.964127,-45.767973)" fill="#fff"/></g><g id="eoHgQjAt7ew20_to" transform="translate(38.5,21.5)"><path d="M38.5,30C54.2396,30,67,26.1906,67,21.5055C67,16.8203,54.2396,13,38.5,13s-28.5,3.8094-28.5,8.4945c0,4.6852,12.7604,8.4946,28.5,8.4946v.0109Zm0-10.8152c0,0,17.295,0,17.295,2.3097c0,2.5506-17.295,2.5506-17.295,2.5506s-17.284-.1642-17.284-2.5506c0-2.3863,17.284-2.3097,17.284-2.3097Z" transform="translate(-38.5,-21.5)" fill="#fff4cb"/></g></svg>
