<svg id="eAQdTHNrwF81" xmlns="http://www.w3.org/2000/svg" xmlns:xlink="http://www.w3.org/1999/xlink" viewBox="0 0 600 600" shape-rendering="geometricPrecision" text-rendering="geometricPrecision">
<style><![CDATA[
#eAQdTHNrwF84_ts {animation: eAQdTHNrwF84_ts__ts 5000ms linear infinite normal forwards}@keyframes eAQdTHNrwF84_ts__ts { 0% {transform: translate(300.000011px,307.550011px) scale(1,1)} 30% {transform: translate(300.000011px,307.550011px) scale(1.28755,1.28755)} 100% {transform: translate(300.000011px,307.550011px) scale(1.28755,1.28755)}} #eAQdTHNrwF85_tr {animation: eAQdTHNrwF85_tr__tr 5000ms linear infinite normal forwards}@keyframes eAQdTHNrwF85_tr__tr { 0% {transform: translate(200.620777px,400.649994px) rotate(0deg)} 20% {transform: translate(200.620777px,400.649994px) rotate(12.208287deg)} 40% {transform: translate(200.620777px,400.649994px) rotate(-2.831701deg)} 60% {transform: translate(200.620777px,400.649994px) rotate(25.646237deg)} 80% {transform: translate(200.620777px,400.649994px) rotate(-2.831701deg)} 100% {transform: translate(200.620777px,400.649994px) rotate(8.573287deg)}} #eAQdTHNrwF88_to {animation: eAQdTHNrwF88_to__to 5000ms linear infinite normal forwards}@keyframes eAQdTHNrwF88_to__to { 0% {transform: translate(414.349686px,245.800003px)} 52.8% {transform: translate(414.349686px,245.800003px)} 80% {transform: translate(514.218041px,189.4px)} 100% {transform: translate(514.218041px,189.4px)}} #eAQdTHNrwF88 {animation: eAQdTHNrwF88_c_o 5000ms linear infinite normal forwards}@keyframes eAQdTHNrwF88_c_o { 0% {opacity: 1} 68% {opacity: 1} 80% {opacity: 0.47} 100% {opacity: 0.47}} #eAQdTHNrwF812_tr {animation: eAQdTHNrwF812_tr__tr 5000ms linear infinite normal forwards}@keyframes eAQdTHNrwF812_tr__tr { 0% {transform: translate(411.884186px,325.450012px) rotate(-5.574334deg)} 12% {transform: translate(411.884186px,325.450012px) rotate(-5.574334deg)} 32% {transform: translate(411.884186px,325.450012px) rotate(-12.275571deg)} 40% {transform: translate(411.884186px,325.450012px) rotate(-11.995403deg)} 100% {transform: translate(411.884186px,325.450012px) rotate(-11.995403deg)}} #eAQdTHNrwF822_ts {animation: eAQdTHNrwF822_ts__ts 5000ms linear infinite normal forwards}@keyframes eAQdTHNrwF822_ts__ts { 0% {transform: translate(177.100006px,363.100006px) scale(1,1)} 20% {transform: translate(177.100006px,363.100006px) scale(1.300851,1.300852)} 40% {transform: translate(177.100006px,363.100006px) scale(1,1)} 60% {transform: translate(177.100006px,363.100006px) scale(1.300851,1.300852)} 80% {transform: translate(177.100006px,363.100006px) scale(1,1)} 100% {transform: translate(177.100006px,363.100006px) scale(1,1)}} #eAQdTHNrwF828_to {animation: eAQdTHNrwF828_to__to 5000ms linear infinite normal forwards}@keyframes eAQdTHNrwF828_to__to { 0% {transform: translate(230.812614px,295.904999px)} 20% {transform: translate(230.812634px,336.10198px)} 40% {transform: translate(230.812614px,295.904999px)} 60% {transform: translate(230.812634px,336.10198px)} 80% {transform: translate(230.812614px,295.904999px)} 100% {transform: translate(230.812634px,336.10198px)}} #eAQdTHNrwF828 {animation: eAQdTHNrwF828_c_o 5000ms linear infinite normal forwards}@keyframes eAQdTHNrwF828_c_o { 0% {opacity: 1} 20% {opacity: 0} 40% {opacity: 1} 60% {opacity: 0} 80% {opacity: 1} 100% {opacity: 0}} #eAQdTHNrwF830_ts {animation: eAQdTHNrwF830_ts__ts 5000ms linear infinite normal forwards}@keyframes eAQdTHNrwF830_ts__ts { 0% {transform: translate(239.199997px,240.399994px) scale(1,1)} 68% {transform: translate(239.199997px,240.399994px) scale(1,1)} 100% {transform: translate(239.199997px,240.399994px) scale(0.9,0.9)}} #eAQdTHNrwF830 {animation: eAQdTHNrwF830_c_o 5000ms linear infinite normal forwards}@keyframes eAQdTHNrwF830_c_o { 0% {opacity: 1} 78% {opacity: 1} 100% {opacity: 0}}
]]></style>
<g><rect width="599.6" height="599.6" rx="0" ry="0" fill="#ffc4e1"/><g id="eAQdTHNrwF84_ts" transform="translate(300.000011,307.550011) scale(1,1)"><path d="M557.2,600h-514.4v-562.4c0-12.4,10.1-22.5,22.5-22.5h469.4c12.4,0,22.5,10.1,22.5,22.5v562.4Z" transform="translate(-300.000011,-307.550011)"/></g></g><g id="eAQdTHNrwF85_tr" transform="translate(200.620777,400.649994) rotate(0)"><g transform="translate(-200.620777,-400.649994)"><path d="M293.4,281.8c-46,28.6-109.9,42.2-175.6,54.3-21,3.9-42.7,6.8-64.3,9.9-5.9.9-7.2,2.1-6.3,4.7c3.1,8.8,12.1,15.8,25.9,21.3c24.7,9.9,55.4,13.8,87.6,16.1c36.4,2.6,73.5,2.9,110.9,1.4c24.3-1,48.7-2.5,73-3.7c2.5-.1,5.1-.5,9.7-1-20.1-34.4-40.4-68.6-60.9-103Z" fill="#006295"/><path d="M311.4,404.7c-51.6,16.5-116.9,14.3-183.5,10.1-21.4-1.3-43.1-3.8-64.7-6-6-.6-7.5.3-7.2,3c.9,9.3,7.9,18.3,20,27c21.5,15.6,50.4,26.9,81.1,36.9c34.7,11.3,70.6,20.7,107.3,28.3c23.9,4.9,47.8,9.5,71.8,14.1c2.5.5,5,.7,9.6,1.4-11.5-38.4-22.9-76.4-34.4-114.8Z" fill="#006295"/></g></g><g id="eAQdTHNrwF88_to" transform="translate(414.349686,245.800003)"><g id="eAQdTHNrwF88" transform="translate(-414.349686,-245.800003)"><path d="M419.5,335c0,0,139.1-86.7,97.4-178.4c0,0-91.3,60.4-212.9,25.7c0,0,107.9,140.6,115.5,152.7Z" fill="#0d6092"/></g></g><g><path d="M378.4,94.8h-136.1c-6.6,0-12-5.4-12-12v-37.4c0-6.6,5.4-12,12-12h136.1c6.6,0,12,5.4,12,12v37.4c0,6.6-5.4,12-12,12Z" fill="#fff4cb"/><g id="eAQdTHNrwF812_tr" transform="translate(411.884186,325.450012) rotate(-5.574334)"><g transform="translate(-411.884185,-325.450012)"><path d="M545.2,548.9h-92.2c-6.6,0-12-5.4-12-12v-84.6c0-6.6,5.4-12,12-12h92.1c6.6,0,12,5.4,12,12v84.6c.1,6.6-5.3,12-11.9,12Z" fill="#fff4cb"/><path d="M269.5,102c0,0,314.8,384.7,249.3,375.8s-55.1-40-55.1-40L283.5,183.7c0,0-25.1-58.9-14-81.7Z" fill="#ff7baa"/></g></g><path d="M416,600c0-226.8-134.2-464.3-278.3-410.6L103.6,600" fill="#0d6092"/><path d="M103.6,600l34.1-410.6c0,0,57.9,43.4,87.4,100.6s-3.3,42.9-8.6,104.7s31.3,205.3,31.3,205.3h-144.2Z" fill="#00dee1"/><g><path d="M110.3,519.5c0,0,191.7,35.9,300.3,0" fill="none" stroke="#fff3c5" stroke-width="3" stroke-miterlimit="10"/><path d="M108.4,538.2c0,0,194.6,36.4,304.8,0" fill="none" stroke="#fff3c5" stroke-width="3" stroke-miterlimit="10"/><path d="M106.5,556.9c0,0,197.5,37,309.3,0" fill="none" stroke="#fff3c5" stroke-width="3" stroke-miterlimit="10"/><path d="M104.6,575.6c0,0,200.3,37.5,313.8,0" fill="none" stroke="#fff3c5" stroke-width="3" stroke-miterlimit="10"/></g><g id="eAQdTHNrwF822_ts" transform="translate(177.100006,363.100006) scale(1,1)"><g transform="translate(-177.100006,-363.100006)"><polyline points="199.1,345.3 193.4,339.3 179.1,335 174.2,337.7" fill="none" stroke="#006295" stroke-miterlimit="10"/><polyline points="197.3,356.8 190.8,350.1 174.9,345.3 169.4,348.2" fill="none" stroke="#006295" stroke-miterlimit="10"/><polyline points="195.4,368.3 188.3,360.9 170.7,355.6 164.7,358.8" fill="none" stroke="#006295" stroke-miterlimit="10"/><polyline points="193.6,379.7 185.8,371.6 166.5,365.8 159.9,369.4" fill="none" stroke="#006295" stroke-miterlimit="10"/><polyline points="191.7,391.2 183.3,382.4 162.3,376.1 155.1,379.9" fill="none" stroke="#006295" stroke-miterlimit="10"/></g></g></g><g id="eAQdTHNrwF828_to" transform="translate(230.812614,295.904999)"><g id="eAQdTHNrwF828" transform="translate(-230.812614,-295.904999)"><path d="M242.5,297.3c-.6,8-3.8,15.8-9.5,21.5-4.2,4.1-8.5,6-11.7,4.5-4.3-2-5.4-9.5-3.1-18.5c1.2-4.9,3.7-9.4,6.9-13.3L244.6,268l-2.1,29.3Z" fill="#fff3c5"/></g></g><g id="eAQdTHNrwF830_ts" transform="translate(239.199997,240.399994) scale(1,1)"><g id="eAQdTHNrwF830" transform="translate(-239.199997,-240.399994)"><circle r="11.3" transform="translate(239.2 240.4)" fill="#fff3c5"/></g></g></svg>
