<svg id="efLpCtXGbzP1" xmlns="http://www.w3.org/2000/svg" xmlns:xlink="http://www.w3.org/1999/xlink" viewBox="0 0 1200 1200" shape-rendering="geometricPrecision" text-rendering="geometricPrecision">
<style><![CDATA[
#efLpCtXGbzP69_ts {animation: efLpCtXGbzP69_ts__ts 5000ms linear infinite normal forwards}@keyframes efLpCtXGbzP69_ts__ts { 0% {transform: translate(400.990036px,122.598362px) scale(1,1)} 30% {transform: translate(400.990036px,122.598362px) scale(1.378594,1.378594)} 60% {transform: translate(400.990036px,122.598362px) scale(1,1)} 100% {transform: translate(400.990036px,122.598362px) scale(1,1)}} #efLpCtXGbzP69 {animation: efLpCtXGbzP69_c_o 5000ms linear infinite normal forwards}@keyframes efLpCtXGbzP69_c_o { 0% {opacity: 1} 30% {opacity: 1} 60% {opacity: 0} 80% {opacity: 1} 100% {opacity: 1}} #efLpCtXGbzP71 {animation: efLpCtXGbzP71_c_o 5000ms linear infinite normal forwards}@keyframes efLpCtXGbzP71_c_o { 0% {opacity: 1} 20% {opacity: 0} 40% {opacity: 1} 60% {opacity: 0} 80% {opacity: 1} 100% {opacity: 0}} #efLpCtXGbzP95_to {animation: efLpCtXGbzP95_to__to 5000ms linear infinite normal forwards}@keyframes efLpCtXGbzP95_to__to { 0% {transform: translate(856.036566px,705.399985px)} 20% {transform: translate(758.776205px,792.299973px)} 40% {transform: translate(856.036566px,705.399985px)} 60% {transform: translate(758.776205px,792.299973px)} 80% {transform: translate(876.236566px,758.437241px)} 100% {transform: translate(758.776205px,792.299973px)}} #efLpCtXGbzP95_tr {animation: efLpCtXGbzP95_tr__tr 5000ms linear infinite normal forwards}@keyframes efLpCtXGbzP95_tr__tr { 0% {transform: rotate(0deg)} 20% {transform: rotate(-25.751386deg)} 40% {transform: rotate(0deg)} 60% {transform: rotate(-37.09326deg)} 80% {transform: rotate(0deg)} 100% {transform: rotate(-36.496138deg)}} #efLpCtXGbzP134_to {animation: efLpCtXGbzP134_to__to 5000ms linear infinite normal forwards}@keyframes efLpCtXGbzP134_to__to { 0% {transform: translate(976.350006px,805.799988px)} 14% {transform: translate(929.050006px,805.799988px)} 30% {transform: translate(976.350006px,805.799988px)} 46% {transform: translate(1016.350006px,805.799988px)} 60% {transform: translate(976.350006px,805.799988px)} 76% {transform: translate(993.220154px,791.740906px)} 90% {transform: translate(934.010071px,791.740906px)} 100% {transform: translate(976.350006px,805.799988px)}}
]]></style>
<defs><filter id="efLpCtXGbzP71-filter" x="-150%" width="400%" y="-150%" height="400%"><feColorMatrix id="efLpCtXGbzP71-filter-hue-rotate-0" type="hueRotate" values="-360" result="result"/></filter></defs><g><rect width="1200" height="1200" rx="0" ry="0" fill="#ffc4e1"/><rect width="323.4" height="111.2" rx="0" ry="0" transform="translate(813.3 805.2)" fill="#ff7baa"/><path d="M1033.2,1076.3h-111c-6.6,0-12-5.4-12-12v-149.8c0-6.6,5.4-12,12-12h111c6.6,0,12,5.4,12,12v149.9c0,6.5-5.4,11.9-12,11.9Z" fill="#fff4cb"/><path d="M1198.3,1200h-386.7v-161.9c0-6.6,5.4-12,12-12h362.7c6.6,0,12,5.4,12,12v161.9Z" fill="#00dee1"/><path d="M840.3,721.5c0,0-59.5-140.7,30-197.2c0,0,36.9,95.2,156.1,125.6.1,0-172.5,65.2-186.1,71.6Z" fill="#0d6092"/><path d="M1109.9,709.2c0,0,59.5-140.7-30-197.2c0,0-36.9,95.2-156.1,125.6-.1,0,172.5,65.2,186.1,71.6Z" fill="#0d6092"/><ellipse rx="161.7" ry="211.7" transform="translate(975 810.4)" fill="#fff4cb"/><g><g><g><path d="M946.1,727.9c12.6-20.8,42.9-20,54.3,1.5c20.3,38.4,56.4,75.8,119.6,75.8c5.3,0,10.9-.3,16.7,0C1132.3,693.5,1061.4,606,975,606s-157.3,87.5-161.7,199.2c76.6,1.6,110-39.7,132.8-77.3Z" fill="#ff7baa"/></g></g></g><path d="M1032.2,902.5c0,31.6-25.6,57.2-57.2,57.2s-57.2-25.6-57.2-57.2" fill="#ff7baa"/><path d="M1136.7,805.2c0-116.9-72.4-211.7-161.7-211.7s-161.7,94.8-161.7,211.7m16.7,0c0-104.8,64.9-189.8,145-189.8c79.7,0,144.4,84.1,145,188.2c0,.5,0,1,0,1.6" fill="#00dee1"/><g><g><path d="M404.5,201c-17.8-9.2-26.3-21.9-26.3-21.9-20.2,20.1-6.4,50.7.9,63.5c3.4-18,12.4-33.2,25.4-41.6Z" fill="#3061ac"/><path d="M360.4,306.5c3.3-18.1,12.4-33.2,25.3-41.7-17.8-9.2-26.3-21.9-26.3-21.9-20.2,20.2-6.4,50.7,1,63.6Z" fill="#3061ac"/><path d="M341.6,370.3c3.3-18.1,12.4-33.2,25.3-41.7-17.8-9.2-26.3-21.9-26.3-21.9-20.2,20.2-6.4,50.8,1,63.6Z" fill="#3061ac"/><path d="M322.8,434.1c3.3-18.1,12.4-33.2,25.3-41.7-17.8-9.2-26.3-21.9-26.3-21.9-20.2,20.2-6.4,50.8,1,63.6Z" fill="#3061ac"/><path d="M304,497.9c3.3-18.1,12.4-33.2,25.3-41.7-17.8-9.2-26.3-21.9-26.3-21.9-20.2,20.2-6.4,50.8,1,63.6Z" fill="#3061ac"/><path d="M285.2,561.8c3.3-18.1,12.4-33.2,25.3-41.7-17.8-9.2-26.3-21.9-26.3-21.9-20.2,20.2-6.4,50.7,1,63.6Z" fill="#3061ac"/><path d="M266.4,625.6c3.3-18.1,12.4-33.2,25.3-41.7-17.8-9.2-26.3-21.9-26.3-21.9-20.2,20.2-6.4,50.8,1,63.6Z" fill="#3061ac"/><path d="M247.6,689.4c3.3-18.1,12.4-33.2,25.3-41.7-17.8-9.2-26.3-21.9-26.3-21.9-20.2,20.2-6.4,50.8,1,63.6Z" fill="#3061ac"/><path d="M228.8,753.2c3.3-18.1,12.4-33.2,25.3-41.7-17.8-9.2-26.3-21.9-26.3-21.9-20.2,20.2-6.4,50.8,1,63.6Z" fill="#3061ac"/><path d="M210,817.1c3.3-18.1,12.4-33.2,25.3-41.7-17.8-9.2-26.3-21.9-26.3-21.9-20.2,20.2-6.4,50.7,1,63.6Z" fill="#3061ac"/><path d="M191.2,880.9c3.3-18.1,12.4-33.2,25.3-41.7-17.8-9.2-26.3-21.9-26.3-21.9-20.2,20.2-6.4,50.8,1,63.6Z" fill="#3061ac"/><path d="M172.4,944.7c3.3-18.1,12.4-33.2,25.3-41.7-17.8-9.2-26.3-21.9-26.3-21.9-20.2,20.2-6.4,50.8,1,63.6Z" fill="#3061ac"/><path d="M153.6,1008.5c3.3-18.1,12.4-33.2,25.3-41.7-17.8-9.2-26.3-21.9-26.3-21.9-20.2,20.2-6.4,50.8,1,63.6Z" fill="#3061ac"/><path d="M134.8,1072.4c3.3-18.1,12.4-33.2,25.3-41.7-17.8-9.2-26.3-21.9-26.3-21.9-20.2,20.2-6.4,50.7,1,63.6Z" fill="#3061ac"/><path d="M116,1136.2c3.3-18.1,12.4-33.2,25.3-41.7-17.8-9.2-26.3-21.9-26.3-21.9-20.2,20.2-6.4,50.7,1,63.6Z" fill="#3061ac"/><path d="M122.5,1158.3c-17.8-9.2-26.3-21.9-26.3-21.9-20.2,20.1-6.4,50.7.9,63.5c3.4-18,12.5-33.1,25.4-41.6Z" fill="#3061ac"/></g><g><path d="M405.6,201c17.8-9.2,26.3-21.9,26.3-21.9c20.2,20.1,6.4,50.7-.9,63.5-3.4-18-12.4-33.2-25.4-41.6Z" fill="#3061ac"/><path d="M449.8,306.5c-3.3-18.1-12.4-33.2-25.3-41.7c17.8-9.2,26.3-21.9,26.3-21.9c20.1,20.2,6.3,50.7-1,63.6Z" fill="#3061ac"/><path d="M468.6,370.3c-3.3-18.1-12.4-33.2-25.3-41.7c17.8-9.2,26.3-21.9,26.3-21.9c20.1,20.2,6.3,50.8-1,63.6Z" fill="#3061ac"/><path d="M487.4,434.1C484,416,475,400.9,462,392.5c17.8-9.2,26.3-21.9,26.3-21.9c20.2,20.1,6.4,50.7-.9,63.5Z" fill="#3061ac"/><path d="M506.2,497.9c-3.3-18.1-12.4-33.2-25.3-41.7c17.8-9.2,26.3-21.9,26.3-21.9c20.1,20.2,6.3,50.8-1,63.6Z" fill="#3061ac"/><path d="M525,561.8c-3.3-18.1-12.4-33.2-25.3-41.7c17.8-9.2,26.3-21.9,26.3-21.9c20.1,20.2,6.3,50.7-1,63.6Z" fill="#3061ac"/><path d="M543.8,625.6c-3.3-18.1-12.4-33.2-25.3-41.7c17.8-9.2,26.3-21.9,26.3-21.9c20.1,20.2,6.3,50.8-1,63.6Z" fill="#3061ac"/><path d="M562.6,689.4c-3.3-18.1-12.4-33.2-25.3-41.7c17.8-9.2,26.3-21.9,26.3-21.9c20.1,20.2,6.3,50.8-1,63.6Z" fill="#3061ac"/><path d="M581.4,753.2C578,735.2,569,720,556,711.6c17.8-9.2,26.3-21.9,26.3-21.9c20.2,20.1,6.4,50.7-.9,63.5Z" fill="#3061ac"/><path d="M600.2,817.1c-3.3-18.1-12.4-33.2-25.3-41.7c17.8-9.2,26.3-21.9,26.3-21.9c20.1,20.2,6.3,50.7-1,63.6Z" fill="#3061ac"/><path d="M619,880.9c-3.3-18.1-12.4-33.2-25.3-41.7c17.8-9.2,26.3-21.9,26.3-21.9c20.1,20.2,6.3,50.8-1,63.6Z" fill="#3061ac"/><path d="M637.8,944.7c-3.3-18.1-12.4-33.2-25.3-41.7c17.8-9.2,26.3-21.9,26.3-21.9c20.1,20.2,6.3,50.8-1,63.6Z" fill="#3061ac"/><path d="M656.6,1008.5c-3.3-18.1-12.4-33.2-25.3-41.7c17.8-9.2,26.3-21.9,26.3-21.9c20.1,20.2,6.3,50.8-1,63.6Z" fill="#3061ac"/><path d="M675.4,1072.4c-3.3-18.1-12.4-33.2-25.3-41.7c17.8-9.2,26.3-21.9,26.3-21.9c20.1,20.2,6.3,50.7-1,63.6Z" fill="#3061ac"/><path d="M694.2,1136.2c-3.3-18.1-12.4-33.2-25.3-41.7c17.8-9.2,26.3-21.9,26.3-21.9c20.1,20.2,6.3,50.7-1,63.6Z" fill="#3061ac"/><path d="M687.6,1158.3c17.8-9.2,26.3-21.9,26.3-21.9c20.2,20.1,6.4,50.7-.9,63.5-3.4-18-12.4-33.1-25.4-41.6Z" fill="#3061ac"/></g><g><polygon points="405.1,149.7 89.4,1199.5 720.8,1199.5" fill="#05d589"/><g><path d="M104.1,1149.9c0,0,354.3,77,601.9,0" fill="none" stroke="#ffc4e1" stroke-miterlimit="10"/><path d="M123.5,1085.3c0,0,331.5,72.4,563.1,0" fill="none" stroke="#ffc4e1" stroke-miterlimit="10"/><path d="M143,1020.8c0,0,308.7,67.7,524.4,0" fill="none" stroke="#ffc4e1" stroke-miterlimit="10"/><path d="M162.4,956.3c0,0,285.8,63.1,485.6,0" fill="none" stroke="#ffc4e1" stroke-miterlimit="10"/><path d="M181.8,891.7c0,0,263,58.4,446.8,0" fill="none" stroke="#ffc4e1" stroke-miterlimit="10"/><path d="M201.3,827.2c0,0,240.2,53.8,408,0" fill="none" stroke="#ffc4e1" stroke-miterlimit="10"/><path d="M220.7,762.6c0,0,217.4,49.1,369.2,0" fill="none" stroke="#ffc4e1" stroke-miterlimit="10"/><path d="M240.1,698.1c0,0,194.5,44.5,330.4,0" fill="none" stroke="#ffc4e1" stroke-miterlimit="10"/><path d="M259.6,633.6c0,0,171.7,39.8,291.7,0" fill="none" stroke="#ffc4e1" stroke-miterlimit="10"/><path d="M279,569c0,0,148.9,35.2,252.9,0" fill="none" stroke="#ffc4e1" stroke-miterlimit="10"/><path d="M298.4,504.5c0,0,126,30.5,214.1,0" fill="none" stroke="#ffc4e1" stroke-miterlimit="10"/><path d="M317.8,439.9c0,0,103.2,25.9,175.3,0" fill="none" stroke="#ffc4e1" stroke-miterlimit="10"/><path d="M337.3,375.4c0,0,80.4,21.2,136.5,0" fill="none" stroke="#ffc4e1" stroke-miterlimit="10"/><path d="M356.7,310.9c0,0,57.5,16.6,97.7,0" fill="none" stroke="#ffc4e1" stroke-miterlimit="10"/><path d="M376.1,246.3c0,0,34.7,11.9,59,0" fill="none" stroke="#ffc4e1" stroke-miterlimit="10"/></g></g></g></g><g id="efLpCtXGbzP69_ts" transform="translate(400.990036,122.598362) scale(1,1)"><g id="efLpCtXGbzP69" transform="translate(-400.990036,-122.598362)"><path d="M388.4,104.4l5.8-13.6c2-4.6,8.4-5,10.9-.6l7.3,12.9c1,1.7,2.8,2.9,4.8,3.1l14.8,1.3c5,.5,7.4,6.5,3.9,10.2l-10.1,10.9c-1.4,1.5-1.9,3.5-1.5,5.5l3.3,14.5c1.1,4.9-3.9,9-8.5,6.9l-13.5-6.2c-1.8-.8-3.9-.7-5.7.3l-12.7,7.6c-4.3,2.6-9.8-.9-9.2-5.9l1.7-14.7c.2-2-.5-4-2-5.3l-11.2-9.8c-3.8-3.3-2.1-9.6,2.8-10.6l14.5-2.9c2.2-.5,3.9-1.8,4.6-3.6Z" fill="#fff4cb"/></g></g><g id="efLpCtXGbzP71" filter="url(#efLpCtXGbzP71-filter)"><g><circle r="16.1" transform="translate(408.6 253.4)" fill="#fff4cb"/><circle r="16.1" transform="translate(380.7 317.4)" fill="#fff4cb"/><circle r="16.1" transform="translate(440.1 387.9)" fill="#fff4cb"/><circle r="16.1" transform="translate(396.8 457.2)" fill="#fff4cb"/><circle r="16.1" transform="translate(341.8 512)" fill="#fff4cb"/><circle r="16.1" transform="translate(490 583.9)" fill="#fff4cb"/><circle r="16.1" transform="translate(473.9 648.5)" fill="#fff4cb"/><circle r="16.1" transform="translate(389 721.5)" fill="#fff4cb"/><circle r="16.1" transform="translate(465.8 784.7)" fill="#fff4cb"/><circle r="16.1" transform="translate(250.7 835.5)" fill="#fff4cb"/><circle r="16.1" transform="translate(380.7 851.6)" fill="#fff4cb"/><circle r="16.1" transform="translate(565 910.4)" fill="#fff4cb"/><circle r="16.1" transform="translate(435.3 985.6)" fill="#fff4cb"/><circle r="16.1" transform="translate(544.6 1042.3)" fill="#fff4cb"/><circle r="16.1" transform="translate(330.1 1042.3)" fill="#fff4cb"/><circle r="16.1" transform="translate(195.8 1038.2)" fill="#fff4cb"/><circle r="16.1" transform="translate(627.5 1107.8)" fill="#fff4cb"/><circle r="16.1" transform="translate(440.1 1120.4)" fill="#fff4cb"/><circle r="16.1" transform="translate(250.7 1107.8)" fill="#fff4cb"/><circle r="16.1" transform="translate(157.6 1167)" fill="#fff4cb"/><circle r="16.1" transform="translate(330.1 1178.4)" fill="#fff4cb"/><circle r="16.1" transform="translate(595.3 1178.4)" fill="#fff4cb"/></g></g><g id="efLpCtXGbzP95_to" transform="translate(856.036566,705.399985)"><g id="efLpCtXGbzP95_tr" transform="rotate(0)"><g transform="translate(-854.081879,-702.899994)"><g><g><g><path d="M770,311.4c-41.5-15.3-63.9-41-63.9-41-37.2,50.5,2.7,114.4,22.7,140.8c1.3-41.1,15.9-77.3,41.2-99.8Z" fill="#3061ac"/></g><g><path d="M927,333.2c-1.1-28.9-10-112.6-75.2-127.4c0,0-.1,39.8-27.1,82.2c35.2-2.7,72.4,14.3,102.3,45.2Z" fill="#3061ac"/></g><g><g><g><path d="M927,333.2c.2,6.1.1,9.8.1,9.8-1.4-.1-4.9-.3-10-.5c18,17.8,33.3,41.1,43.5,68.4l11.9-4.4c-10.8-29-26.7-53.9-45.5-73.3Z" fill="#fff4cb"/></g><g><path d="M805.5,309.7c1.4-.5,2.8-.9,4.1-1.4c5.8-6.7,10.7-13.5,15-20.2-8.5.7-16.9,2.5-25.1,5.5-11,4.1-20.8,10.2-29.5,17.8c6.2,2.3,12.8,4.3,19.9,6c4.9-3.1,10-5.7,15.6-7.7Z" fill="#fff4cb"/></g><g><path d="M738.8,423.4c0,0-4.2-4.5-10-12.3-.9,25.8,3.5,53.5,13.7,80.9l11.9-4.4c-8.5-22.8-12.4-45.7-12.4-67.4-1.6,1.5-2.7,2.6-3.2,3.2Z" fill="#fff4cb"/></g><g><path d="M742,420.3c.1-44.6,17.4-83.5,47.9-102.9-7.1-1.7-13.7-3.7-19.9-6-25.3,22.5-39.9,58.7-41.3,99.8c5.9,7.7,10,12.3,10,12.3.6-.7,1.7-1.8,3.3-3.2Z" fill="#fff4cb"/></g><g><path d="M917.1,342.5c5,.2,8.5.3,10,.5c0,0,.1-3.7-.1-9.8-29.9-30.9-67-47.9-102.4-45.1-4.3,6.7-9.2,13.5-15,20.2c35.8-11.2,75.9,3,107.5,34.2Z" fill="#fff4cb"/></g></g></g></g></g><g><path d="M909.4,371.8c-1.5-.7-3.1-1.4-4.7-2-6.4-2.5-13-4.4-19.6-5.5c2.1,2.9,4.3,5.9,6.7,8.8c6.1-.2,12-.7,17.6-1.3Z" fill="none"/><path d="M872.4,343.9c-24.6-44.8-24.3-83.7-24.3-83.7-71.5,13.5-85.9,97.7-88.7,135.2c32.8-33.3,73.6-52.3,113-51.5Z" fill="#3061ac"/><path d="M993,483.2c21.3-25,78.1-101.8,32.4-164.6c0,0-30.8,33.2-87.1,47.8c32.9,25,52.3,67.9,54.7,116.8Z" fill="#3061ac"/><g><g><g><path d="M993,483.2c-4.5,5.3-7.5,8.3-7.5,8.3-1.1-1.2-4.1-4.1-8.3-8.1c2,28.8-2.5,60.1-14.7,90.7l13.8,5.5c12.9-32.5,18.1-65.6,16.7-96.4Z" fill="#ff7baa"/></g><g><path d="M904.8,369.8c1.6.6,3.1,1.3,4.7,2c10.2-1.2,19.8-3,28.7-5.3-8-6-16.7-11-26.2-14.8-12.8-5.1-26.1-7.6-39.5-7.8c3.7,6.7,7.9,13.5,12.8,20.4c6.5,1.1,13.1,2.9,19.5,5.5Z" fill="#ff7baa"/></g><g><path d="M758.7,413.4c0,0-.2-7,.7-18-20.7,20.9-38.2,47.4-50.4,78.2l13.8,5.5c10.1-25.6,24.4-47.8,41.1-65.9-2.5.1-4.3.1-5.2.2Z" fill="#ff7baa"/></g><g><path d="M763.9,413.3c34.5-37.2,79.6-56.3,121.3-49-4.9-6.9-9.1-13.7-12.8-20.4-39.4-.7-80.2,18.3-113,51.6-.8,11-.7,18-.7,18c.9-.2,2.7-.2,5.2-.2Z" fill="#ff7baa"/></g><g><path d="M977.2,483.4c4.3,4,7.2,6.9,8.3,8.1c0,0,2.9-3,7.5-8.3-2.3-48.9-21.7-91.8-54.8-116.8-8.9,2.3-18.5,4.2-28.7,5.3c39.9,18.3,64.1,61.2,67.7,111.7Z" fill="#ff7baa"/></g></g></g></g><g transform="translate(.000001 0)"><g transform="translate(.000001 0)"><path d="M679.8,497.3l113,37.4c0,0-40.113671,155.314148-38.399999,311.900009.981077,89.645444,39.931987,175.436709,77.249167,236.2l-18.777744,34.111894C812.871424,1116.911903,615.2,950.5,679.8,497.3Z" fill="#00dee1"/></g></g><path d="M777,562.9l-94.6-34.3c-13.7-4.9-20.5-21.1-15.1-35.9l18.2-50.2c5.4-14.8,20.9-22.8,34.6-17.9l94.6,34.3c13.7,4.9,20.5,21.1,15.1,35.9L811.6,545c-5.4,14.8-20.9,22.8-34.6,17.9Z" fill="#fff4cb"/></g></g></g><g id="efLpCtXGbzP134_to" transform="translate(976.350006,805.799988)"><g transform="translate(-976.350006,-805.799988)"><circle r="13.5" transform="translate(946 805.8)" fill="#ff7baa"/><circle r="13.5" transform="translate(1006.7 805.8)" fill="#ff7baa"/></g></g></svg>
