<svg id="epOsKJWbjCn1" xmlns="http://www.w3.org/2000/svg" xmlns:xlink="http://www.w3.org/1999/xlink" viewBox="0 0 600 600" shape-rendering="geometricPrecision" text-rendering="geometricPrecision">
<style><![CDATA[
#epOsKJWbjCn50 {animation: epOsKJWbjCn50_s_do 5000ms linear infinite normal forwards}@keyframes epOsKJWbjCn50_s_do { 0% {stroke-dashoffset: 1139} 50% {stroke-dashoffset: 1139} 100% {stroke-dashoffset: 0}} #epOsKJWbjCn51 {animation: epOsKJWbjCn51_s_do 5000ms linear infinite normal forwards}@keyframes epOsKJWbjCn51_s_do { 0% {stroke-dashoffset: 1139} 50% {stroke-dashoffset: 0} 100% {stroke-dashoffset: 0}} #epOsKJWbjCn52 {animation: epOsKJWbjCn52_s_do 5000ms linear infinite normal forwards}@keyframes epOsKJWbjCn52_s_do { 0% {stroke-dashoffset: 1139} 50% {stroke-dashoffset: 0} 100% {stroke-dashoffset: 0}} #epOsKJWbjCn53 {animation: epOsKJWbjCn53_s_do 5000ms linear infinite normal forwards}@keyframes epOsKJWbjCn53_s_do { 0% {stroke-dashoffset: 1139} 50% {stroke-dashoffset: 1139} 100% {stroke-dashoffset: 0}} #epOsKJWbjCn54 {animation: epOsKJWbjCn54_s_do 5000ms linear infinite normal forwards}@keyframes epOsKJWbjCn54_s_do { 0% {stroke-dashoffset: 1193} 50% {stroke-dashoffset: 0} 100% {stroke-dashoffset: 0}} #epOsKJWbjCn55 {animation: epOsKJWbjCn55_s_do 5000ms linear infinite normal forwards}@keyframes epOsKJWbjCn55_s_do { 0% {stroke-dashoffset: 1139.92} 50% {stroke-dashoffset: 0} 100% {stroke-dashoffset: 0}} #epOsKJWbjCn56_ts {animation: epOsKJWbjCn56_ts__ts 5000ms linear infinite normal forwards}@keyframes epOsKJWbjCn56_ts__ts { 0% {transform: translate(317.285015px,299.674995px) scale(1,1)} 40% {transform: translate(317.285015px,299.674995px) scale(1.256569,1.140801)} 70% {transform: translate(317.285015px,299.674995px) scale(1,1)} 100% {transform: translate(317.285015px,299.674995px) scale(1,1)}}
]]></style>
<g transform="translate(-1 0)"><rect width="600" height="600" rx="0" ry="0" transform="translate(1.65 0)" fill="#ffbfe0"/><ellipse rx="306.55" ry="52.98" transform="translate(299.86 547.02)" fill="#00dee1"/><g><g><ellipse rx="65.32" ry="53.41" transform="matrix(.0218-.9998 0.9998 0.0218 299.728373 172.92493)" fill="#ff71aa"/></g><g><g><g><path d="M76.79,235.33c-4.26,3.99-1.3,11.14,4.54,10.97c2.39-.07,4.79-.1,7.19-.1c48.52,0,93.79,13.9,132.05,37.94L238.8,262.6l19.48-23.03c-27.69-20.54-61.97-32.68-99.1-32.68-4.67,0-9.28.19-13.84.56-11.55.96-22.78,3.08-33.54,6.27-13.12,4.83-25,12.24-35.01,21.61Z" fill="#ff71aa"/></g></g><g><g><path d="M216.96,439.65c-.54-.07-1.07.18-1.57.42-13,6.31-26.08,12.41-38.04,21-7.2,5.28-16.11,10.69-17.92,20.97-1,5.67.19,11.54,1.67,17.1c2.02,7.58,6.7,26.82,17.03,22.98c1.96-.73,3.63-2.19,5.25-3.61c19.87-17.5,40.08-34.92,61.39-50.21-1.61,1.15-24.05-25.25-26.18-27.53-.45-.49-.95-1-1.57-1.11-.02,0-.04-.01-.06-.01Z" fill="#ff71aa"/></g></g><g><g><path d="M389,439.65c.54-.07,1.07.18,1.57.42c13,6.31,26.08,12.41,38.04,21c7.2,5.28,16.11,10.69,17.92,20.97c1,5.67-.19,11.54-1.67,17.1-2.02,7.58-6.7,26.82-17.03,22.98-1.96-.73-3.63-2.19-5.25-3.61-19.87-17.5-40.08-34.92-61.39-50.21c1.61,1.15,24.05-25.25,26.18-27.53.45-.49.95-1,1.57-1.11.01,0,.03-.01.06-.01Z" fill="#ff71aa"/></g></g><g><g><path d="M529.16,235.33c4.26,3.99,1.3,11.14-4.54,10.97-2.39-.07-4.79-.1-7.19-.1-48.52,0-93.79,13.9-132.05,37.94L367.15,262.6l-19.48-23.03c27.69-20.54,61.97-32.68,99.1-32.68c4.67,0,9.28.19,13.84.56c11.55.96,22.78,3.08,33.54,6.27c13.13,4.83,25,12.24,35.01,21.61Z" fill="#ff71aa"/></g></g></g><g><circle r="149.09" transform="translate(299.72 343.47)" fill="#0ad387"/></g><circle r="148.94" transform="translate(299.87 343.31)" fill="none" stroke="#0ad387" stroke-width="1.6089" stroke-miterlimit="10"/></g><g><polygon points="328.69,241.76 272.54,240.19 243.47,274.84 270.55,311.07 326.7,312.65 355.77,277.99" fill="none" stroke="#fcf1c8" stroke-width="1.6788" stroke-miterlimit="10"/><polygon points="326.7,312.65 270.55,311.07 241.48,345.73 268.57,381.96 324.72,383.53 353.78,348.88" fill="none" stroke="#fcf1c8" stroke-width="1.6788" stroke-miterlimit="10"/><polygon points="324.72,383.53 268.57,381.96 239.5,416.62 266.58,452.85 322.73,454.42 351.8,419.76" fill="none" stroke="#fcf1c8" stroke-width="1.6788" stroke-miterlimit="10"/><line x1="328.69" y1="241.76" x2="362.88" y2="209.43" fill="none" stroke="#fcf1c8" stroke-width="1.6788" stroke-miterlimit="10"/><line x1="272.54" y1="240.19" x2="241.6" y2="207.46" fill="none" stroke="#fcf1c8" stroke-width="1.6788" stroke-miterlimit="10"/><line x1="243.47" y1="274.84" x2="169.3" y2="272.77" fill="none" stroke="#fcf1c8" stroke-width="1.6788" stroke-miterlimit="10"/><line x1="241.48" y1="345.73" x2="150.46" y2="343.06" fill="none" stroke="#fcf1c8" stroke-width="1.6788" stroke-miterlimit="10"/><line x1="239.5" y1="416.62" x2="201.1" y2="452.92" fill="none" stroke="#fcf1c8" stroke-width="1.6788" stroke-miterlimit="10"/><line x1="266.58" y1="452.85" x2="238.83" y2="479.09" fill="none" stroke="#fcf1c8" stroke-width="1.6788" stroke-miterlimit="10"/><line x1="353.78" y1="348.88" x2="448.08" y2="351.52" fill="none" stroke="#fcf1c8" stroke-width="1.6788" stroke-miterlimit="10"/><line x1="355.77" y1="277.99" x2="434.98" y2="280.04" fill="none" stroke="#fcf1c8" stroke-width="1.6788" stroke-miterlimit="10"/><line x1="351.8" y1="419.76" x2="391.52" y2="461.78" fill="none" stroke="#fcf1c8" stroke-width="1.6788" stroke-miterlimit="10"/><line x1="322.73" y1="454.42" x2="351.44" y2="484.79" fill="none" stroke="#fcf1c8" stroke-width="1.6788" stroke-miterlimit="10"/><polyline points="254.02,220.61 197.56,273.99 167.07,343.65 211.46,443.13" fill="none" stroke="#fcf1c8" stroke-width="1.6788" stroke-miterlimit="10"/><polyline points="348.33,223.25 401.29,279.27 428.25,350.96 378.36,447.8" fill="none" stroke="#fcf1c8" stroke-width="1.6788" stroke-miterlimit="10"/><circle r="141.43" transform="translate(297.99 347.31)" fill="none"/></g></g><g><g><g><g><circle r="7.25" transform="translate(288.31 137.71)" fill="#fdf2c9"/></g><g><circle r="7.25" transform="translate(311.14 137.61)" fill="#fdf2c9"/></g></g></g></g><g><g><ellipse id="epOsKJWbjCn50" rx="246.98" ry="69.5" transform="translate(301.6 230.26)" fill="none" stroke="#006294" stroke-width="15" stroke-miterlimit="10" stroke-dashoffset="1139" stroke-dasharray="1139.92"/><ellipse id="epOsKJWbjCn51" rx="246.98" ry="69.5" transform="matrix(.9063-.4227 0.4227 0.9063 311.228773 253.52737)" fill="none" stroke="#006294" stroke-width="15" stroke-miterlimit="10" stroke-dashoffset="1139" stroke-dasharray="1139.92"/><ellipse id="epOsKJWbjCn52" rx="69.5" ry="246.98" transform="matrix(.3922-.9199 0.9199 0.3922 315.40842 255.068074)" fill="none" stroke="#006294" stroke-width="15" stroke-miterlimit="10" stroke-dashoffset="1139" stroke-dasharray="1139.92"/><ellipse id="epOsKJWbjCn53" rx="246.98" ry="69.5" transform="translate(301.7 420.86)" fill="none" stroke="#006294" stroke-width="15" stroke-miterlimit="10" stroke-dashoffset="1139" stroke-dasharray="1139.92"/><ellipse id="epOsKJWbjCn54" rx="246.98" ry="69.5" transform="matrix(.9063-.4227 0.4227 0.9063 311.31232 444.136023)" fill="none" stroke="#006294" stroke-width="15" stroke-miterlimit="10" stroke-dashoffset="1193" stroke-dasharray="1139.92"/><ellipse id="epOsKJWbjCn55" rx="69.5" ry="246.98" transform="matrix(.3922-.9199 0.9199 0.3922 315.505983 445.678492)" fill="none" stroke="#006294" stroke-width="15" stroke-miterlimit="10" stroke-dashoffset="1139.92" stroke-dasharray="1139.92"/></g></g><g id="epOsKJWbjCn56_ts" transform="translate(317.285015,299.674995) scale(1,1)"><g transform="translate(-317.285015,-299.674995)"><polygon points="93.9,31.61 115.47,35.51 100.55,51.57 96.64,73.14 80.59,58.22 59.01,54.31 73.94,38.25 77.85,16.68" fill="#fdf2c9"/><polygon points="64.17,84.44 79.7,87.25 68.95,98.81 66.14,114.34 54.58,103.59 39.05,100.78 49.8,89.22 52.61,73.7" fill="#fdf2c9"/><polygon points="560.63,541.13 539.05,545.04 553.98,561.09 557.89,582.67 573.94,567.74 595.52,563.83 580.59,547.78 576.68,526.21" fill="#fdf2c9"/></g></g></svg>
