<svg id="e1tTdEqjeZF1" xmlns="http://www.w3.org/2000/svg" xmlns:xlink="http://www.w3.org/1999/xlink" viewBox="0 0 600 600" shape-rendering="geometricPrecision" text-rendering="geometricPrecision">
<style><![CDATA[
#e1tTdEqjeZF4_to {animation: e1tTdEqjeZF4_to__to 5000ms linear infinite normal forwards}@keyframes e1tTdEqjeZF4_to__to { 0% {transform: translate(152.513756px,504.93132px)} 1.2% {transform: translate(152.513756px,504.93132px)} 12% {transform: translate(160.843071px,484.507164px)} 24% {transform: translate(152.513756px,504.93132px)} 100% {transform: translate(152.513756px,504.93132px)}} #e1tTdEqjeZF12_to {animation: e1tTdEqjeZF12_to__to 5000ms linear infinite normal forwards}@keyframes e1tTdEqjeZF12_to__to { 0% {transform: translate(218.628929px,309.248573px)} 1.2% {transform: translate(218.628929px,309.248573px)} 12% {transform: translate(226.958244px,288.824417px)} 24% {transform: translate(218.628929px,309.248573px)} 100% {transform: translate(218.628929px,309.248573px)}} #e1tTdEqjeZF50 {animation: e1tTdEqjeZF50_c_o 5000ms linear infinite normal forwards}@keyframes e1tTdEqjeZF50_c_o { 0% {opacity: 0} 32% {opacity: 0} 46% {opacity: 1} 60% {opacity: 0} 74% {opacity: 1} 88% {opacity: 0} 100% {opacity: 1}} #e1tTdEqjeZF53 {animation: e1tTdEqjeZF53_c_o 5000ms linear infinite normal forwards}@keyframes e1tTdEqjeZF53_c_o { 0% {opacity: 1} 12% {opacity: 0} 24% {opacity: 1} 100% {opacity: 1}} #e1tTdEqjeZF58 {animation: e1tTdEqjeZF58_c_o 5000ms linear infinite normal forwards}@keyframes e1tTdEqjeZF58_c_o { 0% {opacity: 1} 12% {opacity: 0} 24% {opacity: 1} 100% {opacity: 1}} #e1tTdEqjeZF63_to {animation: e1tTdEqjeZF63_to__to 5000ms linear infinite normal forwards}@keyframes e1tTdEqjeZF63_to__to { 0% {offset-distance: 0%} 28% {offset-distance: 0%} 50.2% {offset-distance: 37.13851%} 67.8% {offset-distance: 66.34852%} 100% {offset-distance: 100%}} #e1tTdEqjeZF75_to {animation: e1tTdEqjeZF75_to__to 5000ms linear infinite normal forwards}@keyframes e1tTdEqjeZF75_to__to { 0% {offset-distance: 0%} 28% {offset-distance: 0%} 51.6% {offset-distance: 39.465604%} 71.8% {offset-distance: 72.963112%} 100% {offset-distance: 100%}}
]]></style>
<g><rect width="599.87" height="599.98" rx="0" ry="0" transform="translate(-.63 0.02)" fill="#00dee1"/></g><g id="e1tTdEqjeZF4_to" transform="translate(152.513756,504.93132)"><g transform="translate(-152.513756,-504.93132)"><g><g><g><path d="M98.94,444.36c-.4-.19-.88-.14-1.33-.09-11.74,1.42-23.48,2.66-35.02,6.13-6.98,2.17-15.31,3.99-19.44,11.46-2.28,4.12-2.92,8.98-3.26,13.67-.45,6.4-1.95,22.54,7.07,22.31c1.71-.04,3.39-.73,5.02-1.4c20.03-8.26,40.3-16.36,60.86-22.52-1.55.46-11.9-25.93-12.93-28.27-.22-.5-.47-1.03-.92-1.27-.01-.01-.03-.01-.05-.02Z" fill="#ff71aa"/></g></g><g><g><path d="M232.07,490.12c.44.09.78.43,1.1.75c8.38,8.34,16.88,16.54,23.85,26.37c4.17,6,9.62,12.56,8.29,20.99-.74,4.66-3.22,8.88-5.84,12.78-3.58,5.33-12.32,18.98-19.29,13.25-1.32-1.09-2.23-2.66-3.1-4.19-10.72-18.83-21.72-37.68-34.15-55.18.94,1.32,25.33-13.14,27.58-14.34.48-.26,1-.52,1.51-.44.01,0,.03.01.05.01Z" fill="#ff71aa"/></g></g></g></g></g><g id="e1tTdEqjeZF12_to" transform="translate(218.628929,309.248573)"><g transform="translate(-218.628929,-309.248573)"><g><g><path d="M44.83,248.98c-4.36,1.95-3.97,8.27.59,9.7c1.87.58,3.73,1.19,5.59,1.83c37.55,12.91,68.88,35.71,92.09,64.48l19.84-11.82l21.2-12.64c-15.96-23.26-39.26-41.77-67.99-51.64-3.61-1.24-7.24-2.32-10.86-3.25-9.19-2.33-18.45-3.67-27.62-4.07-11.44.24-22.6,2.81-32.84,7.41Z" fill="#ff71aa"/></g></g><g><g><path d="M394.87,369.3c2.23,4.22-1.96,8.96-6.43,7.28-1.83-.69-3.68-1.35-5.54-1.99-37.55-12.91-76.28-14.19-112.27-5.76l-8.38-21.52-8.95-23c26.89-8.53,56.64-8.8,85.37,1.07c3.61,1.24,7.13,2.62,10.56,4.12c8.68,3.82,16.81,8.44,24.28,13.78c8.89,7.21,16.11,16.1,21.36,26.02Z" fill="#ff71aa"/></g></g></g></g><g><g><g><ellipse rx="53.45" ry="43.7" transform="matrix(.3456-.9384 0.9384 0.3456 233.930936 259.978624)" fill="#ff71aa"/></g><g><g><circle r="5.93" transform="translate(234.47 229.7)" fill="#fdf2c9"/></g><g><circle r="5.93" transform="translate(252.16 235.69)" fill="#fdf2c9"/></g></g><g><circle r="121.99" transform="translate(188.57 391.95)" fill="#0ad387"/></g><circle r="121.87" transform="translate(188.73 391.87)" fill="none" stroke="#0ad387" stroke-width="1.306" stroke-miterlimit="10"/></g><g><polygon points="238.71,322.86 196.94,305.03 164.79,322.48 174.42,357.77 216.2,375.6 248.34,358.15" fill="none" stroke="#fcf1c8" stroke-width="1.6788" stroke-miterlimit="10"/><polygon points="216.2,375.6 174.42,357.77 142.28,375.22 151.91,410.51 193.69,428.34 225.83,410.89" fill="none" stroke="#fcf1c8" stroke-width="1.6788" stroke-miterlimit="10"/><polygon points="193.69,428.34 151.91,410.51 119.77,427.96 129.4,463.25 171.17,481.08 203.32,463.63" fill="none" stroke="#fcf1c8" stroke-width="1.6788" stroke-miterlimit="10"/><line x1="238.71" y1="322.86" x2="274.03" y2="308.68" fill="none" stroke="#fcf1c8" stroke-width="1.6788" stroke-miterlimit="10"/><line x1="196.94" y1="305.03" x2="183.36" y2="271.24" fill="none" stroke="#fcf1c8" stroke-width="1.6788" stroke-miterlimit="10"/><line x1="164.79" y1="322.48" x2="109.61" y2="298.93" fill="none" stroke="#fcf1c8" stroke-width="1.6788" stroke-miterlimit="10"/><line x1="142.28" y1="375.22" x2="74.59" y2="346.23" fill="none" stroke="#fcf1c8" stroke-width="1.6788" stroke-miterlimit="10"/><line x1="119.77" y1="427.96" x2="80.12" y2="443.89" fill="none" stroke="#fcf1c8" stroke-width="1.6788" stroke-miterlimit="10"/><line x1="129.4" y1="463.25" x2="100.74" y2="474.76" fill="none" stroke="#fcf1c8" stroke-width="1.6788" stroke-miterlimit="10"/><line x1="225.83" y1="410.89" x2="295.99" y2="440.83" fill="none" stroke="#fcf1c8" stroke-width="1.6788" stroke-miterlimit="10"/><line x1="248.34" y1="358.15" x2="307.33" y2="383.18" fill="none" stroke="#fcf1c8" stroke-width="1.6788" stroke-miterlimit="10"/><line x1="203.32" y1="463.63" x2="220.74" y2="507.01" fill="none" stroke="#fcf1c8" stroke-width="1.6788" stroke-miterlimit="10"/><line x1="171.17" y1="481.08" x2="183.77" y2="512.44" fill="none" stroke="#fcf1c8" stroke-width="1.6788" stroke-miterlimit="10"/><polyline points="188.82,284.81 130.51,308.23 86.92,351.59 90.82,439.59" fill="none" stroke="#fcf1c8" stroke-width="1.6788" stroke-miterlimit="10"/><polyline points="258.98,314.76 282.21,372.61 281.23,434.54 214.99,492.6" fill="none" stroke="#fcf1c8" stroke-width="1.6788" stroke-miterlimit="10"/><circle r="114.37" transform="translate(184.32 393.17)" fill="none"/></g></g><g><ellipse rx="16.39" ry="10.32" transform="matrix(.4476-.8943 0.8943 0.4476 233.439794 255.009982)" fill="#fdf2c9"/></g><g id="e1tTdEqjeZF50" opacity="0"><g><path d="M156.21,163.88c.29-3.16.23-4.58.14-7.1-.11-2.99-.11-2.99-1.28-12.25L149.1,94.77c-.65-6.44-1.94-13.49-3.25-21.16l47.27-1.81c-.47,3.64-1.26,14.71-1.62,21.35l-2.15,50.07c-.15,6.63-.24,9.78-.15,12.15.06,1.57.13,3.31.48,7.23l-33.47,1.28Zm-2.11,40.6l-1.14-29.76l40.78-1.56l1.14,29.76-40.78,1.56Z" fill="#fdf2c9"/></g></g><g id="e1tTdEqjeZF53"><g><circle r="12.6" transform="translate(303.13 241.8)" fill="#f9afd4"/><path d="M310.8,241.26c-.2-1.21-.82-6.31-.36-7.13.5-.9,2.29,2.39,2.85,5.72s.2,6.17-.81,6.34c-1.02.17-1.07-1.31-1.68-4.93Z" fill="#fff1c4"/><ellipse rx="1.71" ry="1.22" transform="matrix(.7343-.6788 0.6788 0.7343 310.823859 248.766407)" fill="#fff1c4"/></g></g><g id="e1tTdEqjeZF58"><g><circle r="7.31" transform="translate(316.82 219.73)" fill="#f9afd4"/><path d="M321.27,219.42c-.12-.7-.47-3.66-.21-4.14.29-.52,1.33,1.39,1.65,3.32.33,1.93.11,3.58-.47,3.68-.59.1-.62-.76-.97-2.86Z" fill="#fff1c4"/><ellipse rx="0.99" ry="0.71" transform="matrix(.7343-.6788 0.6788 0.7343 321.281037 223.764658)" fill="#fff1c4"/></g></g><g id="e1tTdEqjeZF63_to" style="offset-path:path('M719.934967,72.504991Q622.526889,13.284991,600.000002,77.734991C577.473115,142.184991,626.113114,156.784991,554.623114,149.484991C483.133114,142.184991,439.943113,129.384991,437.043113,160.264991');offset-rotate:0deg"><g transform="translate(-440.22995,-152.829994)"><g><g><path d="M584.61,195.27l-6.03,8.41c-6.12-4.39-10.77-10.09-13.82-16.44-.58-1.78-1.28-3.52-2.1-5.22l-.01-.01c-3.05-6.35-7.69-12.05-13.82-16.44-6.25-4.48-13.28-7.07-20.41-7.87-1.62-.19-3.25-.28-4.88-.29-7.13-.8-14.16-3.39-20.41-7.87-6.12-4.39-10.77-10.09-13.82-16.44-.58-1.78-1.28-3.52-2.1-5.22l-.01-.01c-3.05-6.35-7.69-12.05-13.82-16.44-6.25-4.48-13.28-7.06-20.41-7.87-1.61-.19-3.25-.28-4.87-.28-7.14-.8-14.16-3.39-20.41-7.87-6.13-4.4-10.77-10.09-13.83-16.45-.58-1.78-1.29-3.53-2.11-5.22-3.05-6.35-7.69-12.05-13.82-16.44-6.24-4.48-13.28-7.06-20.4-7.87-1.63-.19-3.27-.28-4.9-.28-7.13-.8-14.15-3.39-20.4-7.87l6.03-8.41c6.09,4.23,12.91,6.68,19.82,7.45c1.63,0,3.26.09,4.89.28c7.14.8,14.16,3.39,20.41,7.87c6.12,4.39,10.77,10.09,13.82,16.44.82,1.7,1.52,3.44,2.1,5.23c3.05,6.35,7.69,12.05,13.82,16.44c6.25,4.48,13.28,7.07,20.41,7.87c1.63,0,3.26.09,4.89.28c7.13.8,14.16,3.39,20.41,7.87c3.06,2.2,5.76,4.72,8.06,7.49c2.31,2.77,4.23,5.78,5.76,8.96.82,1.7,1.52,3.44,2.1,5.23c3.05,6.35,7.69,12.05,13.82,16.44c6.25,4.48,13.28,7.06,20.41,7.87c1.62-.01,3.26.09,4.88.27c7.14.8,14.16,3.39,20.41,7.87c3.06,2.2,5.76,4.72,8.06,7.49c2.32,2.77,4.24,5.78,5.76,8.96.82,1.7,1.52,3.44,2.1,5.23c3.05,6.35,7.69,12.05,13.82,16.44.21.16.41.3.6.42Z" fill="#006294"/><path d="M556.42,234.56l-6.03,8.41c-6.12-4.39-10.77-10.09-13.82-16.44-.58-1.78-1.28-3.52-2.1-5.22l-.01-.01c-3.05-6.35-7.69-12.05-13.82-16.44-6.25-4.48-13.28-7.07-20.41-7.87-1.62-.19-3.25-.28-4.88-.29-7.13-.8-14.16-3.39-20.41-7.87-6.12-4.39-10.77-10.09-13.82-16.44-.58-1.78-1.28-3.52-2.1-5.22l-.01-.01c-3.05-6.35-7.69-12.05-13.82-16.44-6.25-4.48-13.28-7.06-20.41-7.87-1.61-.19-3.25-.28-4.87-.28-7.14-.8-14.16-3.39-20.41-7.87-6.13-4.4-10.77-10.09-13.83-16.45-.58-1.78-1.29-3.53-2.11-5.22-3.05-6.35-7.69-12.05-13.82-16.44-6.24-4.48-13.28-7.06-20.4-7.87-1.63-.19-3.27-.28-4.9-.28-7.13-.8-14.15-3.39-20.4-7.87l6.03-8.41c6.09,4.23,12.91,6.68,19.82,7.45c1.63,0,3.26.09,4.89.28c7.14.8,14.16,3.39,20.41,7.87c6.12,4.39,10.77,10.09,13.82,16.44.82,1.7,1.52,3.44,2.1,5.23c3.05,6.35,7.69,12.05,13.82,16.44c6.25,4.48,13.28,7.07,20.41,7.87c1.63,0,3.26.09,4.89.28c7.13.8,14.16,3.39,20.41,7.87c3.06,2.2,5.76,4.72,8.06,7.49c2.31,2.77,4.23,5.78,5.76,8.96.82,1.7,1.52,3.44,2.1,5.23c3.05,6.35,7.69,12.05,13.82,16.44c6.25,4.48,13.28,7.06,20.41,7.87c1.62-.01,3.26.09,4.88.27c7.14.8,14.16,3.39,20.41,7.87c3.06,2.2,5.76,4.72,8.06,7.49c2.32,2.77,4.24,5.78,5.76,8.96.82,1.7,1.52,3.44,2.1,5.23c3.05,6.35,7.69,12.05,13.82,16.44.21.16.41.3.6.42Z" fill="#006294"/><path d="M528.23,273.86l-6.03,8.41c-6.12-4.39-10.77-10.09-13.82-16.44-.58-1.78-1.28-3.52-2.1-5.22l-.01-.01c-3.05-6.35-7.69-12.05-13.82-16.44-6.25-4.48-13.28-7.07-20.41-7.87-1.62-.19-3.25-.28-4.88-.29-7.13-.8-14.16-3.39-20.41-7.87-6.12-4.39-10.77-10.09-13.82-16.44-.58-1.78-1.28-3.52-2.1-5.22l-.01-.01c-3.05-6.35-7.69-12.05-13.82-16.44-6.25-4.48-13.28-7.06-20.41-7.87-1.61-.19-3.25-.28-4.87-.28-7.14-.8-14.16-3.39-20.41-7.87-6.13-4.4-10.77-10.09-13.83-16.45-.58-1.78-1.29-3.53-2.11-5.22-3.05-6.35-7.69-12.05-13.82-16.44-6.24-4.48-13.28-7.06-20.4-7.87-1.63-.19-3.27-.28-4.9-.28-7.13-.8-14.15-3.39-20.4-7.87l6.03-8.41c6.09,4.23,12.91,6.68,19.82,7.45c1.63,0,3.26.09,4.89.28c7.14.8,14.16,3.39,20.41,7.87c6.12,4.39,10.77,10.09,13.82,16.44.82,1.7,1.52,3.44,2.1,5.23c3.05,6.35,7.69,12.05,13.82,16.44c6.25,4.48,13.28,7.07,20.41,7.87c1.63,0,3.26.09,4.89.28c7.13.8,14.16,3.39,20.41,7.87c3.06,2.2,5.76,4.72,8.06,7.49c2.31,2.77,4.23,5.78,5.76,8.96.82,1.7,1.52,3.44,2.1,5.23c3.05,6.35,7.69,12.05,13.82,16.44c6.25,4.48,13.28,7.06,20.41,7.87c1.62-.01,3.26.09,4.88.27c7.14.8,14.16,3.39,20.41,7.87c3.06,2.2,5.76,4.72,8.06,7.49c2.32,2.77,4.24,5.78,5.76,8.96.82,1.7,1.52,3.44,2.1,5.23c3.05,6.35,7.69,12.05,13.82,16.44.21.15.41.29.6.42Z" fill="#006294"/></g><g><path d="M435.14,175.79c-.8,7.13-3.39,14.17-7.87,20.42-2.19,3.05-4.72,5.76-7.48,8.06-2.78,2.31-5.78,4.23-8.96,5.76-1.7.82-3.44,1.52-5.23,2.1-6.35,3.05-12.05,7.69-16.45,13.82-.14.2-.27.38-.4.58l-8.41-6.04c4.39-6.12,10.09-10.77,16.44-13.81c1.78-.58,3.52-1.28,5.23-2.1l.01-.01c6.34-3.06,12.05-7.69,16.44-13.81c4.48-6.25,7.06-13.28,7.86-20.41.19-1.62.27-3.26.28-4.88.8-7.13,3.38-14.16,7.86-20.41c4.4-6.13,10.09-10.78,16.45-13.82c1.78-.58,3.53-1.29,5.23-2.11c6.34-3.06,12.05-7.69,16.44-13.81c4.48-6.24,7.06-13.28,7.86-20.41.19-1.62.27-3.26.28-4.9.8-7.12,3.39-14.15,7.87-20.39l8.4,6.03c-4.23,6.1-6.68,12.91-7.45,19.83c0,1.63-.09,3.26-.28,4.88-.8,7.13-3.39,14.17-7.86,20.41-4.39,6.12-10.09,10.78-16.45,13.82-1.7.82-3.44,1.52-5.23,2.1-6.35,3.05-12.05,7.69-16.45,13.82-4.48,6.25-7.08,13.28-7.86,20.41.01,1.62-.08,3.25-.27,4.87Z" fill="#006294"/><path d="M402.92,152.67c-.8,7.13-3.4,14.16-7.88,20.41-2.19,3.05-4.72,5.76-7.48,8.06-2.77,2.31-5.78,4.23-8.96,5.76-1.7.82-3.44,1.52-5.23,2.1-6.35,3.05-12.05,7.69-16.45,13.82-.14.2-.27.38-.4.58l-8.41-6.04c4.39-6.12,10.1-10.76,16.44-13.81c1.79-.58,3.53-1.28,5.23-2.1l.01-.01c6.35-3.05,12.05-7.69,16.44-13.81c4.48-6.25,7.06-13.28,7.86-20.41.19-1.62.28-3.25.28-4.88.8-7.13,3.38-14.16,7.86-20.41c4.4-6.13,10.1-10.77,16.45-13.82c1.79-.58,3.54-1.29,5.23-2.11c6.35-3.05,12.05-7.69,16.44-13.81c4.48-6.24,7.06-13.28,7.87-20.4.18-1.63.27-3.26.27-4.9.8-7.12,3.39-14.15,7.87-20.39l8.41,6.04c-4.24,6.09-6.69,12.91-7.45,19.82c0,1.63-.09,3.26-.27,4.89-.8,7.13-3.4,14.16-7.87,20.4-4.39,6.12-10.09,10.78-16.45,13.82-1.7.82-3.44,1.52-5.23,2.1-6.35,3.05-12.05,7.69-16.45,13.82-4.48,6.25-7.07,13.29-7.86,20.41-.01,1.62-.09,3.24-.27,4.87Z" fill="#006294"/><path d="M370.68,129.54c-.8,7.13-3.39,14.17-7.87,20.42-2.19,3.05-4.72,5.76-7.48,8.06-2.78,2.31-5.78,4.23-8.96,5.76-1.71.81-3.45,1.51-5.23,2.1-6.35,3.05-12.06,7.68-16.46,13.82-.14.2-.27.38-.4.58l-8.4-6.03c4.39-6.12,10.09-10.77,16.44-13.81c1.78-.58,3.52-1.28,5.22-2.11l.01-.01c6.35-3.05,12.05-7.69,16.44-13.81c4.48-6.25,7.07-13.27,7.86-20.41.2-1.61.28-3.25.29-4.87.79-7.14,3.38-14.16,7.86-20.41c4.4-6.13,10.09-10.78,16.45-13.82c1.78-.58,3.53-1.29,5.22-2.11c6.35-3.05,12.05-7.69,16.44-13.81c4.48-6.24,7.07-13.27,7.87-20.4.19-1.62.27-3.26.28-4.9.8-7.12,3.39-14.15,7.87-20.39l8.4,6.03c-4.23,6.1-6.68,12.91-7.45,19.82.01,1.63-.09,3.26-.27,4.89-.8,7.13-3.39,14.17-7.86,20.41-4.39,6.12-10.09,10.78-16.45,13.82-1.71.81-3.45,1.51-5.23,2.1-6.35,3.05-12.06,7.68-16.46,13.82-4.48,6.25-7.07,13.29-7.86,20.41.01,1.61-.09,3.22-.27,4.85Z" fill="#006294"/><path d="M499.6,222.04c-.79,7.14-3.39,14.17-7.87,20.42-2.19,3.05-4.72,5.76-7.48,8.06-2.77,2.31-5.78,4.23-8.96,5.76-1.7.82-3.44,1.52-5.23,2.1-6.35,3.05-12.05,7.69-16.45,13.82-.14.2-.27.38-.4.58l-8.41-6.04c4.39-6.12,10.09-10.77,16.44-13.81c1.78-.58,3.52-1.28,5.23-2.1l.01-.01c6.35-3.05,12.05-7.69,16.44-13.81c4.48-6.25,7.06-13.28,7.86-20.41.19-1.62.28-3.25.28-4.88.8-7.13,3.38-14.16,7.86-20.41c4.4-6.13,10.09-10.78,16.45-13.82c1.78-.58,3.53-1.29,5.23-2.11c6.35-3.05,12.05-7.69,16.44-13.81c4.48-6.24,7.06-13.28,7.87-20.4.18-1.63.27-3.26.27-4.9.8-7.12,3.39-14.15,7.87-20.39l8.41,6.04c-4.24,6.09-6.69,12.91-7.45,19.82c0,1.63-.09,3.26-.28,4.88-.79,7.14-3.39,14.17-7.86,20.41-4.39,6.12-10.09,10.78-16.45,13.82-1.7.82-3.44,1.52-5.23,2.1-6.35,3.05-12.05,7.69-16.45,13.82-4.48,6.25-7.08,13.28-7.86,20.41c0,1.61-.09,3.23-.28,4.86Z" fill="#006294"/><path d="M467.38,198.92c-.8,7.13-3.39,14.17-7.87,20.42-2.19,3.05-4.72,5.76-7.49,8.05-2.77,2.31-5.77,4.23-8.95,5.76-1.71.81-3.45,1.51-5.24,2.09-6.35,3.05-12.05,7.69-16.45,13.82-.14.2-.27.38-.4.58l-8.4-6.03c4.39-6.12,10.09-10.77,16.44-13.81c1.78-.58,3.52-1.28,5.22-2.11l.01-.01c6.35-3.05,12.05-7.69,16.44-13.81c4.48-6.25,7.07-13.27,7.86-20.41.2-1.61.28-3.25.28-4.88.8-7.13,3.39-14.15,7.87-20.4c4.4-6.13,10.09-10.78,16.45-13.82c1.78-.58,3.53-1.29,5.22-2.11c6.35-3.05,12.05-7.69,16.44-13.81c4.48-6.24,7.07-13.27,7.87-20.4.19-1.62.27-3.26.28-4.9.79-7.13,3.39-14.15,7.87-20.39l8.4,6.03c-4.23,6.1-6.68,12.91-7.45,19.82c0,1.63-.09,3.26-.27,4.89-.8,7.13-3.39,14.17-7.86,20.41-4.39,6.12-10.1,10.77-16.45,13.82-1.71.81-3.45,1.51-5.24,2.09-6.35,3.05-12.05,7.69-16.45,13.82-4.48,6.25-7.07,13.29-7.86,20.41-.01,1.62-.09,3.25-.27,4.88Z" fill="#006294"/></g></g></g></g><g id="e1tTdEqjeZF75_to" style="offset-path:path('M810.139892,508.504996Q680.263064,409.614996,587.033114,452.534996C493.803164,495.454996,522.616327,538.344996,402.413164,515.584996Q282.210001,492.824996,346.863114,402.994995');offset-rotate:0deg"><g transform="translate(-439.159973,-430.264984)"><g><g><path d="M462.74,281.75l9.26,4.63c-3.37,6.74-8.27,12.23-14.06,16.24-1.66.85-3.28,1.82-4.82,2.89v.01c-5.79,4.01-10.68,9.49-14.06,16.24-3.44,6.87-4.89,14.23-4.55,21.4.06,1.63.24,3.26.49,4.87.34,7.16-1.11,14.52-4.55,21.4-3.37,6.74-8.27,12.23-14.06,16.24-1.66.85-3.28,1.82-4.82,2.89v.01c-5.79,4.01-10.68,9.49-14.06,16.24-3.44,6.87-4.88,14.22-4.55,21.4.07,1.62.24,3.26.49,4.86.33,7.17-1.11,14.52-4.55,21.4-3.38,6.75-8.27,12.23-14.06,16.25-1.66.85-3.28,1.83-4.83,2.9-5.79,4.01-10.68,9.49-14.06,16.24-3.44,6.87-4.88,14.22-4.56,21.38.07,1.64.24,3.27.5,4.88.34,7.16-1.11,14.51-4.56,21.38l-9.26-4.63c3.22-6.69,4.57-13.8,4.24-20.75-.26-1.61-.42-3.23-.5-4.87-.33-7.17,1.11-14.52,4.55-21.4c3.37-6.74,8.27-12.23,14.06-16.24c1.55-1.07,3.16-2.04,4.84-2.9c5.79-4.01,10.68-9.49,14.06-16.24c3.44-6.87,4.89-14.23,4.55-21.4-.26-1.61-.42-3.23-.5-4.87-.34-7.16,1.11-14.52,4.55-21.4c1.69-3.37,3.75-6.43,6.12-9.14c2.37-2.72,5.04-5.09,7.94-7.1c1.55-1.07,3.16-2.04,4.84-2.9c5.79-4.01,10.68-9.49,14.06-16.24c3.44-6.87,4.88-14.22,4.55-21.4-.26-1.6-.42-3.23-.5-4.86-.33-7.17,1.11-14.52,4.55-21.4c1.69-3.37,3.75-6.43,6.12-9.14c2.37-2.72,5.04-5.1,7.94-7.11c1.55-1.07,3.16-2.04,4.84-2.9c5.79-4.01,10.68-9.49,14.06-16.24.1-.2.21-.41.3-.62Z" fill="#006294"/><path d="M505.98,303.39l9.26,4.63c-3.37,6.74-8.27,12.23-14.06,16.24-1.66.85-3.28,1.82-4.82,2.89v.01c-5.79,4.01-10.68,9.49-14.06,16.24-3.44,6.87-4.89,14.23-4.55,21.4.06,1.63.24,3.26.49,4.87.34,7.16-1.11,14.52-4.55,21.4-3.37,6.74-8.27,12.23-14.06,16.24-1.66.85-3.28,1.82-4.82,2.89v.01c-5.79,4.01-10.68,9.49-14.06,16.24-3.44,6.87-4.88,14.22-4.55,21.4.07,1.62.24,3.26.49,4.86.33,7.17-1.11,14.52-4.55,21.4-3.38,6.75-8.27,12.23-14.06,16.25-1.66.85-3.28,1.83-4.83,2.9-5.79,4.01-10.68,9.49-14.06,16.24-3.44,6.87-4.88,14.22-4.56,21.38.07,1.64.24,3.27.5,4.88.34,7.16-1.11,14.51-4.56,21.38l-9.26-4.63c3.22-6.69,4.57-13.8,4.24-20.75-.26-1.61-.42-3.23-.5-4.87-.33-7.17,1.11-14.52,4.55-21.4c3.37-6.74,8.27-12.23,14.06-16.24c1.55-1.07,3.16-2.04,4.84-2.9c5.79-4.01,10.68-9.49,14.06-16.24c3.44-6.87,4.89-14.23,4.55-21.4-.26-1.61-.42-3.23-.5-4.87-.34-7.16,1.11-14.52,4.55-21.4c1.69-3.37,3.75-6.43,6.12-9.14c2.37-2.72,5.04-5.09,7.94-7.1c1.55-1.07,3.16-2.04,4.84-2.9c5.79-4.01,10.68-9.49,14.06-16.24c3.44-6.87,4.88-14.22,4.55-21.4-.26-1.6-.42-3.23-.5-4.86-.33-7.17,1.11-14.52,4.55-21.4c1.69-3.37,3.75-6.43,6.12-9.14c2.37-2.72,5.04-5.1,7.94-7.11c1.55-1.07,3.16-2.04,4.84-2.9c5.79-4.01,10.68-9.49,14.06-16.24.1-.19.21-.41.3-.62Z" fill="#006294"/><path d="M549.23,325.03l9.26,4.63c-3.37,6.74-8.27,12.23-14.06,16.24-1.66.85-3.28,1.82-4.82,2.89v.01c-5.79,4.01-10.68,9.49-14.06,16.24-3.44,6.87-4.89,14.23-4.55,21.4.06,1.63.24,3.26.49,4.87.34,7.16-1.11,14.52-4.55,21.4-3.37,6.74-8.27,12.23-14.06,16.24-1.66.85-3.28,1.82-4.82,2.89v.01c-5.79,4.01-10.68,9.49-14.06,16.24-3.44,6.87-4.88,14.22-4.55,21.4.07,1.62.24,3.26.49,4.86.33,7.17-1.11,14.52-4.55,21.4-3.38,6.75-8.27,12.23-14.06,16.25-1.66.85-3.28,1.83-4.83,2.9-5.79,4.01-10.68,9.49-14.06,16.24-3.44,6.87-4.88,14.22-4.56,21.38.07,1.64.24,3.27.5,4.88.34,7.16-1.11,14.51-4.56,21.38l-9.26-4.63c3.22-6.69,4.57-13.8,4.24-20.75-.26-1.61-.42-3.23-.5-4.87-.33-7.17,1.11-14.52,4.55-21.4c3.37-6.74,8.27-12.23,14.06-16.24c1.55-1.07,3.16-2.04,4.84-2.9c5.79-4.01,10.68-9.49,14.06-16.24c3.44-6.87,4.89-14.23,4.55-21.4-.26-1.61-.42-3.23-.5-4.87-.34-7.16,1.11-14.52,4.55-21.4c1.69-3.37,3.75-6.43,6.12-9.14c2.37-2.72,5.04-5.09,7.94-7.1c1.55-1.07,3.16-2.04,4.84-2.9c5.79-4.01,10.68-9.49,14.06-16.24c3.44-6.87,4.88-14.22,4.55-21.4-.26-1.6-.42-3.23-.5-4.86-.33-7.17,1.11-14.52,4.55-21.4c1.69-3.37,3.75-6.43,6.12-9.14c2.37-2.72,5.04-5.1,7.94-7.11c1.55-1.07,3.16-2.04,4.84-2.9c5.79-4.01,10.68-9.49,14.06-16.24.1-.19.2-.4.3-.62Z" fill="#006294"/></g><g><path d="M467.06,432.42c7.17-.33,14.53,1.11,21.41,4.55c3.36,1.68,6.43,3.75,9.14,6.12c2.71,2.38,5.09,5.04,7.1,7.94c1.08,1.55,2.04,3.16,2.9,4.83c4.01,5.79,9.49,10.68,16.24,14.06.21.11.42.21.64.31l-4.64,9.26c-6.74-3.37-12.22-8.26-16.23-14.06-.86-1.66-1.82-3.27-2.9-4.83l-.01-.01c-4.02-5.78-9.49-10.68-16.23-14.06-6.88-3.44-14.22-4.88-21.39-4.55-1.63.07-3.26.25-4.86.49-7.17.33-14.52-1.11-21.39-4.55-6.75-3.38-12.23-8.27-16.24-14.06-.86-1.66-1.83-3.28-2.91-4.84-4.02-5.78-9.49-10.68-16.23-14.06-6.87-3.44-14.22-4.88-21.39-4.55-1.63.07-3.26.25-4.88.5-7.16.34-14.51-1.12-21.38-4.55l4.63-9.25c6.69,3.21,13.81,4.56,20.75,4.23c1.6-.26,3.23-.42,4.86-.49c7.17-.33,14.53,1.11,21.39,4.55c6.74,3.37,12.23,8.27,16.24,14.06c1.08,1.55,2.04,3.16,2.9,4.83c4.01,5.79,9.49,10.68,16.24,14.06c6.88,3.44,14.23,4.89,21.39,4.55c1.61-.24,3.22-.41,4.85-.48Z" fill="#006294"/><path d="M449.31,467.89c7.17-.33,14.52,1.12,21.4,4.56c3.36,1.68,6.43,3.75,9.14,6.12c2.72,2.37,5.09,5.04,7.1,7.94c1.08,1.55,2.04,3.16,2.9,4.83c4.01,5.79,9.49,10.68,16.24,14.06.21.11.42.21.64.31l-4.63,9.26c-6.74-3.37-12.22-8.27-16.23-14.06-.85-1.67-1.82-3.29-2.9-4.83l-.01-.01c-4.01-5.79-9.49-10.68-16.23-14.06-6.88-3.44-14.23-4.88-21.39-4.55-1.63.07-3.26.23-4.86.49-7.17.33-14.52-1.11-21.39-4.55-6.75-3.38-12.23-8.28-16.24-14.06-.85-1.67-1.83-3.29-2.91-4.84-4.01-5.79-9.49-10.68-16.23-14.06-6.87-3.44-14.22-4.88-21.39-4.56-1.64.08-3.26.25-4.88.51-7.16.34-14.51-1.12-21.38-4.55l4.63-9.26c6.68,3.22,13.8,4.57,20.75,4.24c1.6-.26,3.23-.42,4.87-.5c7.17-.33,14.52,1.12,21.39,4.56c6.74,3.37,12.23,8.27,16.24,14.06c1.08,1.55,2.04,3.16,2.9,4.83c4.01,5.79,9.49,10.68,16.24,14.06c6.88,3.44,14.24,4.88,21.39,4.55c1.59-.24,3.21-.41,4.84-.49Z" fill="#006294"/><path d="M431.56,503.36c7.17-.33,14.53,1.11,21.41,4.55c3.36,1.68,6.43,3.75,9.14,6.12c2.71,2.38,5.09,5.04,7.1,7.94c1.07,1.56,2.04,3.17,2.9,4.83c4.01,5.79,9.49,10.69,16.24,14.07.21.11.42.21.64.31l-4.63,9.25c-6.74-3.37-12.22-8.26-16.23-14.06-.86-1.66-1.82-3.27-2.9-4.82l-.01-.01c-4.01-5.79-9.49-10.68-16.23-14.06-6.88-3.44-14.22-4.89-21.39-4.55-1.63.06-3.26.23-4.86.48-7.18.34-14.52-1.11-21.39-4.55-6.75-3.38-12.23-8.27-16.24-14.06-.86-1.66-1.83-3.28-2.91-4.83-4.01-5.79-9.49-10.68-16.23-14.06-6.87-3.44-14.22-4.89-21.39-4.56-1.63.07-3.26.25-4.88.5-7.16.34-14.51-1.12-21.38-4.55l4.63-9.25c6.69,3.21,13.81,4.56,20.75,4.24c1.61-.27,3.23-.42,4.87-.5c7.17-.33,14.53,1.11,21.39,4.55c6.74,3.37,12.23,8.27,16.24,14.06c1.07,1.56,2.04,3.17,2.9,4.83c4.01,5.79,9.49,10.69,16.24,14.07c6.88,3.44,14.24,4.88,21.39,4.55c1.58-.25,3.19-.41,4.83-.49Z" fill="#006294"/><path d="M502.57,361.48c7.18-.34,14.53,1.11,21.41,4.55c3.36,1.68,6.43,3.75,9.14,6.12c2.72,2.37,5.09,5.04,7.1,7.94c1.08,1.55,2.04,3.16,2.9,4.83c4.01,5.79,9.49,10.68,16.24,14.06.21.11.42.21.64.31l-4.63,9.26c-6.74-3.37-12.22-8.26-16.23-14.06-.86-1.66-1.82-3.27-2.9-4.83l-.01-.01c-4.01-5.79-9.49-10.68-16.23-14.06-6.88-3.44-14.23-4.88-21.39-4.55-1.63.07-3.26.23-4.86.49-7.17.33-14.52-1.11-21.39-4.55-6.75-3.38-12.23-8.27-16.24-14.06-.86-1.66-1.83-3.28-2.91-4.84-4.01-5.79-9.49-10.68-16.23-14.06-6.87-3.44-14.23-4.88-21.39-4.56-1.64.08-3.26.25-4.88.51-7.16.34-14.51-1.12-21.38-4.55l4.63-9.26c6.68,3.22,13.8,4.57,20.75,4.24c1.6-.26,3.23-.42,4.86-.49c7.18-.34,14.53,1.11,21.39,4.55c6.74,3.37,12.23,8.27,16.24,14.06c1.08,1.55,2.04,3.16,2.9,4.83c4.01,5.79,9.49,10.68,16.24,14.06c6.88,3.44,14.23,4.89,21.39,4.55c1.59-.24,3.21-.42,4.84-.48Z" fill="#006294"/><path d="M484.82,396.94c7.17-.33,14.53,1.11,21.41,4.55c3.36,1.68,6.43,3.75,9.13,6.13c2.72,2.37,5.09,5.03,7.1,7.93c1.07,1.56,2.04,3.17,2.89,4.84c4.01,5.79,9.49,10.68,16.24,14.06.21.11.42.21.64.31l-4.63,9.25c-6.74-3.37-12.22-8.26-16.23-14.06-.86-1.66-1.82-3.27-2.9-4.82l-.01-.01c-4.01-5.79-9.49-10.68-16.23-14.06-6.88-3.44-14.22-4.89-21.39-4.55-1.63.06-3.26.23-4.86.49-7.17.33-14.51-1.12-21.39-4.56-6.75-3.38-12.23-8.27-16.24-14.06-.86-1.66-1.83-3.28-2.91-4.83-4.01-5.79-9.49-10.68-16.23-14.06-6.87-3.44-14.22-4.89-21.39-4.56-1.63.07-3.26.25-4.88.5-7.16.35-14.51-1.12-21.38-4.55l4.63-9.25c6.69,3.21,13.81,4.56,20.75,4.24c1.6-.26,3.23-.42,4.87-.5c7.17-.33,14.53,1.11,21.39,4.55c6.74,3.37,12.23,8.28,16.24,14.06c1.07,1.56,2.04,3.17,2.89,4.84c4.01,5.79,9.49,10.68,16.24,14.06c6.88,3.44,14.24,4.88,21.39,4.55c1.61-.24,3.22-.41,4.86-.49Z" fill="#006294"/></g></g></g></g><path d="" fill="none" stroke="#3f5787" stroke-width="1.2"/><path d="" fill="none" stroke="#3f5787" stroke-width="1.2"/></svg>
