<svg width="435" height="177" viewBox="0 0 435 177" fill="none" xmlns="http://www.w3.org/2000/svg">
<path d="M41.2362 176.757C88.5368 177.51 135.845 174.579 183.138 176.813C209.047 178.041 235.053 172.733 260.621 175.165C305.346 179.419 350.006 172.527 394.057 176.876C407.665 176.464 421.412 178.009 429.228 163.931C437.799 148.499 436.523 133.494 427.399 118.87C416.245 100.998 399.516 93.7726 378.45 94.9134C358.317 96.0146 354.036 92.2753 352.305 72.6363C349.12 36.4715 314.015 8.19732 280.168 17.3633C262.627 22.1166 250.254 21.1897 233.404 12.3406C181.026 -15.1414 117.777 4.99676 88.0006 55.6907C82.8984 64.3814 76.8457 68.4375 66.5926 69.7922C31.7712 74.3871 5.59426 99.3498 1.04456 130.88C-3.69199 163.662 7.33289 176.219 41.2362 176.757Z" fill="#949494"/>
</svg>
