<svg width="370" height="270" viewBox="0 0 370 270" fill="none" xmlns="http://www.w3.org/2000/svg">
<path d="M233.4 217.657L228.582 200.249C224.45 185.32 210.85 174.97 195.359 174.97H171.688C156.198 174.97 142.598 185.306 138.466 200.249L133.648 217.657C127.569 239.616 144.082 261.337 166.87 261.337H200.191C222.979 261.337 239.507 239.616 233.414 217.657H233.4Z" fill="#FFC4E1"/>
<path d="M244.731 216.998C236.454 210.99 224.828 213.259 219.394 221.914L201.34 252.108C198.455 256.702 199.379 262.724 203.497 266.253C208.189 270.272 216.159 271.309 221.565 265.973L246.048 244.504C254.508 237.011 253.849 223.623 244.717 216.998H244.731Z" fill="#FF7BAA"/>
<path d="M147.626 221.914C142.205 213.245 130.566 210.991 122.288 216.999C113.142 223.623 112.498 237.011 120.958 244.504L145.441 265.973C150.847 271.309 158.816 270.273 163.509 266.253C167.626 262.724 168.551 256.716 165.666 252.108L147.612 221.914H147.626Z" fill="#FF7BAA"/>
<path d="M171.241 200.5L154.672 192.77C150.176 190.669 144.853 191.607 141.338 195.122C136.73 199.73 136.73 207.194 141.338 211.802L154.056 224.518C160.092 230.554 169.869 230.554 175.905 224.518C176.213 224.21 176.494 223.902 176.76 223.58C183.076 216.144 180.065 204.604 171.227 200.486L171.241 200.5Z" fill="#FF7BAA"/>
<path d="M225.683 195.122C222.182 191.621 216.845 190.683 212.349 192.769L195.78 200.5C186.928 204.631 183.931 216.157 190.247 223.594C190.513 223.916 190.808 224.224 191.102 224.532C197.138 230.568 206.915 230.568 212.951 224.532L225.669 211.816C230.277 207.208 230.277 199.744 225.669 195.136L225.683 195.122Z" fill="#FF7BAA"/>
<path d="M228.889 31.7155C217.502 27.0099 204.462 32.3177 199.616 43.5636C199.574 43.6756 199.518 43.7876 199.476 43.8997C199.406 44.0677 199.336 44.2358 199.28 44.4178L197.907 55.1455L190.092 116.234L213.356 122.676L238.077 66.2793L242.461 56.2939C242.503 56.0138 242.545 55.7337 242.587 55.4676C243.89 45.6082 238.511 35.7069 228.889 31.7295V31.7155Z" fill="#FF7BAA"/>
<path d="M221.047 54.9491C215.276 52.5683 208.679 55.2572 206.214 60.9431C206.186 60.9991 206.158 61.0551 206.144 61.1111C206.116 61.1952 206.074 61.2792 206.046 61.3772L205.346 66.8111L201.382 97.7616L213.161 101.025L225.683 72.455L227.91 67.3993C227.938 67.2592 227.952 67.1192 227.98 66.9791C228.638 61.9794 225.907 56.9657 221.033 54.9491H221.047Z" fill="#FFC4E1"/>
<path d="M170.624 55.1455L169.251 44.4178C169.209 44.2358 169.125 44.0817 169.055 43.8996C169.013 43.7876 168.957 43.6756 168.915 43.5635C164.069 32.3177 151.029 27.0239 139.642 31.7155C130.02 35.7069 124.641 45.5942 125.944 55.4536C125.986 55.7196 126.028 55.9997 126.07 56.2798L130.454 66.2652L155.175 122.662L178.439 116.22L170.624 55.1314V55.1455Z" fill="#FF7BAA"/>
<path d="M163.187 66.8116L162.486 61.3777C162.458 61.2937 162.416 61.2097 162.388 61.1117C162.36 61.0556 162.332 60.9996 162.318 60.9436C159.853 55.2437 153.256 52.5548 147.486 54.9496C142.611 56.9662 139.88 61.9799 140.538 66.9796C140.552 67.1197 140.58 67.2597 140.608 67.3998L142.835 72.4555L155.357 101.025L167.136 97.7621L163.173 66.8116H163.187Z" fill="#FFC4E1"/>
<path d="M240.432 167.645C240.432 161.217 237.728 155.349 233.274 150.826V142.115C233.274 114.624 210.99 92.356 183.51 92.356C156.016 92.356 133.746 114.638 133.746 142.115V150.826C129.292 155.349 126.589 161.217 126.589 167.645C126.589 176.314 131.491 183.961 138.998 188.667C142.206 191.846 146.618 193.806 151.492 193.806H215.528C220.403 193.806 224.815 191.846 228.022 188.667C235.529 183.961 240.432 176.3 240.432 167.645Z" fill="#FF7BAA"/>
<path d="M198.679 147.577C201.162 147.577 203.175 145.564 203.175 143.081C203.175 140.599 201.162 138.586 198.679 138.586C196.196 138.586 194.183 140.599 194.183 143.081C194.183 145.564 196.196 147.577 198.679 147.577Z" fill="#FFF4CB"/>
<path d="M168.341 147.577C170.824 147.577 172.837 145.564 172.837 143.081C172.837 140.599 170.824 138.586 168.341 138.586C165.858 138.586 163.845 140.599 163.845 143.081C163.845 145.564 165.858 147.577 168.341 147.577Z" fill="#FFF4CB"/>
<path d="M200.625 162.716C199.743 162.394 198.776 162.842 198.454 163.71C197.46 166.385 194.883 168.178 192.039 168.178C188.272 168.178 185.204 165.111 185.204 161.343V160.951C188.44 160.447 190.849 158.542 190.849 156.246C190.849 153.571 187.571 151.4 183.509 151.4C179.448 151.4 176.17 153.571 176.17 156.246C176.17 158.542 178.579 160.447 181.815 160.951V161.343C181.815 165.111 178.747 168.178 174.98 168.178C172.136 168.178 169.545 166.385 168.565 163.71C168.243 162.842 167.276 162.394 166.394 162.716C165.525 163.038 165.077 164.004 165.399 164.886C166.87 168.878 170.722 171.553 174.98 171.553C178.537 171.553 181.675 169.718 183.509 166.959C185.344 169.732 188.482 171.553 192.039 171.553C196.297 171.553 200.149 168.878 201.62 164.886C201.942 164.018 201.493 163.038 200.625 162.716Z" fill="#FFF4CB"/>
<path d="M358.636 106.853C290.455 55.3266 242 204 242 204L269.891 186.871C271.588 185.828 273.632 185.531 275.557 186.037L282.751 187.938C319.428 193.899 318.734 157.923 318.734 157.923C318.734 157.923 322.851 160.633 328.001 161.586C332.689 162.45 337.531 162.132 342.036 160.564C359.266 154.558 366.43 145.455 368.93 136.873C372.165 125.755 367.873 113.837 358.641 106.853H358.636Z" fill="white"/>
<path d="M11.3642 108.853C79.5448 57.3266 128 206 128 206L100.109 188.871C98.4119 187.828 96.3679 187.531 94.443 188.037L87.2494 189.938C50.5719 195.899 51.2664 159.923 51.2664 159.923C51.2664 159.923 47.1487 162.633 41.999 163.586C37.3108 164.45 32.4688 164.132 27.9641 162.564C10.7342 156.558 3.57026 147.455 1.06986 138.873C-2.16478 127.755 2.12657 115.837 11.3592 108.853H11.3642Z" fill="white"/>
<path d="M183.999 22C203.884 22 220 17.0764 220 10.9986C220 4.9208 203.884 0 183.999 0C164.114 0 148 4.92358 148 10.9986C148 17.0736 164.116 22 183.999 22ZM183.999 8.00431C183.999 8.00431 205.841 7.99594 205.841 10.9986C205.841 14.2968 183.999 14.2968 183.999 14.2968C183.999 14.2968 162.159 14.0877 162.159 10.9986C162.159 7.90952 183.999 8.00431 183.999 8.00431Z" fill="#FFF4CB"/>
</svg>
