<svg id="ez3U5H9ZqhT1" xmlns="http://www.w3.org/2000/svg" xmlns:xlink="http://www.w3.org/1999/xlink" viewBox="0 0 333 271" shape-rendering="geometricPrecision" text-rendering="geometricPrecision">
<style><![CDATA[
#ez3U5H9ZqhT16_to {animation: ez3U5H9ZqhT16_to__to 3000ms linear infinite normal forwards}@keyframes ez3U5H9ZqhT16_to__to { 0% {transform: translate(278.279327px,155.829555px)} 6.666667% {transform: translate(278.279327px,150.355811px)} 13.333333% {transform: translate(278.279327px,144.882067px)} 20% {transform: translate(278.279327px,139.408323px)} 26.666667% {transform: translate(278.279327px,135.303015px)} 33.333333% {transform: translate(278.279327px,140.776759px)} 40% {transform: translate(278.279327px,146.250503px)} 46.666667% {transform: translate(278.279327px,151.724247px)} 53.333333% {transform: translate(278.279327px,155.829555px)} 60% {transform: translate(278.279327px,161.303299px)} 66.666667% {transform: translate(278.279327px,166.777043px)} 73.333333% {transform: translate(278.279327px,170.882351px)} 80% {transform: translate(278.279327px,165.408607px)} 86.666667% {transform: translate(278.279327px,159.934863px)} 93.333333% {transform: translate(278.279327px,154.461119px)} 100% {transform: translate(278.279327px,154.461119px)}} #ez3U5H9ZqhT17_to {animation: ez3U5H9ZqhT17_to__to 3000ms linear infinite normal forwards}@keyframes ez3U5H9ZqhT17_to__to { 0% {transform: translate(53.758714px,154.908428px)} 6.666667% {transform: translate(53.758714px,149.434684px)} 13.333333% {transform: translate(53.758714px,143.96094px)} 20% {transform: translate(53.758714px,138.487196px)} 26.666667% {transform: translate(53.758714px,134.381888px)} 33.333333% {transform: translate(53.758714px,139.855632px)} 40% {transform: translate(53.758714px,145.329376px)} 46.666667% {transform: translate(53.758714px,150.80312px)} 53.333333% {transform: translate(53.758714px,154.908428px)} 60% {transform: translate(53.758714px,160.382172px)} 66.666667% {transform: translate(53.758714px,165.855916px)} 73.333333% {transform: translate(53.758714px,169.961224px)} 80% {transform: translate(53.758714px,164.48748px)} 86.666667% {transform: translate(53.758714px,159.013736px)} 93.333333% {transform: translate(53.758714px,153.539992px)} 100% {transform: translate(53.758714px,153.539992px)}} #ez3U5H9ZqhT18_to {animation: ez3U5H9ZqhT18_to__to 3000ms linear infinite normal forwards}@keyframes ez3U5H9ZqhT18_to__to { 0% {transform: translate(166.018494px,10.9773px)} 6.666667% {transform: translate(166.018494px,5.503556px)} 13.333333% {transform: translate(166.018494px,0.029812px)} 20% {transform: translate(166.018494px,-5.443932px)} 26.666667% {transform: translate(166.018494px,-9.54924px)} 33.333333% {transform: translate(166.018494px,-4.075496px)} 40% {transform: translate(166.018494px,1.398248px)} 46.666667% {transform: translate(166.018494px,6.871992px)} 53.333333% {transform: translate(166.018494px,10.9773px)} 60% {transform: translate(166.018494px,16.451044px)} 66.666667% {transform: translate(166.018494px,21.924788px)} 73.333333% {transform: translate(166.018494px,26.030096px)} 80% {transform: translate(166.018494px,20.556352px)} 86.666667% {transform: translate(166.018494px,15.082608px)} 93.333333% {transform: translate(166.018494px,9.608864px)} 100% {transform: translate(166.018494px,9.608864px)}}
]]></style>
<g transform="matrix(.755005 0 0 0.730761 40.673836 36.348982)"><path d="M216.339,217.552l-4.86-17.572c-4.167-15.07-17.885-25.517-33.509-25.517h-23.875c-15.625,0-29.342,10.433-33.509,25.517l-4.86,17.572c-6.131,22.167,10.525,44.093,33.509,44.093h33.609c22.984,0,39.654-21.926,33.509-44.093h-.014Z" fill="#ffc4e1"/><path d="M227.768,216.874c-8.35-6.065-20.075-3.775-25.556,4.962l-18.21,30.479c-2.91,4.637-1.978,10.716,2.175,14.278c4.733,4.057,12.771,5.104,18.224-.283l24.694-21.671c8.533-7.564,7.869-21.078-1.342-27.765h.015Z" fill="#ff7baa"/><path d="M129.825,221.85c-5.467-8.751-17.207-11.027-25.556-4.962-9.2249,6.687-9.8747,20.201-1.342,27.765l24.694,21.671c5.453,5.387,13.491,4.34,18.224.283c4.153-3.562,5.086-9.627,2.176-14.278l-18.21-30.479h.014Z" fill="#ff7baa"/><path d="M153.643,200.22l-16.712-7.803c-4.535-2.121-9.903-1.174-13.449,2.375-4.648,4.651-4.648,12.186,0,16.837l12.827,12.836c6.089,6.093,15.95,6.093,22.039,0c.31-.311.593-.622.861-.947c6.372-7.507,3.334-19.156-5.58-23.312l.014.014Z" fill="#ff7baa"/><path d="M208.555,194.792c-3.532-3.534-8.914-4.482-13.449-2.375l-16.712,7.803c-8.929,4.171-11.952,15.805-5.581,23.312.269.325.566.636.862.947c6.089,6.093,15.95,6.093,22.038,0l12.828-12.836c4.648-4.651,4.648-12.186,0-16.837l.014-.014Z" fill="#ff7baa"/><path d="M211.79,29.8572c-11.485-4.75-24.637.6079-29.525,11.9598-.043.1131-.099.2262-.142.3393-.07.1696-.141.3393-.197.5231l-1.385,10.8288-7.883,61.6648l23.465,6.503l24.935-56.929l4.421-10.0796c.043-.2827.085-.5655.127-.8341c1.314-9.9523-4.111-19.9471-13.816-23.962v-.0141Z" fill="#ff7baa"/><path d="M203.879,53.2961c-5.82-2.4033-12.474.311-14.96,6.0506-.028.0565-.057.1131-.071.1696-.028.0849-.071.1697-.099.2686l-.706,5.4851-3.998,31.2425l11.881,3.2939l12.629-28.8392l2.247-5.1034c.028-.1414.042-.2828.07-.4241.664-5.0469-2.091-10.1079-7.007-12.1436h.014Z" fill="#ffc4e1"/><path d="M153.021,53.4939l-1.384-10.8288c-.042-.1838-.127-.3393-.198-.5231-.042-.1131-.099-.2261-.141-.3392-4.888-11.3519-18.04-16.6957-29.526-11.9598-9.705,4.029-15.13,14.0096-13.816,23.962.043.2686.085.5513.127.834l4.422,10.0796l24.934,56.9294l23.465-6.503-7.883-61.6652v.0141Z" fill="#ff7baa"/><path d="M145.52,65.2701l-.706-5.4851c-.028-.0848-.071-.1696-.099-.2686-.028-.0565-.056-.1131-.07-.1696-2.487-5.7537-9.141-8.468-14.961-6.0506-4.916,2.0357-7.671,7.0967-7.007,12.1436.014.1413.042.2827.071.4241l2.246,5.1034l12.629,28.8392l11.881-3.2939-3.998-31.2425h.014Z" fill="#ffc4e1"/><path d="M223.431,167.055c0-6.488-2.726-12.412-7.219-16.978v-8.793c0-27.751-22.476-50.2283-50.193-50.2283-27.732,0-50.194,22.4913-50.194,50.2283v8.793c-4.492,4.566-7.219,10.49-7.219,16.978c0,8.751,4.945,16.47,12.517,21.22c3.235,3.209,7.685,5.188,12.601,5.188h64.589c4.916,0,9.367-1.979,12.602-5.188c7.572-4.75,12.516-12.483,12.516-21.22Z" fill="#ff7baa"/><path d="M181.332,146.797c2.504,0,4.534-2.032,4.534-4.538s-2.03-4.538-4.534-4.538c-2.505,0-4.535,2.032-4.535,4.538s2.03,4.538,4.535,4.538Z" fill="#fff4cb"/><path d="M150.718,146.797c2.505,0,4.535-2.032,4.535-4.538s-2.03-4.538-4.535-4.538c-2.504,0-4.534,2.032-4.534,4.538s2.03,4.538,4.534,4.538Z" fill="#fff4cb"/><path d="M183.281,162.093c-.89-.325-1.864.128-2.189,1.004-1.003,2.7-3.603,4.51-6.47,4.51-3.801,0-6.894-3.096-6.894-6.899v-.396c3.263-.509,5.693-2.431,5.693-4.75c0-2.7-3.306-4.891-7.403-4.891s-7.402,2.191-7.402,4.891c0,2.319,2.429,4.241,5.693,4.75v.396c0,3.803-3.094,6.899-6.894,6.899-2.868,0-5.482-1.81-6.47-4.51-.325-.876-1.3-1.329-2.19-1.004-.876.326-1.328,1.301-1.003,2.192c1.483,4.029,5.368,6.729,9.663,6.729c3.588,0,6.753-1.852,8.603-4.637c1.851,2.799,5.015,4.637,8.604,4.637c4.294,0,8.179-2.7,9.662-6.729.325-.877-.127-1.866-1.003-2.192Z" fill="#fff4cb"/><g id="ez3U5H9ZqhT16_to" transform="translate(278.279327,155.829555)"><path d="M322.166,120.036c-48.767-36.8691-85.893,44.46-97.378,74.021-1.3,3.35,2.401,6.446,5.467,4.566l15.003-9.218c1.469-.904,3.249-1.159,4.916-.72l6.23,1.654c31.786,5.174,31.193-26.026,31.193-26.026s3.574,2.346,8.038,3.18c4.069.75,8.264.467,12.163-.89c14.933-5.203,21.149-13.105,23.31-20.541c2.811-9.641-.918-19.976-8.914-26.026h-.028Z" transform="translate(-278.279327,-154.908428)" fill="#fff"/></g><g id="ez3U5H9ZqhT17_to" transform="translate(53.758714,154.908428)"><path d="M9.8726,120.036c48.7666-36.8691,85.8925,44.46,97.3774,74.021c1.3,3.35-2.401,6.446-5.467,4.566l-15.0027-9.218c-1.4692-.904-3.2492-1.159-4.9162-.72l-6.23,1.654c-31.7859,5.174-31.1926-26.026-31.1926-26.026s-3.5741,2.346-8.0383,3.18c-4.0686.75-8.2643.467-12.1634-.89C9.30752,161.4,3.09161,153.498,0.930172,146.062c-2.811282-9.641.918258-19.976,8.914178-26.026h.02825Z" transform="translate(-53.758714,-154.908428)" fill="#fff"/></g><g id="ez3U5H9ZqhT18_to" transform="translate(166.018494,10.9773)"><path d="M166.018,21.9546c20.301,0,36.759-4.9197,36.759-10.9703s-16.458-10.9843-36.759-10.9843c-20.3,0-36.758,4.91963-36.758,10.9702s16.458,10.9702,36.758,10.9702v.0142Zm0-13.96727c0,0,22.307,0,22.307,2.98287c0,3.2939-22.307,3.2939-22.307,3.2939s-22.292-.2121-22.292-3.2939s22.292-2.98287,22.292-2.98287Z" transform="translate(-166.018494,-10.9773)" fill="#fff4cb"/></g></g></svg>
